<?xml version="1.0" encoding="UTF-8"?>
<svg width="34px" height="12px" viewBox="0 0 34 12" version="1.1" xmlns="http://www.w3.org/2000/svg" xmlns:xlink="http://www.w3.org/1999/xlink">
    <!-- Generator: Sketch 41.2 (35397) - http://www.bohemiancoding.com/sketch -->
    <title>amex--s.colors-black-white-grey</title>
    <desc>Created with Sketch.</desc>
    <defs></defs>
    <g id="01-Style-Tile" stroke="none" stroke-width="1" fill="none" fill-rule="evenodd">
        <g id="Style-Tile" transform="translate(-626.000000, -1847.000000)" fill="#000000">
            <g id="Icons" transform="translate(100.000000, 660.000000)">
                <g id="Iconset" transform="translate(0.000000, 30.000000)">
                    <g id="Icons" transform="translate(61.000000, 67.000000)">
                        <g id="Payment-Methods" transform="translate(0.000000, 1086.000000)">
                            <g id="Icon/Payment/Amex/Black" transform="translate(465.000000, 4.000000)">
                                <path d="M32.9671203,11.679265 C32.8607528,11.7861772 32.6579927,11.8596782 32.358834,11.8997703 C32.0596754,11.9398624 31.7306058,11.96659 31.3716154,11.9799541 C31.012625,11.9933181 30.65364,11.9933181 30.2946496,11.9799541 C29.9356592,11.96659 29.6431529,11.9599081 29.4171219,11.9599081 L29.4171219,11.679265 C29.2708665,11.7327211 29.1246134,11.7794945 28.978358,11.8195866 C28.8321027,11.8596786 28.6858495,11.906452 28.5395942,11.9599081 L20.8612268,11.9599081 L20.8612268,10.5366465 L20.5820134,10.5366465 L20.5820134,11.9599081 L18.2086998,11.9599081 L18.2086998,10.5366465 C17.942781,10.5633745 17.7034577,10.5967841 17.4907226,10.6368762 C17.2779876,10.6769683 17.0120727,10.7036959 16.6929702,10.7170599 L16.6929702,11.8596784 C16.5334189,11.9264986 16.324011,11.96659 16.0647401,11.9799541 C15.8054693,11.9933181 15.5362305,12 15.2570157,12 C14.977801,12 14.7019144,11.9933181 14.4293476,11.9799541 C14.1567808,11.96659 13.9141335,11.9599081 13.7013985,11.9599081 C13.6748066,11.906452 13.6448912,11.8596786 13.6116513,11.8195866 C13.5784115,11.7794945 13.548496,11.7327211 13.5219042,11.679265 L13.4221851,11.679265 C13.3291135,11.5456247 13.2659587,11.4353732 13.2327189,11.348507 C13.199479,11.2616408 13.0897892,11.1981627 12.903646,11.1580706 L12.903646,11.338484 L12.8039269,11.338484 C12.7108554,11.4453962 12.624433,11.5489659 12.5446574,11.6491961 C12.4648817,11.7494263 12.3784594,11.8529959 12.2853878,11.9599081 L7.4988731,11.9599081 L7.4988731,6.52745877 L12.3651631,6.52745877 C12.4715306,6.67446306 12.5745726,6.81144227 12.6742922,6.93840051 C12.7740117,7.06535876 12.8770537,7.19565606 12.9834212,7.32929632 C13.036605,7.28920424 13.0565486,7.27918137 13.0432527,7.29922741 C13.0299567,7.31927345 13.0432525,7.30256866 13.0831403,7.24911256 C13.2028038,7.18229243 13.3257894,7.0854047 13.4521008,6.95844645 C13.5784122,6.83148821 13.6615106,6.68782708 13.7013985,6.52745877 L17.4907226,6.52745877 C17.623682,6.58091488 17.7566394,6.62768826 17.8895989,6.66778034 C18.0225583,6.70787242 18.1555157,6.75464581 18.2884751,6.80810191 L18.2884751,6.52745877 L21.5592602,6.52745877 C21.6922196,6.58091488 21.825177,6.62768826 21.9581364,6.66778034 C22.0910958,6.70787242 22.2240532,6.75464581 22.3570126,6.80810191 L22.3570126,6.52745877 L26.7645949,6.52745877 L26.7645949,6.80810191 L26.864314,6.80810191 C26.9573856,6.70118971 27.1501738,6.62434771 27.4426845,6.57757362 C27.7351952,6.53079953 28.057617,6.50407188 28.4099594,6.49738986 C28.7623018,6.49070785 29.111315,6.49404881 29.4570095,6.50741283 C29.8027039,6.52077686 30.0885624,6.52745877 30.3145934,6.52745877 L30.3145934,6.80810191 L30.3943686,6.80810191 C30.5007361,6.70118971 30.6902005,6.62434771 30.9627672,6.57757362 C31.235334,6.53079953 31.5344882,6.50407188 31.8602388,6.49738986 C32.1859893,6.49070785 32.511735,6.49404881 32.8374855,6.50741283 C33.1632361,6.52077686 33.4391227,6.52745877 33.6651537,6.52745877 L33.6651537,9.11338485 L33.7648728,9.11338485 L33.7648728,9.29379829 L33.844648,9.29379829 L33.844648,9.5543955 L33.9244232,9.5543955 C34.0041989,9.78158394 34.0208186,10.0154509 33.9742828,10.2560033 C33.927747,10.4965558 33.8512965,10.7170589 33.7449289,10.9175193 C33.6385614,11.1179797 33.5122519,11.2883685 33.3659965,11.4286908 C33.2197412,11.569013 33.0867838,11.6525369 32.9671203,11.679265 L32.9671203,11.679265 Z M18.5477446,8.23136355 C18.5211528,8.1511794 18.4879134,8.0743374 18.4480256,8.00083526 C18.4081378,7.92733311 18.3682505,7.85717303 18.3283627,7.7903529 C18.261883,7.71016875 18.1754607,7.64334962 18.0690932,7.58989352 C17.9627256,7.53643741 17.8563597,7.48966402 17.7499922,7.44957195 C17.6968084,7.43620792 17.6336536,7.42952601 17.560526,7.42952601 C17.4873983,7.42952601 17.4242435,7.41616218 17.3710598,7.38943413 L14.1999937,7.38943413 C14.1734019,7.40279816 14.1335146,7.44957155 14.0803309,7.5297557 C14.0271471,7.60993986 13.9872599,7.66339516 13.960668,7.69012321 C13.8808924,7.75694334 13.8044418,7.82710342 13.7313142,7.90060556 C13.6581865,7.97410771 13.5883839,8.04426779 13.5219042,8.11108792 C13.4554244,8.19127207 13.3889457,8.27479598 13.322466,8.36166215 C13.2559863,8.44852832 13.1762119,8.52537032 13.0831403,8.59219044 C13.0831403,8.60555447 13.0764924,8.61223638 13.0631965,8.61223638 C13.0366046,8.54541625 12.9900695,8.48527904 12.9235898,8.43182294 C12.8571101,8.37836683 12.7972793,8.31822962 12.7440955,8.25140949 C12.6776158,8.15786131 12.6044892,8.07099644 12.5247136,7.99081229 C12.4449379,7.91062813 12.3718114,7.82376327 12.3053317,7.73021509 C12.2654438,7.66339496 12.2122609,7.6065987 12.1457812,7.55982461 C12.0793015,7.51305052 12.0327664,7.45625426 12.0061745,7.38943413 L8.39634461,7.38943413 L8.39634461,11.1380246 L11.946343,11.1380246 C11.9729349,11.1246606 12.022794,11.0712053 12.0959216,10.9776571 C12.1690493,10.884109 12.2189083,10.8172898 12.2455002,10.7771977 C12.3917556,10.6569215 12.524713,10.5232833 12.6443764,10.376279 C12.7108562,10.2960948 12.7773349,10.2159119 12.8438146,10.1357277 C12.9102943,10.0555436 12.9834208,9.98204252 13.0631965,9.91522239 C13.0764924,9.91522239 13.0831403,9.90854048 13.0831403,9.89517645 C13.2692835,10.1090009 13.4520999,10.3161402 13.6315951,10.5166005 C13.8110903,10.7170609 13.9939068,10.9242002 14.1800499,11.1380246 L15.9151615,11.1380246 L15.9151615,9.87513051 C16.3805194,9.88849454 16.8226028,9.88515358 17.241425,9.86510754 C17.6602471,9.8450615 18.0026125,9.73480994 18.2685313,9.53434956 C18.3748988,9.44080138 18.4413775,9.33389077 18.4679694,9.21361454 C18.4945613,9.09333831 18.5278006,8.95301814 18.5676884,8.79264983 C18.5942803,8.71246567 18.6042521,8.6189189 18.5976042,8.51200669 C18.5909562,8.40509448 18.5743365,8.31154771 18.5477446,8.23136355 L18.5477446,8.23136355 Z M22.2373497,7.62998539 C22.0777985,7.50970916 21.8816863,7.43954908 21.6490073,7.41950304 C21.4163283,7.399457 21.1603853,7.38943413 20.8811706,7.38943413 L19.0064523,7.38943413 L19.0064523,11.1380246 L19.9039238,11.1380246 L19.9039238,9.77490082 C20.0235873,9.77490082 20.1665165,9.77155986 20.3327158,9.76487785 C20.498915,9.75819584 20.6617878,9.75819584 20.8213391,9.76487785 C20.9808904,9.77155986 21.1271436,9.78826464 21.260103,9.8149927 C21.3930624,9.84172075 21.4794847,9.88181222 21.5193725,9.93526833 C21.6124441,10.0555446 21.6589792,10.2326152 21.6589792,10.4664857 L21.6589792,11.1380246 L22.5564507,11.1380246 L22.5564507,10.5667154 C22.5564507,10.372937 22.5398311,10.1958663 22.5065912,10.035498 C22.4733513,9.87512971 22.4168444,9.7381505 22.3370688,9.62455628 C22.2572932,9.51096206 22.1376315,9.44080198 21.9780802,9.41407393 L21.9780802,9.37398205 C22.1376315,9.33388997 22.267265,9.24034319 22.3669845,9.09333891 C22.4667041,8.94633462 22.5331828,8.77928681 22.5664226,8.59219044 C22.5996625,8.40509408 22.5896907,8.22468244 22.5365069,8.0509501 C22.4833232,7.87721777 22.3836051,7.7368976 22.2373497,7.62998539 L22.2373497,7.62998539 Z M26.0665615,10.356233 L24.6306071,10.356233 C24.5242396,10.356233 24.4079019,10.359574 24.2815904,10.366256 C24.155279,10.372938 24.052237,10.3629152 23.9724613,10.3361871 L23.9724613,9.61453331 L26.0067301,9.61453331 L26.0067301,8.85278765 L24.6306071,8.85278765 C24.5242396,8.85278765 24.4079019,8.8561286 24.2815904,8.86281062 C24.155279,8.86949263 24.052237,8.85946976 23.9724613,8.83274171 C23.9724613,8.7258295 23.9691374,8.60889603 23.9624894,8.48193778 C23.9558415,8.35497954 23.9658133,8.24472798 23.9924052,8.1511798 L26.0665615,8.1511798 L26.0665615,7.38943413 L23.0949336,7.38943413 L23.0949336,11.1380246 L26.0665615,11.1380246 L26.0665615,10.356233 Z M29.7362228,9.67467113 C29.6298553,9.26038633 29.3772362,8.99979173 28.978358,8.89287952 C28.8852864,8.8795155 28.7988641,8.87283358 28.7190885,8.87283358 C28.6393128,8.87283358 28.5595384,8.86615167 28.4797627,8.85278765 C28.3335074,8.82605959 28.1872542,8.82271864 28.0409989,8.84276468 C27.8947435,8.86281072 27.7617861,8.85278785 27.6421226,8.81269577 C27.5756429,8.78596772 27.5124882,8.72917146 27.4526564,8.64230529 C27.3928247,8.55543912 27.3961486,8.4652333 27.4626283,8.37168512 C27.5025162,8.26477291 27.5756427,8.20797666 27.6820103,8.20129464 C27.7883778,8.19461263 27.9146873,8.19127167 28.0609427,8.19127167 L29.5567285,8.19127167 L29.5567285,7.38943413 C29.3705854,7.38943413 29.1545296,7.38609317 28.9085547,7.37941116 C28.6625798,7.37272915 28.4166086,7.36938819 28.1706336,7.36938819 C27.9246587,7.36938819 27.6953072,7.38275202 27.4825722,7.40948007 C27.2698371,7.43620812 27.1036403,7.48298151 26.9839769,7.54980164 C26.7446499,7.71016995 26.585101,7.95740072 26.5053254,8.29150137 L26.5053254,8.49196075 C26.4920295,8.55878088 26.4887055,8.63896383 26.4953535,8.73251201 C26.5020015,8.8260602 26.5186211,8.90624315 26.545213,8.97306328 C26.5983968,9.10670354 26.6615516,9.21027318 26.7346792,9.28377532 C26.8078069,9.35727747 26.8975532,9.41407373 27.0039207,9.4541658 C27.1102882,9.49425788 27.2266259,9.52766744 27.3529374,9.5543955 C27.4792488,9.58112355 27.6155302,9.61453311 27.7617855,9.65462519 C27.868153,9.68135324 27.974519,9.68803515 28.0808865,9.67467113 C28.187254,9.6613071 28.290296,9.65796614 28.3900156,9.66464816 C28.4897351,9.67133017 28.5761574,9.69137591 28.6492851,9.72478597 C28.7224128,9.75819604 28.7722718,9.82167421 28.7988637,9.91522239 C28.8254556,9.99540654 28.8188077,10.0689076 28.7789199,10.1357277 C28.7390321,10.2025478 28.6991449,10.2493212 28.659257,10.2760493 C28.5927773,10.3161414 28.5030311,10.3328461 28.3900156,10.3261641 C28.2770001,10.3194821 28.1673102,10.3161412 28.0609427,10.3161412 L26.6050445,10.3161412 L26.6050445,11.1380246 C26.8443714,11.1380246 27.1102862,11.1447066 27.4027969,11.1580706 C27.6953076,11.1714346 27.981166,11.1714346 28.2603808,11.1580706 C28.5395956,11.1447066 28.7888907,11.107956 29.0082737,11.0478179 C29.2276568,10.9876798 29.3905296,10.8907921 29.4968971,10.7571518 C29.5500809,10.6903317 29.5899681,10.6201716 29.61656,10.5466695 C29.6431519,10.4731673 29.6697433,10.3896434 29.6963352,10.2960952 C29.7229271,10.2159111 29.7428707,10.1190233 29.7561667,10.0054291 C29.7694626,9.89183489 29.7628147,9.78158333 29.7362228,9.67467113 L29.7362228,9.67467113 Z M33.1665584,9.51430362 C33.0734868,9.20693102 32.8341635,8.99979173 32.4485812,8.89287952 C32.3688056,8.8795155 32.2890311,8.87283358 32.2092555,8.87283358 C32.1294798,8.87283358 32.0497054,8.86615167 31.9699297,8.85278765 C31.8768581,8.83942362 31.7771401,8.83608266 31.6707726,8.84276468 C31.564405,8.84944669 31.461363,8.85278765 31.3616435,8.85278765 C31.2619239,8.85278765 31.1755016,8.83942382 31.1023739,8.81269577 C31.0292463,8.78596772 30.9793872,8.73251242 30.9527953,8.65232826 C30.9262035,8.61223618 30.9129077,8.55543992 30.9129077,8.48193778 C30.9129077,8.40843564 30.9262035,8.35832129 30.9527953,8.33159324 C31.019275,8.25140909 31.1056974,8.20797666 31.2120649,8.20129464 C31.3184324,8.19461263 31.444742,8.19127167 31.5909973,8.19127167 L33.0468955,8.19127167 L33.0468955,7.38943413 L31.730604,7.38943413 C31.4513892,7.38943413 31.2020941,7.40279796 30.9827111,7.42952601 C30.763328,7.45625406 30.5805116,7.51305032 30.4342562,7.59991649 C30.2880009,7.68678265 30.1749871,7.813739 30.0952115,7.98078932 C30.0154358,8.14783964 29.9755486,8.37168372 29.9755486,8.65232826 C29.9755486,8.78596852 30.0087879,8.91960677 30.0752676,9.05324703 C30.1550433,9.24034339 30.2846768,9.37064069 30.464172,9.44414283 C30.6436672,9.51764498 30.8464272,9.58112315 31.0724582,9.63457925 C31.2187136,9.63457925 31.3716146,9.63792021 31.5311659,9.64460222 C31.6907172,9.65128423 31.8436182,9.65462519 31.9898735,9.65462519 C32.0563532,9.68135324 32.1062123,9.70808089 32.1394521,9.73480894 C32.172692,9.76153699 32.2092553,9.78826464 32.2491431,9.8149927 C32.275735,9.90854088 32.2823828,9.99540574 32.2690869,10.0755899 C32.255791,10.1557741 32.2159037,10.2225932 32.149424,10.2760493 C32.0829443,10.3161414 31.9898741,10.3328461 31.8702107,10.3261641 C31.7505472,10.3194821 31.6375334,10.3161412 31.5311659,10.3161412 L30.0952115,10.3161412 L30.0952115,11.1380246 C30.3478343,11.1380246 30.6071013,11.1413656 30.8730201,11.1480476 C31.1389389,11.1547296 31.3982059,11.1547296 31.6508287,11.1480476 C31.9034516,11.1413656 32.1361271,11.1146379 32.3488621,11.0678639 C32.5615972,11.0210898 32.7410897,10.9442478 32.8873451,10.8373356 C32.9538248,10.7838795 33.0136556,10.7070375 33.0668394,10.6068073 C33.1200231,10.5065771 33.1599103,10.4096893 33.1865022,10.3161412 C33.1997982,10.2626851 33.206446,10.1825021 33.206446,10.0755899 C33.2330379,9.99540574 33.2396858,9.89851801 33.2263898,9.78492379 C33.2130939,9.67132957 33.1931503,9.58112375 33.1665584,9.51430362 L33.1665584,9.51430362 Z M19.9039238,8.99310922 L19.9039238,8.1511798 C20.0501792,8.1511798 20.213052,8.14783884 20.3925472,8.14115683 C20.5720424,8.13447481 20.748211,8.13447481 20.9210582,8.14115683 C21.0939054,8.14783884 21.2434825,8.17456649 21.3697939,8.22134058 C21.4961054,8.26811467 21.5725559,8.35163858 21.5991478,8.47191481 C21.6257397,8.60555507 21.60912,8.71580663 21.5492883,8.8026728 C21.4894565,8.88953897 21.4263017,8.94633523 21.359822,8.97306328 C21.2933423,8.99979133 21.1969482,9.01649611 21.0706368,9.02317812 C20.9443253,9.02986014 20.808044,9.03320109 20.6617886,9.03320109 C20.5155333,9.03320109 20.3726041,9.02651918 20.2329967,9.01315515 C20.0933893,8.99979113 19.9836995,8.99310922 19.9039238,8.99310922 L19.9039238,8.99310922 Z M15.9151615,9.11338485 L15.9151615,8.17122573 C15.9949372,8.17122573 16.1112749,8.16788478 16.2641782,8.16120277 C16.4170815,8.15452075 16.5699826,8.1511798 16.7228859,8.1511798 C16.8757892,8.1511798 17.0153945,8.15452075 17.1417059,8.16120277 C17.2680174,8.16788478 17.3577636,8.18458956 17.4109474,8.21131761 C17.5173149,8.27813774 17.5837936,8.37836643 17.6103855,8.51200669 C17.6635693,8.71246708 17.6336538,8.8561282 17.5206383,8.94299437 C17.4076228,9.02986054 17.2580458,9.0866568 17.0719026,9.11338485 C16.8857594,9.1401129 16.6863233,9.14679481 16.4735882,9.13343079 C16.2608532,9.12006676 16.0747128,9.11338485 15.9151615,9.11338485 L15.9151615,9.11338485 Z M14.8381957,10.5967843 C14.7318282,10.4765081 14.6254622,10.3629156 14.5190947,10.2560033 C14.4127272,10.1490911 14.3130091,10.0354986 14.2199376,9.91522239 C14.1534578,9.83503823 14.0637116,9.72478667 13.9506961,9.5844644 C13.8376806,9.44414213 13.7412865,9.3472544 13.6615108,9.29379829 C13.6748068,9.22697816 13.7279897,9.15347713 13.8210613,9.07329297 C13.9141329,8.99310881 13.9806116,8.92628969 14.0204994,8.87283358 C14.126867,8.76592138 14.229909,8.65232886 14.3296285,8.53205263 C14.4293481,8.4117764 14.5323901,8.29818388 14.6387576,8.19127167 C14.6919414,8.13781557 14.7584201,8.0743374 14.8381957,8.00083526 C14.9179714,7.92733311 14.9711543,7.85717303 14.9977462,7.7903529 L15.01769,7.7903529 L15.01769,10.7771977 L14.9977462,10.7771977 C14.9711543,10.7371057 14.9445628,10.7036961 14.917971,10.6769681 C14.8913791,10.65024 14.8647876,10.6235124 14.8381957,10.5967843 L14.8381957,10.5967843 Z M11.6272421,10.2159115 L11.4876354,10.356233 L9.29381613,10.356233 L9.29381613,9.61453331 L11.2483096,9.61453331 L11.2483096,8.85278765 L9.29381613,8.85278765 L9.29381613,8.1511798 L11.527523,8.1511798 C11.6072987,8.27145603 11.7036928,8.38170759 11.8167083,8.48193778 C11.9297238,8.58216798 12.0261179,8.68573762 12.1058935,8.79264983 C12.1723732,8.85946996 12.235528,8.93631196 12.2953597,9.02317812 C12.3551915,9.11004429 12.4249941,9.18020437 12.5047698,9.23366048 C12.4781779,9.28711658 12.4449385,9.32720806 12.4050507,9.35393611 C12.3651629,9.38066416 12.3319235,9.41407373 12.3053317,9.4541658 C12.1989641,9.60117009 12.0859503,9.73146738 11.9662869,9.8450616 C11.8466234,9.95865582 11.7336096,10.0822712 11.6272421,10.2159115 L11.6272421,10.2159115 Z M28.7190885,4.76341618 L28.6393132,4.76341618 L28.6393132,5.46502403 L25.5280786,5.46502403 C25.5147827,5.42493195 25.501487,5.38149952 25.488191,5.33472543 C25.4748951,5.28795134 25.4615993,5.2445189 25.4483034,5.20442683 C25.3685277,5.1376067 25.3120208,5.04740088 25.278781,4.93380666 C25.2455411,4.82021244 25.2156257,4.70327896 25.1890338,4.58300273 L24.3912814,4.58300273 C24.3912814,4.60973078 24.3746617,4.669868 24.3414219,4.76341618 C24.308182,4.85696436 24.2716187,4.95385209 24.2317309,5.05408229 C24.1918431,5.15431248 24.1519558,5.2445183 24.112068,5.32470246 C24.0721802,5.40488661 24.0455887,5.45166 24.0322928,5.46502403 L21.998024,5.46502403 L21.998024,5.38484027 L21.5592602,5.38484027 L21.5592602,5.28461058 C21.4661886,5.27124656 21.3764423,5.25788273 21.2900187,5.2445187 C21.2035951,5.23115468 21.1138488,5.21779085 21.0207772,5.20442683 C21.0074813,5.2445189 20.9941856,5.28795134 20.9808896,5.33472543 C20.9675937,5.38149952 20.9542979,5.42493195 20.941002,5.46502403 L17.131734,5.46502403 C17.0652543,5.29129169 17.0353389,5.07078857 17.0419869,4.80350806 C17.0486348,4.53622754 17.0519588,4.28231486 17.0519588,4.04176239 L16.8724645,4.04176239 L16.8724645,5.38484027 C16.7262091,5.43829638 16.5566884,5.47170594 16.3638973,5.48506997 C16.1711061,5.49843399 15.9650221,5.50511591 15.7456391,5.50511591 C15.5262561,5.50511591 15.3068764,5.49843399 15.0874933,5.48506997 C14.8681103,5.47170594 14.6653503,5.46502403 14.4792071,5.46502403 L9.35364756,5.46502403 L9.35364756,4.94382963 L9.27387232,4.94382963 L9.27387232,5.10419713 C9.20739261,5.17101726 9.16750539,5.22447257 9.15420945,5.26456464 C9.14091351,5.30465672 9.12096989,5.37147585 9.09437801,5.46502403 L7.4988731,5.46502403 C7.47228122,5.37147585 7.44568973,5.28127003 7.41909785,5.19440386 C7.39250597,5.10753769 7.36591449,5.02401378 7.33932261,4.94382963 L7.23960355,4.94382963 L7.23960355,5.46502403 L4.22808802,5.46502403 C4.21479208,5.42493195 4.20149634,5.38149952 4.1882004,5.33472543 C4.17490446,5.28795134 4.16160872,5.2445189 4.14831278,5.20442683 C4.08183307,5.1376067 4.02865011,5.04071896 3.98876229,4.91376072 C3.94887446,4.78680247 3.91563511,4.67655091 3.88904323,4.58300273 L3.09129077,4.58300273 C3.09129077,4.62309481 3.0746711,4.68991394 3.04143124,4.78346212 C3.00819139,4.8770103 2.9716281,4.97389803 2.93174028,5.07412823 C2.89185246,5.17435842 2.85196523,5.26122329 2.81207741,5.33472543 C2.77218959,5.40822757 2.74559811,5.45166 2.73230217,5.46502403 L0,5.46502403 C0.0664797038,5.30465572 0.12631054,5.14428981 0.179494303,4.9839215 C0.232678066,4.82355319 0.285861031,4.65650538 0.339044794,4.48277304 L0.438763852,4.48277304 L0.438763852,4.22217584 L0.518539097,4.22217584 L0.518539097,4.04176239 L0.618258154,4.04176239 L0.618258154,3.86134894 L0.6980334,3.86134894 L0.6980334,3.70098144 L0.797752457,3.70098144 L0.797752457,3.4203383 L0.877527703,3.4203383 L0.877527703,3.23992485 L0.957302949,3.23992485 C0.98389483,3.17310472 1.00051451,3.11630846 1.00716248,3.06953437 C1.01381045,3.02276028 1.03043012,2.96596402 1.05702201,2.89914389 L1.13679725,2.89914389 L1.13679725,2.61850075 L1.23651631,2.61850075 C1.24981225,2.55168062 1.26310799,2.49488437 1.27640393,2.44811028 C1.28969987,2.40133618 1.30299561,2.34453993 1.31629155,2.2777198 L1.41601061,2.2777198 L1.41601061,1.99707666 L1.49578586,1.99707666 L1.49578586,1.81666321 L1.5755611,1.81666321 L1.5755611,1.6562957 L1.67528016,1.6562957 L1.67528016,1.47588225 L1.75505541,1.47588225 L1.75505541,1.19523911 L1.85477446,1.19523911 C1.8680704,1.14178301 1.88136615,1.08832771 1.89466209,1.03487161 C1.90795803,0.981415503 1.92125377,0.921278289 1.93454971,0.854458159 L2.03426877,0.854458159 L2.03426877,0.57381502 L2.11404401,0.57381502 C2.14063589,0.493630864 2.17055131,0.410106956 2.20379116,0.323240788 C2.23703102,0.236374619 2.26694643,0.146168798 2.29353831,0.0526206169 L4.68679569,0.0526206169 C4.71338757,0.132804772 4.73997905,0.199623899 4.76657093,0.253080003 C4.79316281,0.306536106 4.8197543,0.386719058 4.84634618,0.493631265 L4.94606524,0.493631265 L4.94606524,0.0526206169 L7.6783674,0.0526206169 C7.77143899,0.253081005 7.87115705,0.446856473 7.97752457,0.633952835 C8.0838921,0.821049197 8.16366655,1.04155232 8.21685031,1.29546881 L8.39634461,1.29546881 C8.46282432,1.08164439 8.53262696,0.8745051 8.60575463,0.674044712 C8.67888231,0.473584324 8.75533282,0.266445031 8.83510846,0.0526206169 L15.1971843,0.0526206169 C15.489695,0.0526206169 15.7921731,0.0492796606 16.1046277,0.0425976476 C16.4170823,0.0359156347 16.7195605,0.0392565911 17.0120712,0.0526206169 C17.3045818,0.0659846428 17.5837924,0.0893713372 17.8497112,0.122781402 C18.11563,0.156191467 18.3483055,0.219669637 18.5477446,0.313217818 L18.5477446,0.0526206169 C18.6674081,0.0526206169 18.8469006,0.0459387042 19.0862275,0.0325746784 C19.3255545,0.0192106525 19.5748496,0.0125287398 19.8341205,0.0125287398 C20.0933913,0.0125287398 20.3293907,0.0225516088 20.5421258,0.0425976476 C20.7548608,0.0626436864 20.8878182,0.0927122936 20.941002,0.132804371 C20.9941858,0.186260475 21.0141294,0.206306213 21.0008334,0.192942187 C20.9875375,0.179578161 20.9941854,0.219669637 21.0207772,0.313217818 C21.1670326,0.273125741 21.3166097,0.229693308 21.469513,0.182919218 C21.6224163,0.136145127 21.7719934,0.0927126945 21.9182488,0.0526206169 L25.9867863,0.0526206169 C26.0133782,0.17289685 26.0399697,0.259761715 26.0665615,0.313217818 C26.0931534,0.366673922 26.1529843,0.426811136 26.2460558,0.493631265 L26.2460558,0.413447511 L26.1463368,0.413447511 L26.1463368,0.132804371 C26.3058881,0.0793482677 26.4986763,0.0425977479 26.7247073,0.0225517091 C26.9507383,0.00250567028 27.1834138,-0.00417624242 27.4227407,0.00250577051 C27.6620677,0.00918778344 27.901391,0.0192106525 28.1407179,0.0325746784 C28.3800449,0.0459387042 28.5994246,0.0526206169 28.7988637,0.0526206169 L28.978358,0.413447511 L29.0780771,0.413447511 C29.091373,0.346627382 29.0980209,0.276467298 29.0980209,0.202965156 C29.0980209,0.129463014 29.1179645,0.0793486686 29.1578523,0.0526206169 L31.6308849,0.0526206169 L31.6308849,5.46502403 L29.1578523,5.46502403 C29.0913726,5.3447478 29.018246,5.23449624 28.9384704,5.13426604 C28.8586947,5.03403585 28.7855682,4.91042046 28.7190885,4.76341618 L28.7190885,4.76341618 Z M10.9092649,0.934641914 L9.43342281,0.934641914 C9.40683093,0.961369965 9.39353518,0.994779529 9.39353518,1.03487161 C9.39353518,1.07496368 9.38023944,1.10837325 9.35364756,1.1351013 C9.32705568,1.21528545 9.29381633,1.29546841 9.2539285,1.37565256 C9.21404068,1.45583672 9.18080133,1.53601967 9.15420945,1.61620382 C9.06113786,1.84339226 8.97139161,2.06389538 8.88496799,2.2777198 C8.79854438,2.49154421 8.70215025,2.71204733 8.59578273,2.93923577 C8.56919085,3.01941993 8.53262756,3.09960288 8.48609176,3.17978703 C8.43955597,3.25997119 8.40299268,3.34683605 8.3764008,3.44038423 L8.33651318,3.44038423 C8.15037001,3.02609943 7.96090569,2.61182084 7.76811455,2.19753604 C7.57532341,1.78325124 7.3858591,1.36229074 7.19971593,0.934641914 L5.74381769,0.934641914 L5.74381769,4.44268116 L5.70393007,4.44268116 C5.4513072,3.8413 5.20533598,3.25329168 4.96600905,2.67863857 C4.72668211,2.10398546 4.4807109,1.52265905 4.22808802,0.934641914 L2.89185266,0.934641914 C2.86526078,0.94800594 2.8486411,0.981415503 2.84199313,1.03487161 C2.83534516,1.08832771 2.82537335,1.12841919 2.81207741,1.15514724 C2.74559771,1.26205944 2.69241474,1.372311 2.65252692,1.48590522 C2.6126391,1.59949944 2.566104,1.71643292 2.51292024,1.83670915 C2.36666489,2.15744577 2.22373567,2.48485949 2.08412829,2.81896014 C1.94452092,3.15306079 1.8015917,3.48047451 1.65533635,3.80121113 C1.60215259,3.90812333 1.54564569,4.05512541 1.48581395,4.24222178 C1.42598222,4.42931814 1.36282745,4.56295639 1.29634774,4.64314055 L1.29634774,4.66318649 L2.25365069,4.66318649 C2.3201304,4.52954623 2.37996123,4.39590797 2.43314499,4.26226771 C2.48632876,4.12862746 2.53951172,3.98830729 2.59269549,3.84130301 L4.46741376,3.84130301 C4.4807097,3.86803106 4.49400544,3.90144062 4.50730138,3.9415327 C4.52059732,3.98162478 4.53389307,4.01503434 4.54718901,4.04176239 C4.60037277,4.1486746 4.64690786,4.25224424 4.68679569,4.35247444 C4.72668351,4.45270463 4.76657073,4.55627428 4.80645856,4.66318649 L6.6213454,4.66318649 L6.6213454,1.77657133 L6.66123302,1.77657133 L7.91769314,4.66318649 L8.7154456,4.66318649 C8.74203748,4.54291025 8.78857257,4.41929487 8.85505228,4.29233662 C8.92153198,4.16537838 8.98136282,4.0484449 9.03454658,3.9415327 C9.1409141,3.71434426 9.24063216,3.49050018 9.33370375,3.26999376 C9.42677534,3.04948733 9.5264934,2.82564325 9.63286092,2.59845481 C9.67274874,2.49154261 9.71263597,2.39465487 9.75252379,2.30778871 C9.79241161,2.22092254 9.83229884,2.1240348 9.87218666,2.0171226 C9.89877854,1.97703052 9.91539822,1.93693904 9.92204619,1.89684696 C9.92869416,1.85675489 9.94531383,1.81666341 9.97190572,1.77657133 L9.97190572,1.75652539 L9.99184953,1.75652539 L9.99184953,4.66318649 L10.9092649,4.66318649 L10.9092649,0.934641914 Z M14.5589823,3.90144082 L13.1230279,3.90144082 C13.0166604,3.90144082 12.9003227,3.90478178 12.7740112,3.91146379 C12.6476998,3.9181458 12.5446578,3.90812293 12.4648821,3.88139488 C12.4648821,3.77448268 12.4615582,3.65086729 12.4549102,3.51054502 C12.4482623,3.37022275 12.4582341,3.24660736 12.484826,3.13969516 L14.4991509,3.13969516 L14.4991509,2.37794949 L12.4648821,2.37794949 L12.4648821,1.69638758 L14.5589823,1.69638758 L14.5589823,0.914595975 C14.0537366,0.914595975 13.5484984,0.917936931 13.0432527,0.924618944 C12.5380069,0.931300957 12.0527124,0.934641914 11.5873544,0.934641914 L11.5873544,4.66318649 L14.5589823,4.66318649 L14.5589823,3.90144082 Z M18.4480256,1.21528505 C18.3150662,1.09500882 18.1821088,1.02150778 18.0491493,0.994779729 C17.902894,0.941323626 17.7366972,0.914595975 17.5505541,0.914595975 L16.9921273,0.914595975 L15.1772405,0.914595975 L15.1772405,4.66318649 L16.074712,4.66318649 L16.074712,3.3201086 C16.1943755,3.3201086 16.3373047,3.31342669 16.503504,3.30006266 C16.6697032,3.28669864 16.8359,3.28335768 17.0020992,3.29003969 C17.1682985,3.29672171 17.3178756,3.31676745 17.450835,3.35017751 C17.5837944,3.38358758 17.6702167,3.43370192 17.7101046,3.50052205 C17.7898802,3.62079828 17.8297674,3.79786897 17.8297674,4.03173942 C17.8297674,4.26560987 17.8231195,4.47609012 17.8098236,4.66318649 L18.7272389,4.66318649 C18.7272389,4.43599805 18.7305629,4.19210823 18.7372108,3.93150973 C18.7438588,3.67091122 18.7072955,3.46711289 18.6275199,3.3201086 C18.5743361,3.2131964 18.5045335,3.13969536 18.4181099,3.09960328 C18.3316862,3.0595112 18.2485879,3.0060559 18.1688122,2.93923577 C18.1821082,2.91250772 18.2186714,2.88578007 18.2785032,2.85905202 C18.3383349,2.83232396 18.3815461,2.80559631 18.408138,2.77886826 C18.5676892,2.61849995 18.680703,2.42472448 18.7471827,2.19753604 C18.8136625,1.9703476 18.8070146,1.76989022 18.7272389,1.59615789 C18.6474633,1.42242555 18.5543931,1.29546921 18.4480256,1.21528505 L18.4480256,1.21528505 Z M20.1831372,0.914595975 L19.2856657,0.914595975 L19.2856657,4.66318649 L20.203081,4.66318649 L20.203081,2.09730635 C20.203081,1.95030207 20.2097289,1.74650373 20.2230248,1.48590522 C20.2363207,1.22530672 20.223025,1.03487221 20.1831372,0.914595975 L20.1831372,0.914595975 Z M30.7533572,4.66318649 L30.7533572,0.914595975 L29.8558857,0.914595975 L29.8558857,3.50052205 L29.8159981,3.50052205 C29.7761103,3.36688179 29.7129555,3.24326641 29.6265319,3.12967219 C29.5401083,3.01607797 29.4636578,2.90582641 29.3971781,2.7989142 C29.2908105,2.65190992 29.2010643,2.50156688 29.1279366,2.34788058 C29.0548089,2.19419428 28.9650627,2.03716934 28.8586951,1.87680103 C28.7656236,1.72979674 28.6659055,1.57611275 28.559538,1.41574444 C28.4531704,1.25537613 28.3601003,1.08832831 28.2803246,0.914595975 L26.9241454,0.914595975 L26.9241454,4.44268116 L26.8842578,4.44268116 C26.84437,4.2555848 26.7712434,4.05512742 26.6648759,3.84130301 C26.5585084,3.62747859 26.4654382,3.42702121 26.3856625,3.23992485 C26.2128153,2.8523681 26.0466185,2.46481716 25.8870672,2.07726041 C25.7275159,1.68970366 25.5679671,1.30215273 25.4084158,0.914595975 L24.0721804,0.914595975 C24.0455885,0.927960001 24.0322928,0.958028608 24.0322928,1.0048027 C24.0322928,1.05157679 24.018997,1.08832731 23.9924052,1.11505536 C23.9525173,1.20860354 23.9126301,1.30215032 23.8727423,1.3956985 C23.8328545,1.48924668 23.7929672,1.58947537 23.7530794,1.69638758 C23.6467119,1.92357602 23.5436699,2.15744296 23.4439503,2.39799543 C23.3442308,2.63854789 23.2411888,2.87909675 23.1348213,3.11964922 C23.0816375,3.23992545 23.0218067,3.36354083 22.955327,3.49049908 C22.8888473,3.61745733 22.8423122,3.74775462 22.8157203,3.88139488 C22.6295771,3.88139488 22.4500846,3.87805393 22.2772374,3.87137191 C22.1043901,3.8646899 21.9647849,3.82793938 21.8584173,3.76111925 C21.7520498,3.69429912 21.6755993,3.58404756 21.6290635,3.43036126 C21.5825277,3.27667497 21.5559362,3.10962715 21.5492883,2.9292128 C21.5426403,2.74879845 21.555936,2.57506872 21.5891759,2.4080184 C21.6224157,2.24096807 21.6722748,2.10398886 21.7387545,1.99707666 C21.8717139,1.82334432 22.0944175,1.7331385 22.4068721,1.72645649 C22.7193268,1.71977447 23.0284527,1.72311543 23.3342594,1.73647946 L23.3342594,0.914595975 C23.0151568,0.914595975 22.7259744,0.917936931 22.4667036,0.924618944 C22.2074327,0.931300957 21.9747573,0.961369564 21.7686702,1.01482567 C21.5625831,1.06828177 21.3797667,1.15180568 21.2202154,1.2653999 C21.0606641,1.37899412 20.9277067,1.54270098 20.8213391,1.75652539 C20.7681554,1.8634376 20.7315921,1.97368916 20.7116482,2.08728338 C20.6917043,2.2008776 20.6684367,2.31781107 20.6418448,2.43808731 L20.6418448,2.71873045 C20.615253,2.7989146 20.6086051,2.88912042 20.621901,2.98935062 C20.635197,3.08958081 20.6484927,3.17978663 20.6617886,3.25997079 C20.6883805,3.54061533 20.768155,3.7878461 20.9011144,4.00167051 C21.0606657,4.28231506 21.3199326,4.47609053 21.678923,4.58300273 C21.7852906,4.60973078 21.9315437,4.63645843 22.1176869,4.66318649 L23.4539222,4.66318649 C23.507106,4.52954623 23.560289,4.39590797 23.6134727,4.26226771 C23.6666565,4.12862746 23.7198395,3.98830729 23.7730232,3.84130301 L25.6477415,3.84130301 C25.7009253,3.98830729 25.7541082,4.12862746 25.807292,4.26226771 C25.8604758,4.39590797 25.9203066,4.52954623 25.9867863,4.66318649 L27.8016731,4.66318649 L27.8016731,1.87680103 L27.8216169,1.87680103 C27.8482088,1.99707726 27.9180115,2.13405647 28.031027,2.28774277 C28.1440425,2.44142906 28.2337887,2.57172636 28.3002684,2.67863857 C28.4199319,2.86573493 28.5329457,3.05616944 28.6393132,3.24994782 C28.7456807,3.44372619 28.8586945,3.6341607 28.978358,3.82125707 C29.0581337,3.96826135 29.144556,4.10858152 29.2376276,4.24222178 C29.3306991,4.37586204 29.4171215,4.5161822 29.4968971,4.66318649 L30.7533572,4.66318649 Z M24.7103824,1.57611195 C24.7635661,1.62956805 24.8001294,1.69638718 24.8200733,1.77657133 C24.8400172,1.85675549 24.8632848,1.93025653 24.8898767,1.99707666 C24.9430604,2.11735289 24.9962434,2.24096828 25.0494272,2.36792652 C25.1026109,2.49488477 25.1557939,2.62518206 25.2089777,2.75882232 C25.2355695,2.81227843 25.2555131,2.86239277 25.2688091,2.90916686 C25.282105,2.95594095 25.3020486,2.99937339 25.3286405,3.03946546 L25.3286405,3.0595114 L24.112068,3.0595114 C24.2184355,2.80559491 24.3181536,2.55836414 24.4112252,2.31781167 C24.5042968,2.07725921 24.6040148,1.83002844 24.7103824,1.57611195 L24.7103824,1.57611195 Z M17.5505541,2.49822512 C17.4840744,2.52495317 17.4076238,2.538317 17.3212002,2.538317 L17.0519588,2.538317 L16.074712,2.538317 L16.074712,1.69638758 C16.1943755,1.69638758 16.3472765,1.69304662 16.5334197,1.68636461 C16.7195628,1.6796826 16.8957314,1.6796826 17.0619307,1.68636461 C17.2281299,1.69304662 17.377707,1.71643332 17.5106664,1.75652539 C17.6436258,1.79661747 17.7234003,1.8634366 17.7499922,1.95698478 C17.7765841,1.99707686 17.7865559,2.04385025 17.7799079,2.09730635 C17.7732599,2.15076245 17.769936,2.20421776 17.769936,2.25767386 C17.7300482,2.29776594 17.7001327,2.34119837 17.6801888,2.38797246 C17.6602449,2.43474655 17.6170338,2.47149707 17.5505541,2.49822512 L17.5505541,2.49822512 Z M3.3106727,2.07726041 C3.33726458,1.99707626 3.37050393,1.9168933 3.41039175,1.83670915 C3.45027958,1.75652499 3.48351893,1.66966013 3.51011081,1.57611195 L3.54999843,1.57611195 C3.61647814,1.74984428 3.67963291,1.9168921 3.73946464,2.07726041 C3.79929638,2.23762872 3.86245115,2.39799463 3.92893085,2.55836294 C3.95552273,2.63854709 3.99208602,2.71873004 4.03862182,2.7989142 C4.08515761,2.87909836 4.11507303,2.96596322 4.12836897,3.0595114 L2.91179647,3.0595114 C2.97827617,2.89914309 3.04475488,2.73543623 3.11123458,2.56838591 C3.17771429,2.40133558 3.24419299,2.23762872 3.3106727,2.07726041 L3.3106727,2.07726041 Z" id="Icon/Amex/Black"></path>
                            </g>
                        </g>
                    </g>
                </g>
            </g>
        </g>
    </g>
</svg>