<?xml version="1.0" encoding="UTF-8"?>
<svg width="23px" height="43px" viewBox="0 0 23 43" version="1.1" xmlns="http://www.w3.org/2000/svg" xmlns:xlink="http://www.w3.org/1999/xlink">
    <!-- Generator: Sketch 41.2 (35397) - http://www.bohemiancoding.com/sketch -->
    <title>android.colors-black-white-grey</title>
    <desc>Created with Sketch.</desc>
    <defs></defs>
    <g id="01-Style-Tile" stroke="none" stroke-width="1" fill="none" fill-rule="evenodd">
        <g id="Style-Tile" transform="translate(-476.000000, -1676.000000)" fill="#000000">
            <g id="Icons" transform="translate(100.000000, 660.000000)">
                <g id="Iconset" transform="translate(0.000000, 30.000000)">
                    <g id="Icons" transform="translate(61.000000, 67.000000)">
                        <g id="Devices" transform="translate(7.000000, 909.000000)">
                            <g id="Icon/Device/Android/Black" transform="translate(308.000000, 10.000000)">
                                <path d="M21.4549273,38.1413083 L19.2434346,38.1413083 L5.94156162,38.1413083 L1.55487447,38.1413083 L1.51406703,4.25100431 L5.94156162,4.25100431 L19.2434346,4.25100431 L21.4959602,4.25100431 L21.4549273,38.1413083 Z M9.36713209,40.5620443 L9.44581605,40.5620443 L9.46385248,40.5620443 L9.73642815,40.5620443 L13.2733736,40.5620443 L13.5459493,40.5620443 L13.5639857,40.5620443 L13.6428951,40.5620443 C13.6428951,40.5620443 13.6417679,40.6095788 13.6446988,40.6091387 C13.7231573,40.6194818 13.8176231,40.7143306 13.8176231,40.8888437 L13.8176231,41.4561762 C13.8176231,41.4561762 13.7420956,42.030991 13.0851183,42.1027328 C13.0803837,42.106914 13.1444131,42.1025127 13.1444131,42.1025127 L13.0941365,42.1025127 L13.0147762,42.1025127 L9.99502558,42.1025127 L9.91566525,42.1025127 L9.86561414,42.1025127 C9.86561414,42.1025127 9.87463236,42.106914 9.87012325,42.1027328 C9.21269509,42.030991 9.08305819,41.4561762 9.08305819,41.4561762 L9.08305819,40.8888437 C9.08305819,40.7086089 9.23073153,40.6164009 9.33331377,40.6082584 C9.3493211,40.6091387 9.36713209,40.5620443 9.36713209,40.5620443 L9.36713209,40.5620443 Z M9.23546609,1.83026831 C9.23546609,1.67380074 9.36532844,1.6102014 9.5260782,1.6102014 L13.483949,1.6102014 C13.6444733,1.6102014 13.7745611,1.67380074 13.7745611,1.83026831 C13.7745611,1.98695595 13.6444733,2.05033522 13.483949,2.05033522 L9.5260782,2.05033522 C9.36532844,2.05033522 9.23546609,1.98695595 9.23546609,1.83026831 L9.23546609,1.83026831 Z M19.795575,0.329191924 C19.610927,0.316428043 19.45401,0.304324363 19.2285545,0.292220683 L19.2285545,0.28957988 C16.7485443,0.0633510972 14.1113916,-0.0134522541 11.5080573,0.00239256337 C9.6415114,-0.00993118355 7.73032535,0.0243992543 5.92668156,0.127610635 L5.92668156,0.165242076 C5.02485966,0.212996596 4.06509571,0.268453457 3.17950661,0.329191924 C0.251741829,0.529672878 -0.0260193144,2.63131186 0.00171170883,5.04676626 L0.021777246,37.4124467 C-0.0530739713,39.8276811 0.09031571,42.3518485 3.21557949,42.6104271 C4.10049222,42.6837094 5.02485966,42.7490693 5.92668156,42.8051863 L5.92668156,42.8544813 C7.73032535,42.9691362 9.61851494,43.0098486 11.4494388,42.9975248 C14.0288749,43.0164506 16.7485443,42.9284238 19.2285545,42.6788679 L19.2285545,42.6515796 C19.45401,42.6377154 19.6003306,42.6249515 19.7786659,42.6104271 C22.9039296,42.3518485 23.0570139,39.8276811 22.9821627,37.4124467 L22.9983955,5.04676626 C23.0261265,2.63131186 22.7233398,0.529672878 19.795575,0.329191924 L19.795575,0.329191924 Z" id="Icon/Android/Black"></path>
                            </g>
                        </g>
                    </g>
                </g>
            </g>
        </g>
    </g>
</svg>