<?xml version="1.0" encoding="UTF-8"?>
<svg width="15px" height="28px" viewBox="0 0 15 28" version="1.1" xmlns="http://www.w3.org/2000/svg" xmlns:xlink="http://www.w3.org/1999/xlink">
    <!-- Generator: Sketch 41.2 (35397) - http://www.bohemiancoding.com/sketch -->
    <title>apple-watch--s.colors-black-white-grey</title>
    <desc>Created with Sketch.</desc>
    <defs></defs>
    <g id="01-Style-Tile" stroke="none" stroke-width="1" fill="none" fill-rule="evenodd">
        <g id="Style-Tile" transform="translate(-635.000000, -1684.000000)" fill="#000000">
            <g id="Icons" transform="translate(100.000000, 660.000000)">
                <g id="Iconset" transform="translate(0.000000, 30.000000)">
                    <g id="Icons" transform="translate(61.000000, 67.000000)">
                        <g id="Devices" transform="translate(7.000000, 909.000000)">
                            <g id="Icon/Device/Apple-Watch/Black" transform="translate(467.000000, 18.000000)">
                                <path d="M14.8485,11.8125 C14.9320714,11.8125 15,11.7431562 15,11.6578438 L15,9.34215625 C15,9.25684375 14.9320714,9.1875 14.8485,9.1875 L14.5714286,9.1875 L14.5714286,8.3125 C14.5714286,7.00284375 13.7537143,5.88153125 12.615,5.446 C12.1654286,5.04065625 12,4.37653125 12,3.5 L12,1.8808125 C12,0.613375 11.3127857,0.49459375 9.91992857,0.2471875 C9.8595,0.2471875 8.73921429,0 7.28571429,0 C5.83221429,0 4.68171429,0.2471875 4.6515,0.2471875 C3.25864286,0.5254375 2.57142857,0.67528125 2.57142857,1.8808125 L2.57142857,3.5 C2.57142857,4.37303125 2.42892857,5.03475 1.971,5.44053125 C0.824785714,5.872125 0,6.99715625 0,8.3125 L0,19.6875 C0,21.0028438 0.824785714,22.127875 1.971,22.5594687 C2.42892857,22.96525 2.57142857,23.6269688 2.57142857,24.5 L2.57142857,26.1191875 C2.57142857,27.3247188 3.25864286,27.4745625 4.6515,27.7528125 C4.68171429,27.7528125 5.83221429,28 7.28571429,28 C8.73921429,28 9.8595,27.7528125 9.91992857,27.7528125 C11.3127857,27.5054063 12,27.386625 12,26.1191875 L12,24.5 C12,23.6234688 12.1654286,22.9593437 12.615,22.554 C13.7537143,22.1184687 14.5714286,20.9971562 14.5714286,19.6875 L14.5714286,17.9375 L14.7857143,17.9375 C14.904,17.9375 15,17.8395 15,17.71875 L15,14.65625 C15,14.5355 14.904,14.4375 14.7857143,14.4375 L14.5714286,14.4375 L14.5714286,11.8125 L14.8485,11.8125 Z M13.5,19.6875 C13.5,20.7731562 12.6349286,21.65625 11.5714286,21.65625 L3,21.65625 C1.9365,21.65625 1.07142857,20.7731562 1.07142857,19.6875 L1.07142857,8.3125 C1.07142857,7.22684375 1.9365,6.34375 3,6.34375 L11.5714286,6.34375 C12.6349286,6.34375 13.5,7.22684375 13.5,8.3125 L13.5,19.6875 Z" id="Icon/Apple-Watch/Black"></path>
                            </g>
                        </g>
                    </g>
                </g>
            </g>
        </g>
    </g>
</svg>