<?xml version="1.0" encoding="UTF-8"?>
<svg width="21px" height="21px" viewBox="0 0 21 21" version="1.1" xmlns="http://www.w3.org/2000/svg" xmlns:xlink="http://www.w3.org/1999/xlink">
    <!-- Generator: Sketch 41.2 (35397) - http://www.bohemiancoding.com/sketch -->
    <title>bag--s.colors-black-white-grey</title>
    <desc>Created with Sketch.</desc>
    <defs>
        <rect id="path-1" x="5" y="6" width="1" height="3"></rect>
        <mask id="mask-2" maskContentUnits="userSpaceOnUse" maskUnits="objectBoundingBox" x="0" y="0" width="1" height="3" fill="white">
            <use xlink:href="#path-1"></use>
        </mask>
        <rect id="path-3" x="15" y="6" width="1" height="3"></rect>
        <mask id="mask-4" maskContentUnits="userSpaceOnUse" maskUnits="objectBoundingBox" x="0" y="0" width="1" height="3" fill="white">
            <use xlink:href="#path-3"></use>
        </mask>
    </defs>
    <g id="01-Style-Tile" stroke="none" stroke-width="1" fill="none" fill-rule="evenodd">
        <g id="Style-Tile" transform="translate(-787.000000, -757.000000)">
            <g id="Icons" transform="translate(100.000000, 660.000000)">
                <g id="Iconset" transform="translate(0.000000, 30.000000)">
                    <g id="Icons" transform="translate(61.000000, 67.000000)">
                        <g id="Header" transform="translate(6.000000, 0.000000)">
                            <g id="Icon/Header/Bag/Black" transform="translate(620.000000, 0.000000)">
                                <g id="Icon/Bag/Black">
                                    <path d="M1,20 L20,20 L20,6 L1,6 L1,20 Z M0,5 L21,5 L21,21 L0,21 L0,5 Z" id="Bag" fill="#000000"></path>
                                    <path d="M14.9725356,5 C14.7238135,2.75002477 12.8162768,1 10.5,1 C8.18372317,1 6.27618653,2.75002477 6.02746439,5 L14.9725356,5 Z M5,5.5 C5,2.46243388 7.46243388,0 10.5,0 C13.5375661,0 16,2.46243388 16,5.5 C16,5.66854485 15.9924187,5.83531898 15.9775785,6 L5.02242151,6 C5.00758131,5.83531898 5,5.66854485 5,5.5 Z" id="Path" fill="#000000"></path>
                                    <rect id="Rectangle-2" fill="#000000" x="4" y="9" width="3" height="1"></rect>
                                    <rect id="Rectangle-2" fill="#000000" x="14" y="9" width="3" height="1"></rect>
                                    <use id="Rectangle" stroke="#000000" mask="url(#mask-2)" stroke-width="2" fill="#D8D8D8" xlink:href="#path-1"></use>
                                    <use id="Rectangle" stroke="#000000" mask="url(#mask-4)" stroke-width="2" fill="#D8D8D8" xlink:href="#path-3"></use>
                                </g>
                            </g>
                        </g>
                    </g>
                </g>
            </g>
        </g>
    </g>
</svg>