<?xml version="1.0" encoding="UTF-8"?>
<svg width="17px" height="22px" viewBox="0 0 17 22" version="1.1" xmlns="http://www.w3.org/2000/svg" xmlns:xlink="http://www.w3.org/1999/xlink">
    <!-- Generator: Sketch 41.2 (35397) - http://www.bohemiancoding.com/sketch -->
    <title>bin--s.colors-black-white-grey</title>
    <desc>Created with Sketch.</desc>
    <defs></defs>
    <g id="01-Style-Tile" stroke="none" stroke-width="1" fill="none" fill-rule="evenodd">
        <g id="Style-Tile" transform="translate(-1099.000000, -1222.000000)" fill="#000000">
            <g id="Icons" transform="translate(100.000000, 660.000000)">
                <g id="Iconset" transform="translate(0.000000, 30.000000)">
                    <g id="Icons" transform="translate(61.000000, 67.000000)">
                        <g id="Misc" transform="translate(6.000000, 465.000000)">
                            <g id="Icon/Trash/Black" transform="translate(932.000000, 0.000000)">
                                <g id="Shape">
                                    <path d="M16.3269545,2.99122727 L12.2075455,2.99122727 L12.2075455,2.1675 C12.2075455,1.25722727 11.4695909,0.520045455 10.5593182,0.520045455 L6.43990909,0.520045455 C5.52963636,0.520045455 4.79168182,1.258 4.79168182,2.1675 L4.79168182,2.99122727 L0.672272727,2.99122727 L0.672272727,3.81495455 L1.5215,3.81495455 L2.346,19.4696364 C2.346,20.3799091 3.08395455,21.1178636 3.99422727,21.1178636 L13.0575455,21.1178636 C13.9678182,21.1178636 14.7057727,20.3799091 14.7057727,19.4696364 L15.5163636,3.81495455 L16.3285,3.81495455 L16.3285,2.99122727 L16.3269545,2.99122727 Z M5.61618182,2.16672727 C5.61618182,1.71236364 5.98631818,1.343 6.43990909,1.343 L10.5593182,1.343 C11.0136818,1.343 11.3830455,1.71236364 11.3830455,2.16672727 L11.3830455,2.99045455 L5.61540909,2.99045455 L5.61540909,2.16672727 L5.61618182,2.16672727 Z M13.8828182,19.4263636 L13.8812727,19.4472273 L13.8812727,19.4688636 C13.8812727,19.9224545 13.5119091,20.2925909 13.0575455,20.2925909 L3.99422727,20.2925909 C3.54063636,20.2925909 3.1705,19.9224545 3.1705,19.4688636 L3.1705,19.4472273 L3.16972727,19.4255909 L2.34677273,3.81418182 L14.6910909,3.81418182 L13.8828182,19.4263636 L13.8828182,19.4263636 Z"></path>
                                    <polygon points="8.08813636 5.46240909 8.91186364 5.46240909 8.91186364 18.6451364 8.08813636 18.6451364 8.08813636 5.46240909"></polygon>
                                    <polygon points="6.45845455 18.6188636 5.61540909 5.46163636 4.79322727 5.51418182 5.63627273 18.6714091"></polygon>
                                    <polygon points="12.2129545 5.48868182 11.3907727 5.43690909 10.5593182 18.6196364 11.3815 18.6714091"></polygon>
                                </g>
                            </g>
                        </g>
                    </g>
                </g>
            </g>
        </g>
    </g>
</svg>