<?xml version="1.0" encoding="UTF-8"?>
<svg width="21px" height="21px" viewBox="0 0 21 21" version="1.1" xmlns="http://www.w3.org/2000/svg" xmlns:xlink="http://www.w3.org/1999/xlink">
    <!-- Generator: Sketch 41.2 (35397) - http://www.bohemiancoding.com/sketch -->
    <title>globe--s.colors-black-white-grey</title>
    <desc>Created with Sketch.</desc>
    <defs></defs>
    <g id="01-Style-Tile" stroke="none" stroke-width="1" fill="none" fill-rule="evenodd">
        <g id="Style-Tile" transform="translate(-632.000000, -757.000000)" fill="#000000">
            <g id="Icons" transform="translate(100.000000, 660.000000)">
                <g id="Iconset" transform="translate(0.000000, 30.000000)">
                    <g id="Icons" transform="translate(61.000000, 67.000000)">
                        <g id="Header" transform="translate(6.000000, 0.000000)">
                            <g id="Icon/Header/Global/Black" transform="translate(465.000000, 0.000000)">
                                <path d="M10.5,0 L10.491334,0 L10.487395,0 C10.4834559,0 10.4795168,0.000787815126 10.4747899,0.000787815126 C4.68671218,0.0141806723 0,4.70955882 0,10.5 C0,16.2888655 4.68671218,20.9850315 10.4747899,20.9992122 C10.478729,20.9992122 10.4826681,21 10.487395,21 L10.491334,21 L10.5,21 C16.2983193,21 21,16.2983193 21,10.5 C21,4.70168067 16.2983193,3.49860197e-16 10.5,3.49860197e-16 L10.5,0 Z M10.9199055,6.28361345 C12.0330882,6.25288866 13.116334,6.10635504 14.1594013,5.85189076 C14.4737395,7.08954832 14.6691176,8.51628151 14.6998424,10.0800945 L10.9199055,10.0800945 L10.9199055,6.28361345 L10.9199055,6.28361345 Z M10.9199055,5.44380252 L10.9199055,0.90677521 C12.0519958,1.22032563 13.1990546,2.72977941 13.9301471,5.04438025 C12.9603466,5.27836134 11.9535189,5.41465336 10.9199055,5.44380252 L10.9199055,5.44380252 Z M10.0800945,0.896533613 L10.0800945,5.44380252 C9.03781513,5.41465336 8.02310924,5.2759979 7.04543067,5.03807773 C7.78282563,2.70929622 8.94012605,1.19432773 10.0800945,0.897321429 L10.0800945,0.896533613 Z M10.0800945,6.28282563 L10.0800945,10.0800945 L6.27415966,10.0800945 C6.30488445,8.51391807 6.50026261,7.08560924 6.81538866,5.84716387 C7.86633403,6.1039916 8.9582458,6.25288866 10.0800945,6.28282563 L10.0800945,6.28282563 Z M5.42883403,10.0800945 L0.850840336,10.0800945 C0.943802521,7.92069328 1.74816176,5.9424895 3.03545168,4.37552521 C3.97058824,4.8907563 4.96244748,5.31223739 6.00236345,5.62736345 C5.66281513,6.96664916 5.45955882,8.47689076 5.42883403,10.0800945 L5.42883403,10.0800945 Z M5.42883403,10.9199055 C5.45955882,12.5223214 5.66281513,14.032563 6.00236345,15.3718487 C4.96323529,15.6877626 3.97058824,16.1092437 3.03545168,16.6244748 C1.74737395,15.0575105 0.943014706,13.0793067 0.850840336,10.9199055 L5.42883403,10.9199055 L5.42883403,10.9199055 Z M6.27415966,10.9199055 L10.0800945,10.9199055 L10.0800945,14.7124475 C8.9582458,14.7423845 7.86633403,14.8920693 6.81460084,15.1496849 C6.50026261,13.9120273 6.30488445,12.4845063 6.27415966,10.9199055 L6.27415966,10.9199055 Z M10.0800945,15.5514706 L10.0800945,20.1034664 C8.93933824,19.8056723 7.78046218,18.2891282 7.04385504,15.9571954 C8.02153361,15.7192752 9.03702731,15.5806197 10.0800945,15.5514706 L10.0800945,15.5514706 Z M10.9199055,20.0940126 L10.9199055,15.5522584 C11.9543067,15.5821954 12.9611345,15.7184874 13.9309349,15.9524685 C13.1998424,18.2694328 12.0527836,19.78125 10.9199055,20.0940126 L10.9199055,20.0940126 Z M10.9199055,14.7124475 L10.9199055,10.9199055 L14.6998424,10.9199055 C14.6691176,12.4821429 14.4745273,13.9065126 14.1609769,15.1433824 C13.1171218,14.8889181 12.0338761,14.7415966 10.9206933,14.7116597 L10.9199055,14.7124475 Z M15.5451681,10.9199055 L20.1499475,10.9199055 C20.0569853,13.0793067 19.2534139,15.0567227 17.9653361,16.623687 C17.0223214,16.1053046 16.0217962,15.6806723 14.9740021,15.3639706 C15.3127626,14.0262605 15.5152311,12.5191702 15.5459559,10.9206933 L15.5451681,10.9199055 Z M15.5451681,10.0800945 C15.5144433,8.47846639 15.311187,6.97137605 14.9724265,5.63209034 C16.0202206,5.31538866 17.019958,4.89154412 17.9621849,4.37316176 C19.2510504,5.94012605 20.0561975,7.91911765 20.1491597,10.0800945 L15.5443803,10.0800945 L15.5451681,10.0800945 Z M17.3839286,3.73188025 C16.5480567,4.17620798 15.6664916,4.54411765 14.7447479,4.8230042 C14.2539391,3.24343487 13.5646008,1.95378151 12.7492122,1.10688025 C14.5375525,1.5362395 16.1344538,2.46113445 17.3839286,3.73188025 L17.3839286,3.73188025 Z M8.21769958,1.1147584 C7.40703782,1.96008403 6.72085084,3.24343487 6.23161765,4.81512605 C5.31932773,4.53702731 4.44485294,4.17305672 3.61685924,3.73188025 C4.85766807,2.46980042 6.4427521,1.54648109 8.21769958,1.1147584 L8.21769958,1.1147584 Z M3.61370798,17.2649685 C4.4424895,16.8230042 5.3177521,16.4582458 6.23082983,16.1801471 C6.72006303,17.7534139 7.40625,19.0391282 8.21769958,19.8844538 C6.44117647,19.4519433 4.85530462,18.5286239 3.61370798,17.2641807 L3.61370798,17.2649685 Z M12.7492122,19.8923319 C13.5653887,19.0454307 14.2547269,17.7557773 14.7463235,16.1730567 C15.6680672,16.4527311 16.5504202,16.8190651 17.386292,17.2657563 C16.1368172,18.5372899 14.5391282,19.4645483 12.7492122,19.8923319 L12.7492122,19.8923319 Z" id="Icon/Global/Black"></path>
                            </g>
                        </g>
                    </g>
                </g>
            </g>
        </g>
    </g>
</svg>