<?xml version="1.0" encoding="UTF-8"?>
<svg width="21px" height="19px" viewBox="0 0 21 19" version="1.1" xmlns="http://www.w3.org/2000/svg" xmlns:xlink="http://www.w3.org/1999/xlink">
    <!-- Generator: Sketch 41.2 (35397) - http://www.bohemiancoding.com/sketch -->
    <title>heart--sml.colors-black-white-grey</title>
    <desc>Created with Sketch.</desc>
    <defs></defs>
    <g id="01-Style-Tile" stroke="none" stroke-width="1" fill="none" fill-rule="evenodd">
        <g id="Style-Tile" transform="translate(-477.000000, -1223.000000)" fill="#000000">
            <g id="Icons" transform="translate(100.000000, 660.000000)">
                <g id="Iconset" transform="translate(0.000000, 30.000000)">
                    <g id="Icons" transform="translate(61.000000, 67.000000)">
                        <g id="Misc" transform="translate(6.000000, 465.000000)">
                            <g id="Icon/Love/Black" transform="translate(310.000000, 1.000000)">
                                <path d="M15.1370798,0.839810924 C17.9109769,0.839810924 20.1601891,3.08902311 20.1601891,5.86292017 C20.1601891,7.28807773 19.5661765,8.57221639 18.6129202,9.48686975 L10.5007878,17.6399685 L2.24133403,9.33954832 C1.37473739,8.43671218 0.840598739,7.21323529 0.840598739,5.86292017 C0.840598739,3.08823529 3.08981092,0.839810924 5.86370798,0.839810924 C7.9529937,0.839810924 9.74369748,2.11607143 10.5007878,3.93119748 C11.2578782,2.11607143 13.0485819,0.839810924 15.1378676,0.839810924 L15.1370798,0.839810924 Z M15.1370798,6.99720394e-16 C13.2896534,6.99720394e-16 11.5926996,0.857930672 10.5,2.27205882 C9.40808824,0.857930672 7.71113445,0 5.86292017,0 C2.62972689,0 0,2.63051471 0,5.86292017 C0,7.38182773 0.580619748,8.82352941 1.63471639,9.9217437 L10.5,18.831145 L19.2077206,10.0800945 C20.3579307,8.97557773 21,7.4740021 21,5.86370798 C21,2.63051471 18.3694853,0.000787815126 15.1370798,0.000787815126 L15.1370798,0.000787815126 L15.1370798,6.99720394e-16 Z"></path>
                            </g>
                        </g>
                    </g>
                </g>
            </g>
        </g>
    </g>
</svg>