<?xml version="1.0" encoding="UTF-8"?>
<svg width="21px" height="21px" viewBox="0 0 21 21" version="1.1" xmlns="http://www.w3.org/2000/svg" xmlns:xlink="http://www.w3.org/1999/xlink">
    <!-- Generator: Sketch 41.2 (35397) - http://www.bohemiancoding.com/sketch -->
    <title>help--s.colors-black-white-grey</title>
    <desc>Created with Sketch.</desc>
    <defs></defs>
    <g id="01-Style-Tile" stroke="none" stroke-width="1" fill="none" fill-rule="evenodd">
        <g id="Style-Tile" transform="translate(-632.000000, -1532.000000)" fill="#000000">
            <g id="Icons" transform="translate(100.000000, 660.000000)">
                <g id="Iconset" transform="translate(0.000000, 30.000000)">
                    <g id="Icons" transform="translate(61.000000, 67.000000)">
                        <g id="Notifications" transform="translate(7.000000, 775.000000)">
                            <g id="Icon/Notification/Help/Black" transform="translate(464.000000, 0.000000)">
                                <g id="Icon/Help/Black">
                                    <path d="M10.5,20 C15.7467051,20 20,15.7467051 20,10.5 C20,5.25329488 15.7467051,1 10.5,1 C5.25329488,1 1,5.25329488 1,10.5 C1,15.7467051 5.25329488,20 10.5,20 Z M10.5,21 C4.70101013,21 0,16.2989899 0,10.5 C0,4.70101013 4.70101013,0 10.5,0 C16.2989899,0 21,4.70101013 21,10.5 C21,16.2989899 16.2989899,21 10.5,21 Z" id="Oval"></path>
                                    <path d="M9.79303044,12.3280322 L11.3398828,12.3280322 C11.3984756,10.9686771 11.7734701,10.804617 12.6289264,10.0311909 C13.0976695,9.5976035 13.4023525,8.94136312 13.4023525,8.34371563 C13.4023525,7.1249835 12.4648663,6 10.7656724,6 C9.14850864,6 7.9883694,7.0195163 8.00008798,8.54293146 L9.50006598,8.54293146 C9.51178456,7.85153535 10.0039648,7.42966654 10.7305167,7.42966654 C11.3281642,7.42966654 11.832063,7.75778672 11.832063,8.33199706 C11.832063,8.83589592 11.4336314,9.09370464 10.9766068,9.50385487 C10.3086479,10.1015024 9.79303044,10.7460242 9.79303044,12.1639721 L9.79303044,12.3280322 Z M10.5898938,12.9842726 C10.0508392,12.9842726 9.61725177,13.41786 9.61725177,13.9569146 C9.61725177,14.4959692 10.0508392,14.9529937 10.5898938,14.9529937 C11.1406669,14.9529937 11.5976915,14.5194063 11.5976915,13.9686332 C11.5976915,13.41786 11.1406669,12.9842726 10.5898938,12.9842726 L10.5898938,12.9842726 Z" id="?"></path>
                                </g>
                            </g>
                        </g>
                    </g>
                </g>
            </g>
        </g>
    </g>
</svg>