<?xml version="1.0" encoding="UTF-8"?>
<svg width="23px" height="47px" viewBox="0 0 23 47" version="1.1" xmlns="http://www.w3.org/2000/svg" xmlns:xlink="http://www.w3.org/1999/xlink">
    <!-- Generator: Sketch 41.2 (35397) - http://www.bohemiancoding.com/sketch -->
    <title>htc.colors-black-white-grey</title>
    <desc>Created with Sketch.</desc>
    <defs></defs>
    <g id="01-Style-Tile" stroke="none" stroke-width="1" fill="none" fill-rule="evenodd">
        <g id="Style-Tile" transform="translate(-787.000000, -1674.000000)" fill="#000000">
            <g id="Icons" transform="translate(100.000000, 660.000000)">
                <g id="Iconset" transform="translate(0.000000, 30.000000)">
                    <g id="Icons" transform="translate(61.000000, 67.000000)">
                        <g id="Devices" transform="translate(7.000000, 909.000000)">
                            <g id="Icon/Device/HTC/Black" transform="translate(619.000000, 8.000000)">
                                <path d="M22.5106383,3.42553191 L0.489361702,3.42553191 L0.489361702,2.44631915 C0.489361702,1.37119149 1.32617021,0.489361702 2.40129787,0.489361702 L20.5096383,0.489361702 C21.5845213,0.489361702 22.5106383,1.37119149 22.5106383,2.44631915 L22.5106383,3.42553191 Z M1.46808511,40.1276596 L21.5319149,40.1276596 L21.5319149,4.40425532 L1.46808511,4.40425532 L1.46808511,40.1276596 Z M22.5106383,44.0486702 C22.5106383,45.1235532 21.5845213,46 20.5096383,46 L2.40129787,46 C1.32617021,46 0.489361702,45.1235532 0.489361702,44.0486702 L0.489361702,42.8191489 L22.5106383,42.8191489 L22.5106383,44.0486702 Z M23,2.42356383 C23,1.07292553 21.8984468,0 20.5482979,0 L2.43873404,0 C1.08809574,0 0,1.07292553 0,2.42356383 L0,44.0222447 C0,45.3726383 1.08809574,46.4893617 2.43873404,46.4893617 L20.5482979,46.4893617 C21.8984468,46.4893617 23,45.3726383 23,44.0222447 L23,2.42356383 Z" id="Icon/HTC/Black"></path>
                            </g>
                        </g>
                    </g>
                </g>
            </g>
        </g>
    </g>
</svg>