<?xml version="1.0" encoding="UTF-8"?>
<svg width="21px" height="21px" viewBox="0 0 21 21" version="1.1" xmlns="http://www.w3.org/2000/svg" xmlns:xlink="http://www.w3.org/1999/xlink">
    <!-- Generator: Sketch 41.2 (35397) - http://www.bohemiancoding.com/sketch -->
    <title>instagram--s.colors-black-white-grey</title>
    <desc>Created with Sketch.</desc>
    <defs></defs>
    <g id="01-Style-Tile" stroke="none" stroke-width="1" fill="none" fill-rule="evenodd">
        <g id="Style-Tile" transform="translate(-167.000000, -1377.000000)" fill="#000000">
            <g id="Icons" transform="translate(100.000000, 660.000000)">
                <g id="Iconset" transform="translate(0.000000, 30.000000)">
                    <g id="Icons" transform="translate(61.000000, 67.000000)">
                        <g id="Social" transform="translate(6.000000, 620.000000)">
                            <g id="Icon/Social/Instagram/Black">
                                <g>
                                    <path d="M10.476845,0.0415879017 C7.63148393,0.0415879017 7.27470132,0.0536483932 6.15727599,0.104635161 C5.04209641,0.155497164 4.28053875,0.332620038 3.61409263,0.591587902 C2.92514745,0.859330813 2.34087902,1.217569 1.75844045,1.80000756 C1.17600189,2.38248771 0.817763705,2.96675614 0.550020794,3.65570132 C0.291011342,4.32210586 0.113930057,5.0837051 0.063026465,6.1988431 C0.0120396975,7.31631002 -2.07939513e-05,7.67309263 -2.07939513e-05,10.5184537 C-2.07939513e-05,13.3637732 0.0120396975,13.7205558 0.063026465,14.8380227 C0.113930057,15.9531607 0.291011342,16.7147599 0.550020794,17.3811645 C0.817763705,18.0701096 1.17600189,18.6543781 1.75844045,19.2368582 C2.34087902,19.8192968 2.92514745,20.177535 3.61409263,20.4452779 C4.28053875,20.7042457 5.04209641,20.8813686 6.15727599,20.9322306 C7.27470132,20.983259 7.63148393,20.9952779 10.476845,20.9952779 C13.322206,20.9952779 13.6789471,20.983259 14.796414,20.9322306 C15.9115936,20.8813686 16.6731512,20.7042457 17.3395974,20.4452779 C18.0285425,20.177535 18.612811,19.8192968 19.1952495,19.2368582 C19.7776881,18.6543781 20.1359263,18.0701096 20.4036692,17.3811645 C20.6626786,16.7147599 20.8397599,15.9531607 20.8906635,14.8380227 C20.9416503,13.7205558 20.9536692,13.3637732 20.9536692,10.5184537 C20.9536692,7.67309263 20.9416503,7.31631002 20.8906635,6.1988431 C20.8397599,5.0837051 20.6626786,4.32210586 20.4036692,3.65570132 C20.1359263,2.96675614 19.7776881,2.38248771 19.1952495,1.80000756 C18.612811,1.217569 18.0285425,0.859330813 17.3395974,0.591587902 C16.6731512,0.332620038 15.9115936,0.155497164 14.796414,0.104635161 C13.6789471,0.0536483932 13.322206,0.0415879017 10.476845,0.0415879017 M10.476845,1.92930435 C13.2742968,1.92930435 13.6056276,1.93999244 14.7103686,1.99039698 C15.7318507,2.03697543 16.2865917,2.20765217 16.6558091,2.35113043 C17.1447996,2.54118715 17.4938469,2.7682155 17.8604442,3.13485444 C18.2270416,3.5014518 18.4541115,3.85045747 18.6441267,4.3394896 C18.7876049,4.70866541 18.9582817,5.26340643 19.0049017,6.28488847 C19.0553062,7.38962949 19.0659527,7.72100189 19.0659527,10.5184537 C19.0659527,13.3158639 19.0553062,13.6472363 19.0049017,14.7519773 C18.9582817,15.7734594 18.7876049,16.3282004 18.6441267,16.6973762 C18.4541115,17.1864083 18.2270416,17.535414 17.8604442,17.9020113 C17.4938469,18.2686503 17.1447996,18.4956786 16.6558091,18.6857353 C16.2865917,18.8292136 15.7318507,18.9998904 14.7103686,19.0464688 C13.605794,19.0968733 13.2744631,19.1075614 10.476845,19.1075614 C7.67922684,19.1075614 7.34789603,19.0968733 6.24332136,19.0464688 C5.22183932,18.9998904 4.66705671,18.8292136 4.29788091,18.6857353 C3.80889036,18.4956786 3.4598431,18.2686503 3.09324575,17.9020113 C2.72664839,17.535414 2.49957845,17.1864083 2.30952174,16.6973762 C2.16608507,16.3282004 1.99540832,15.7734594 1.94878828,14.7519773 C1.89838374,13.6472363 1.88773724,13.3158639 1.88773724,10.5184537 C1.88773724,7.72100189 1.89838374,7.38962949 1.94878828,6.28488847 C1.99540832,5.26340643 2.16608507,4.70866541 2.30952174,4.3394896 C2.49957845,3.85045747 2.72664839,3.5014518 3.09324575,3.13485444 C3.4598431,2.7682155 3.80889036,2.54118715 4.29788091,2.35113043 C4.66705671,2.20765217 5.22183932,2.03697543 6.24327977,1.99039698 C7.34806238,1.93999244 7.67939319,1.92930435 10.476845,1.92930435" id="Fill-1"></path>
                                    <path d="M10.476845,14.0107146 C8.54812287,14.0107146 6.98454253,12.4471758 6.98454253,10.5184537 C6.98454253,8.58968998 8.54812287,7.02615123 10.476845,7.02615123 C12.4055671,7.02615123 13.9691059,8.58968998 13.9691059,10.5184537 C13.9691059,12.4471758 12.4055671,14.0107146 10.476845,14.0107146 M10.476845,5.13843478 C7.50555577,5.13843478 5.09682609,7.54712287 5.09682609,10.5184537 C5.09682609,13.4897429 7.50555577,15.898431 10.476845,15.898431 C13.4481342,15.898431 15.8568639,13.4897429 15.8568639,10.5184537 C15.8568639,7.54712287 13.4481342,5.13843478 10.476845,5.13843478" id="Fill-4"></path>
                                    <path d="M17.3266344,4.92586654 C17.3266344,5.62021815 16.7637422,6.18306881 16.0694321,6.18306881 C15.3750805,6.18306881 14.8121883,5.62021815 14.8121883,4.92586654 C14.8121883,4.23151493 15.3750805,3.66866427 16.0694321,3.66866427 C16.7637422,3.66866427 17.3266344,4.23151493 17.3266344,4.92586654" id="Fill-6"></path>
                                </g>
                            </g>
                        </g>
                    </g>
                </g>
            </g>
        </g>
    </g>
</svg>