<?xml version="1.0" encoding="UTF-8"?>
<svg width="19px" height="40px" viewBox="0 0 19 40" version="1.1" xmlns="http://www.w3.org/2000/svg" xmlns:xlink="http://www.w3.org/1999/xlink">
    <!-- Generator: Sketch 41.2 (35397) - http://www.bohemiancoding.com/sketch -->
    <title>iphone.colors-black-white-grey</title>
    <desc>Created with Sketch.</desc>
    <defs></defs>
    <g id="01-Style-Tile" stroke="none" stroke-width="1" fill="none" fill-rule="evenodd">
        <g id="Style-Tile" transform="translate(-168.000000, -1678.000000)" fill="#000000">
            <g id="Icons" transform="translate(100.000000, 660.000000)">
                <g id="Iconset" transform="translate(0.000000, 30.000000)">
                    <g id="Icons" transform="translate(61.000000, 67.000000)">
                        <g id="Devices" transform="translate(7.000000, 909.000000)">
                            <g id="Icon/Device/iPhone/Black" transform="translate(0.000000, 12.000000)">
                                <path d="M1.54651163,34.2857143 L17.6744186,34.2857143 L17.6744186,5.71428571 L1.54651163,5.71428571 L1.54651163,34.2857143 Z M9.68734884,38.9375824 C8.71127907,38.9375824 7.91990698,38.1505495 7.91990698,37.1793407 C7.91990698,36.2083516 8.71127907,35.4210989 9.68734884,35.4210989 C10.6634186,35.4210989 11.4547907,36.2083516 11.4547907,37.1793407 C11.4547907,38.1505495 10.6634186,38.9375824 9.68734884,38.9375824 L9.68734884,38.9375824 Z M11.4883721,3.53032967 C11.4883721,3.76527473 11.2968256,3.95604396 11.0602093,3.95604396 L8.1605,3.95604396 C7.92410465,3.95604396 7.73255814,3.76527473 7.73255814,3.53032967 L7.73255814,3.50285714 C7.73255814,3.26769231 7.92410465,3.07692308 8.1605,3.07692308 L11.0602093,3.07692308 C11.2968256,3.07692308 11.4883721,3.26769231 11.4883721,3.50285714 L11.4883721,3.53032967 Z M19,2.69230769 C19,1.20527473 17.7884186,0 16.2936047,0 L2.70639535,0 C1.2115814,0 0,1.20527473 0,2.69230769 L0,37.3076923 C0,38.7947253 1.2115814,40 2.70639535,40 L16.2936047,40 C17.7884186,40 19,38.7947253 19,37.3076923 L19,2.69230769 Z" id="Icon/iPhone/Black"></path>
                            </g>
                        </g>
                    </g>
                </g>
            </g>
        </g>
    </g>
</svg>