<?xml version="1.0" encoding="UTF-8"?>
<svg width="16px" height="22px" viewBox="0 0 16 22" version="1.1" xmlns="http://www.w3.org/2000/svg" xmlns:xlink="http://www.w3.org/1999/xlink">
    <!-- Generator: Sketch 41.2 (35397) - http://www.bohemiancoding.com/sketch -->
    <title>lock-closed--s.colors-black-white-grey</title>
    <desc>Created with Sketch.</desc>
    <defs></defs>
    <g id="01-Style-Tile" stroke="none" stroke-width="1" fill="none" fill-rule="evenodd">
        <g id="Style-Tile" transform="translate(-1255.000000, -1222.000000)" fill="#000000">
            <g id="Icons" transform="translate(100.000000, 660.000000)">
                <g id="Iconset" transform="translate(0.000000, 30.000000)">
                    <g id="Icons" transform="translate(61.000000, 67.000000)">
                        <g id="Misc" transform="translate(6.000000, 465.000000)">
                            <g id="Icon/Lock/Black" transform="translate(1088.000000, 0.000000)">
                                <path d="M0,21.5207207 L0,9.21081081 L2.45045045,9.21081081 L2.45045045,5.52072072 C2.45045045,3.9831755 2.98858321,2.68108641 4.06486486,1.61441441 C5.14114652,0.538132757 6.45284512,0 8,0 C9.52793557,0 10.8300246,0.538132757 11.9063063,1.61441441 C12.982588,2.69069607 13.5207207,3.99278515 13.5207207,5.52072072 L13.5207207,9.21081081 L16,9.21081081 L16,21.5207207 L0,21.5207207 Z M4.92972973,9.21081081 L11.0702703,9.21081081 L11.0702703,5.52072072 C11.0702703,4.66546119 10.7723754,3.93994292 10.1765766,3.34414414 C9.5807778,2.74834537 8.85525953,2.45045045 8,2.45045045 C7.14474047,2.45045045 6.4192222,2.74834537 5.82342342,3.34414414 C5.22762465,3.93994292 4.92972973,4.66546119 4.92972973,5.52072072 L4.92972973,9.21081081 Z M6.76036036,14.1405405 C6.76036036,14.5825848 6.9669649,14.9381368 7.38018018,15.2072072 L7.38018018,17.8306306 L8.61981982,17.8306306 L8.61981982,15.2072072 C9.0330351,14.9381368 9.23963964,14.5825848 9.23963964,14.1405405 C9.23963964,13.9675667 9.20600634,13.8066074 9.13873874,13.6576577 C9.07147114,13.508708 8.98258314,13.3789795 8.87207207,13.2684685 C8.76156101,13.1579574 8.63183258,13.0690694 8.48288288,13.0018018 C8.33393319,12.9345342 8.17297384,12.9009009 8,12.9009009 C7.82702616,12.9009009 7.66606681,12.9345342 7.51711712,13.0018018 C7.36816742,13.0690694 7.23843899,13.1579574 7.12792793,13.2684685 C7.01741686,13.3789795 6.92852886,13.508708 6.86126126,13.6576577 C6.79399366,13.8066074 6.76036036,13.9675667 6.76036036,14.1405405 L6.76036036,14.1405405 Z"></path>
                            </g>
                        </g>
                    </g>
                </g>
            </g>
        </g>
    </g>
</svg>