<?xml version="1.0" encoding="UTF-8"?>
<svg width="102px" height="81px" viewBox="0 0 102 81" version="1.1" xmlns="http://www.w3.org/2000/svg" xmlns:xlink="http://www.w3.org/1999/xlink">
    <!-- Generator: Sketch 41.2 (35397) - http://www.bohemiancoding.com/sketch -->
    <title>logo-gpmd.colors-black-white-grey</title>
    <desc>Created with Sketch.</desc>
    <defs></defs>
    <g id="Page-1" stroke="none" stroke-width="1" fill="none" fill-rule="evenodd">
        <g id="GPMD-Logo" transform="translate(-1.000000, 0.000000)" fill="#FFCC00">
            <g id="logo-gpmd.colors-black-white-grey">
                <path d="M42,18.7 L39.5,18.7 L39.5,22.6 L42,22.6 C43.1,22.6 44.1,21.7 44.1,20.6 C44,19.5 43.1,18.7 42,18.7 Z" id="Shape"></path>
                <path d="M78.7,18.7 L76.2,18.7 L76.2,29.1 L78.7,29.1 C81.7,29.1 83.8,26.8 83.8,23.9 C83.8,21 81.7,18.7 78.7,18.7 Z" id="Shape"></path>
                <path d="M97.5,11.4 C89,3 75.6,1.8 64.3,0.7 C56,-0.2 48,-0.2 39.7,0.6 C28.4,1.8 15,3 6.5,11.4 C2.6,15.3 0.1,20.8 1.3,26.3 C5.9,48.5 35.2,41.7 46.3,57.1 C50.9,63.5 50.8,72.6 51.9,80.1 L52.1,80.1 C53.2,72.6 53,63.5 57.7,57.1 C68.9,41.7 98.2,48.5 102.7,26.3 C103.9,20.8 101.4,15.3 97.5,11.4 Z M31.6,31.5 C31.6,31.5 28.9,33.2 25.1,33.2 C19.9,33.2 15.7,29.1 15.7,24 C15.7,18.9 19.9,14.7 25.1,14.7 C27.3,14.7 29.7,15.6 31.5,17.1 C31.7,17.3 31.8,17.6 31.6,17.8 L29.5,20 C29.3,20.2 29,20.2 28.8,20 C27.8,19.1 26.7,18.8 25.4,18.8 C22.6,18.8 20.3,21.2 20.3,24 C20.3,26.8 22.6,29.1 25.5,29.1 C26.3,29.1 27,29 27.8,28.7 L27.8,27.2 L26.2,27.2 C25.9,27.2 25.7,27 25.7,26.7 L25.7,24.2 C25.7,23.9 25.9,23.7 26.2,23.7 L31.4,23.7 C31.7,23.7 31.9,23.9 31.9,24.2 L31.9,31.1 C31.8,31.2 31.7,31.4 31.6,31.5 Z M42.2,26.4 L39.5,26.4 L39.5,32.5 C39.5,32.8 39.3,33 39,33 L35.9,33 C35.6,33 35.4,32.8 35.4,32.5 L35.4,15.5 C35.4,15.2 35.6,15 35.9,15 L42.2,15 C45.4,15 48.1,17.6 48.1,20.7 C48,23.8 45.4,26.4 42.2,26.4 Z M69,32.9 L65.9,32.9 C65.7,32.9 65.4,32.7 65.4,32.5 L64.2,24.5 L64.1,24.5 L59.7,32.8 C59.6,33 59.4,33.1 59.3,33.1 L58.8,33.1 C58.6,33.1 58.4,33 58.4,32.8 L54,24.6 L53.9,24.6 L52.8,32.6 C52.8,32.8 52.6,33 52.3,33 L49.2,33 C48.9,33 48.7,32.8 48.7,32.4 L51.7,15.1 C51.7,14.9 52,14.7 52.2,14.7 L52.6,14.7 C52.7,14.7 53,14.8 53,15 L59.1,26 L59.2,26 L65.3,14.9 C65.4,14.7 65.6,14.6 65.7,14.6 L66,14.6 C66.2,14.6 66.4,14.8 66.5,15 L69.5,32.3 C69.5,32.7 69.3,32.9 69,32.9 Z M79,32.9 L72.6,32.9 C72.3,32.9 72.1,32.7 72.1,32.4 L72.1,15.4 C72.1,15.1 72.3,14.9 72.6,14.9 L79,14.9 C84,14.9 88.2,18.9 88.2,23.9 C88.2,28.9 84,32.9 79,32.9 Z" id="Shape"></path>
            </g>
        </g>
    </g>
</svg>