<?xml version="1.0" encoding="UTF-8"?>
<svg width="23px" height="43px" viewBox="0 0 23 43" version="1.1" xmlns="http://www.w3.org/2000/svg" xmlns:xlink="http://www.w3.org/1999/xlink">
    <!-- Generator: Sketch 41.2 (35397) - http://www.bohemiancoding.com/sketch -->
    <title>lumia.colors-black-white-grey</title>
    <desc>Created with Sketch.</desc>
    <defs></defs>
    <g id="01-Style-Tile" stroke="none" stroke-width="1" fill="none" fill-rule="evenodd">
        <g id="Style-Tile" transform="translate(-1096.000000, -1676.000000)" fill="#000000">
            <g id="Icons" transform="translate(100.000000, 660.000000)">
                <g id="Iconset" transform="translate(0.000000, 30.000000)">
                    <g id="Icons" transform="translate(61.000000, 67.000000)">
                        <g id="Devices" transform="translate(7.000000, 909.000000)">
                            <g id="Icon/Device/Lumia/Black" transform="translate(928.000000, 10.000000)">
                                <path d="M2.25490196,35.3870784 L20.745098,35.3870784 L20.745098,4.04394118 L2.25490196,4.04394118 L2.25490196,35.3870784 Z M12.1764706,37.7648725 L10.8235294,37.5738824 L10.8235294,36.7465588 L12.1764706,36.5979608 L12.1764706,37.7648725 Z M10.1903529,1.78903922 L12.9907157,1.78903922 C13.1314216,1.78903922 13.2455196,1.98679412 13.2455196,2.12727451 C13.2455196,2.26798039 13.1314216,2.4655098 12.9907157,2.4655098 L10.1903529,2.4655098 C10.0496471,2.4655098 9.93554902,2.26798039 9.93554902,2.12727451 C9.93554902,1.98679412 10.0496471,1.78903922 10.1903529,1.78903922 L10.1903529,1.78903922 Z M22.2892549,0.210607843 L0.968029412,0.210607843 C0.779745098,0.210607843 0,0 0,0 L0,1.71327451 L0,38.9105882 L0,42.1141275 C0,42.1141275 0.779745098,42.3772745 0.968029412,42.3772745 L22.2892549,42.3772745 C22.5142941,42.3772745 23,42.1141275 23,42.1141275 L23,39.7149118 L23,2.27023529 L23,0 C23,0 22.5142941,0.210607843 22.2892549,0.210607843 L22.2892549,0.210607843 Z" id="Icon/Lumia/Black"></path>
                            </g>
                        </g>
                    </g>
                </g>
            </g>
        </g>
    </g>
</svg>