<?xml version="1.0" encoding="UTF-8"?>
<svg width="34px" height="20px" viewBox="0 0 34 20" version="1.1" xmlns="http://www.w3.org/2000/svg" xmlns:xlink="http://www.w3.org/1999/xlink">
    <!-- Generator: Sketch 41.2 (35397) - http://www.bohemiancoding.com/sketch -->
    <title>maestro--s.colors-black-white-grey</title>
    <desc>Created with Sketch.</desc>
    <defs></defs>
    <g id="01-Style-Tile" stroke="none" stroke-width="1" fill="none" fill-rule="evenodd">
        <g id="Style-Tile" transform="translate(-471.000000, -1843.000000)" fill="#000000">
            <g id="Icons" transform="translate(100.000000, 660.000000)">
                <g id="Iconset" transform="translate(0.000000, 30.000000)">
                    <g id="Icons" transform="translate(61.000000, 67.000000)">
                        <g id="Payment-Methods" transform="translate(0.000000, 1086.000000)">
                            <g id="Icon/Payment/Maestro/Black" transform="translate(310.000000, 0.000000)">
                                <path d="M9.6226415,0.00491044069 C10.9109795,-0.0212784127 12.0299574,0.106390332 12.9796086,0.387920506 C13.9292598,0.669450679 14.7892457,1.05245691 15.5595922,1.5369507 C15.6658468,1.60242284 15.7654591,1.66462043 15.858432,1.72354535 C15.9514048,1.78247027 16.0510171,1.84466786 16.1572718,1.91014 C16.2369628,1.9625177 16.3100118,2.01816818 16.3764209,2.0770931 C16.4428301,2.13601802 16.5092383,2.19821562 16.5756475,2.26368775 C16.6420566,2.30297103 16.7184261,2.35207439 16.804758,2.41099931 C16.8910899,2.46992423 16.9541777,2.53212183 16.9940232,2.59759396 C17.086996,2.54521625 17.1666859,2.48301866 17.233095,2.41099931 C17.2995042,2.33897997 17.3725532,2.27023526 17.4522442,2.20476312 C17.5983444,2.10000771 17.7477628,1.99198031 17.9005039,1.88067768 C18.053245,1.76937506 18.2026634,1.66789477 18.3487636,1.57623379 C18.7737823,1.31434525 19.2120763,1.08846978 19.6636587,0.898600593 C20.1152411,0.708731406 20.6000208,0.52868574 21.1180124,0.358458193 C21.1977034,0.33226934 21.2773932,0.315901552 21.3570842,0.309354339 C21.4367753,0.302807125 21.5231059,0.286439338 21.6160787,0.260250484 C21.9614065,0.155495071 22.3532147,0.0834768043 22.7915153,0.0441935243 C23.2298158,0.00491024428 23.6714302,-0.00818398598 24.1163717,0.00491044069 C24.5613132,0.0180048674 24.9962868,0.0572875582 25.4213055,0.122759692 C25.8463242,0.188231825 26.21821,0.273344322 26.5369741,0.378099735 C26.6033833,0.391194162 26.6631506,0.404288392 26.716278,0.417382819 C26.7694053,0.430477245 26.8291727,0.443571476 26.8955818,0.456665902 C27.3206006,0.600704596 27.7190496,0.751288244 28.090941,0.908421364 C28.3167322,1.01317678 28.5292384,1.12447773 28.7284659,1.24232757 C28.9276935,1.36017741 29.1202772,1.47802549 29.3062229,1.59587533 C31.0594251,2.69580717 32.3610255,4.21473788 33.2110629,6.15271303 C33.3305994,6.41460156 33.4268913,6.67975972 33.4999414,6.94819547 C33.5729915,7.21663122 33.6560017,7.49488361 33.7489745,7.782961 C33.7755382,7.87462198 33.7921403,7.96300804 33.7987812,8.04812181 C33.8054221,8.13323558 33.8220241,8.21507452 33.8485878,8.29364108 C33.8884333,8.43767978 33.9083558,8.59153698 33.9083558,8.75521732 C33.9083558,8.91889765 33.9282782,9.07930197 33.9681237,9.23643509 C33.9814056,9.26262394 33.984726,9.30190663 33.9780851,9.35428434 C33.9714441,9.40666205 33.9747645,9.44594474 33.9880464,9.47213359 L33.9880464,9.8060398 C33.9880464,9.92388964 33.9913668,10.0548319 33.9980077,10.1988706 C34.0046486,10.3429093 33.9946874,10.4673045 33.9681237,10.5720599 L33.9681237,10.8274 C33.9415601,10.9321554 33.9282784,11.0500035 33.9282784,11.1809477 C33.9282784,11.311892 33.9149968,11.4362872 33.8884331,11.554137 C33.8618694,11.645798 33.8452674,11.7374576 33.8386265,11.8291186 C33.8319856,11.9207796 33.8153835,12.0124392 33.7888199,12.1041002 C33.7224107,12.3267054 33.6593229,12.5493074 33.5995546,12.7719126 C33.5397864,12.9945179 33.4700578,13.2040256 33.3903668,13.400442 C33.377085,13.4266308 33.3704441,13.4528193 33.3704441,13.4790081 C33.3704441,13.505197 33.3638033,13.5313854 33.3505215,13.5575743 C33.2973941,13.6623297 33.2442676,13.7769042 33.1911403,13.9013013 C33.1380129,14.0256983 33.0848864,14.1402728 33.031759,14.2450283 C33.0051954,14.3235948 32.9786321,14.3988866 32.9520684,14.470906 C32.9255047,14.5429253 32.8923007,14.61167 32.8524551,14.6771422 C32.706355,14.886653 32.5735386,15.0961607 32.4540021,15.3056715 C32.3344656,15.5151823 32.2016492,15.7181429 32.055549,15.9145593 C31.975858,16.0193147 31.8928478,16.1273421 31.8065159,16.2386447 C31.7201839,16.3499474 31.6371737,16.4579748 31.5574827,16.5627302 C31.5176372,16.588919 31.4711515,16.6282017 31.4180241,16.6805794 C31.2320784,16.9293735 31.0129314,17.1454283 30.7605766,17.3287503 C30.7074492,17.3680336 30.6576431,17.417137 30.6111567,17.4760619 C30.5646702,17.5349868 30.5148641,17.5840902 30.4617368,17.6233734 C30.2890729,17.7543177 30.1230525,17.8819865 29.9636704,18.0063835 C29.8042884,18.1307806 29.6316271,18.2453551 29.4456814,18.3501105 C29.2597358,18.4810548 29.0638316,18.6087235 28.8579632,18.7331206 C28.6520947,18.8575176 28.4362681,18.9720921 28.210477,19.0768475 C28.0112494,19.1685085 27.8087045,19.253621 27.602836,19.3321876 C27.3969676,19.4107541 27.181141,19.4893195 26.9553498,19.5678861 C26.8092496,19.6202638 26.6531904,19.66282 26.4871674,19.6955561 C26.3211445,19.7282922 26.1650853,19.7708484 26.0189851,19.8232261 C25.9392941,19.849415 25.8629247,19.8592356 25.7898746,19.8526884 C25.7168245,19.8461412 25.6404551,19.8559619 25.5607641,19.8821507 C25.3482547,19.9345285 25.1257873,19.967264 24.8933552,19.9803585 C24.6609231,19.9934529 24.4118924,20 24.1462557,20 L22.7915153,20 C22.7251061,19.9738111 22.6487367,19.9639905 22.5624048,19.9705377 C22.4760728,19.9770849 22.3930626,19.9672642 22.3133716,19.9410754 C22.1274259,19.8886977 21.9381626,19.8526885 21.745576,19.8330469 C21.5529894,19.8134053 21.3637261,19.770849 21.1777804,19.7053769 C20.9519892,19.6268103 20.7295218,19.554792 20.5103715,19.4893199 C20.2912212,19.4238478 20.0820354,19.3452824 19.8828079,19.2536214 C19.6171712,19.148866 19.3581793,19.0277444 19.1058244,18.8902529 C18.8534696,18.7527614 18.6144001,18.6119984 18.3886089,18.4679597 C18.3089179,18.415582 18.2259077,18.3664787 18.1395758,18.3206482 C18.0532438,18.2748177 17.9702336,18.2257143 17.8905426,18.1733366 C17.8108516,18.1078645 17.7311618,18.0423933 17.6514707,17.9769212 C17.5717797,17.9114491 17.4920899,17.8459779 17.4123989,17.7805058 C17.3459897,17.7281281 17.2729407,17.6757511 17.1932497,17.6233734 C17.1135587,17.5709957 17.0537914,17.5120717 17.0139458,17.4465996 L16.9940232,17.4662411 C16.8877685,17.5317132 16.778195,17.6168257 16.6652994,17.7215812 C16.5524038,17.8263366 16.4428303,17.9179962 16.3365756,17.9965627 C16.0443753,18.219168 15.7189752,18.4417699 15.3603656,18.6643752 C15.2939565,18.7036584 15.2242279,18.736394 15.1511778,18.7625829 C15.0781277,18.7887717 15.0083991,18.8215073 14.9419899,18.8607906 C14.8755807,18.9000739 14.8058521,18.9426301 14.7328021,18.9884606 C14.659752,19.0342911 14.5900234,19.0703002 14.5236142,19.0964891 C14.2048501,19.2405278 13.8794501,19.364923 13.5474042,19.4696784 C13.2153583,19.5744338 12.8700358,19.6791876 12.5114262,19.783943 C12.3121987,19.8494152 12.1030129,19.8886979 11.8838626,19.9017923 C11.6647124,19.9148867 11.4488858,19.9476223 11.2363764,20 L9.94140395,20 C9.22418485,20 8.58334592,19.9378024 8.01886792,19.8134054 C7.45438992,19.6890083 6.91980407,19.5220569 6.41509433,19.312546 C6.26899415,19.2470739 6.12953697,19.1881499 5.99671862,19.1357722 C5.86390027,19.0833945 5.73772472,19.0244704 5.61818821,18.9589983 C5.59162454,18.9328094 5.56174085,18.9197152 5.52853627,18.9197152 C5.49533168,18.9197152 5.465448,18.9131681 5.43888433,18.9000737 C5.2396568,18.7691294 5.03711185,18.6447342 4.8312434,18.5268844 C4.62537496,18.4090345 4.42283001,18.2846393 4.22360248,18.1536951 C4.15719331,18.1013174 4.09078513,18.0456669 4.02437595,17.986742 C3.95796677,17.927817 3.89155859,17.8721666 3.82514942,17.8197889 C3.4399762,17.5317115 3.08469243,17.2109028 2.75928747,16.8573533 C2.43388251,16.5038038 2.13172529,16.1371653 1.85280675,15.757427 C1.70670656,15.5348217 1.55396775,15.3056727 1.39458572,15.069973 C1.2352037,14.8342733 1.10238734,14.585483 0.996132661,14.3235944 C0.916441649,14.1402724 0.836751833,13.9602268 0.757060822,13.783452 C0.677369811,13.6066773 0.604320813,13.4266316 0.537911637,13.2433096 C0.511347966,13.1778375 0.494745921,13.1123663 0.488105004,13.0468942 C0.481464086,12.9814221 0.464862041,12.9159509 0.438298371,12.8504788 C0.371889195,12.640968 0.318762651,12.4216396 0.278917145,12.1924871 C0.239071639,11.9633347 0.185945095,11.7309121 0.119535919,11.4952124 C0.0929722488,11.4035514 0.0830110219,11.3086182 0.0896519395,11.21041 C0.0962928571,11.1122018 0.0863316301,11.0172687 0.0597679596,10.9256077 L0.0597679596,10.7095507 C0.0332042892,10.6440786 0.0166022442,10.5491454 0.00996132661,10.4247484 C0.003320409,10.3003513 0,10.169409 0,10.0319175 C0,9.89442605 0.003320409,9.76021019 0.00996132661,9.62926593 C0.0166022442,9.49832166 0.0332042892,9.40011493 0.0597679596,9.3346428 L0.0597679596,9.13822738 C0.0863316301,9.03347197 0.0962928571,8.93526524 0.0896519395,8.84360425 C0.0830110219,8.75194327 0.0929722488,8.65373654 0.119535919,8.54898113 C0.14609959,8.43113129 0.166022044,8.31000966 0.179303879,8.1856126 C0.192585714,8.06121555 0.219148986,7.94009392 0.258994492,7.82224408 C0.312121833,7.65201653 0.358607559,7.47851798 0.398453064,7.30174322 C0.43829857,7.12496846 0.491425114,6.95801703 0.55783429,6.80088391 C0.58439796,6.76160063 0.597679596,6.72231794 0.597679596,6.68303466 C0.597679596,6.64375137 0.610961232,6.60446868 0.637524903,6.5651854 C0.743779585,6.30329687 0.853353082,6.04141227 0.966248681,5.77952373 C1.07914428,5.5176352 1.20864023,5.27539194 1.35474042,5.05278669 C1.952423,4.09689354 2.64638848,3.26213636 3.43665768,2.5484901 C4.22692687,1.83484385 5.1599618,1.24232993 6.23579046,0.770930571 C6.50142716,0.666175158 6.77038029,0.574515546 7.04265791,0.495948986 C7.31493553,0.417382426 7.59052948,0.338817044 7.86944802,0.260250484 C7.9757027,0.234061631 8.07863538,0.214420285 8.17824914,0.201325859 C8.27786291,0.188231432 8.37415477,0.168590087 8.46712762,0.142401233 C8.59994597,0.103117953 8.73608274,0.0834766079 8.87554201,0.0834766079 C9.01500128,0.0834766079 9.14449723,0.0703823777 9.26403374,0.0441935243 C9.33044292,0.018004671 9.3968511,0.0114575558 9.46326028,0.0245519825 C9.52966945,0.0376464092 9.582796,0.031099294 9.6226415,0.00491044069 L9.6226415,0.00491044069 Z M4.38298371,7.42941324 C4.38298371,7.49488538 4.37302248,7.56363009 4.35309973,7.63564943 C4.33317697,7.70766878 4.31657493,7.77641349 4.30329309,7.84188562 C4.26344759,7.95973546 4.23688432,8.07758353 4.22360248,8.19543337 C4.21032065,8.31328321 4.19039819,8.43113129 4.16383452,8.54898113 C4.13727085,8.64064211 4.12398922,8.72902817 4.12398922,8.81414194 C4.12398922,8.89925571 4.11070758,8.98764177 4.08414391,9.07930276 C4.01773473,9.28881358 3.97124901,9.50486838 3.94468534,9.72747364 C3.91812167,9.95007889 3.87163594,10.1726808 3.80522676,10.3952861 C3.77866309,10.4738526 3.76538146,10.5491444 3.76538146,10.6211638 C3.76538146,10.6931831 3.75209982,10.768475 3.72553615,10.8470415 C3.69897248,10.9910802 3.67240921,11.1351167 3.64584554,11.2791554 C3.61928187,11.4231941 3.58607778,11.5672307 3.54623227,11.7112694 C3.54623227,11.7374582 3.54291186,11.7701938 3.53627095,11.8094771 C3.52963003,11.8487603 3.52630962,11.8814959 3.52630962,11.9076848 C3.49974595,11.9993458 3.47650309,12.0975525 3.45658033,12.2023079 C3.43665758,12.3070633 3.42005553,12.4118172 3.4067737,12.5165726 L4.54236493,12.5165726 C4.5689286,12.3725339 4.60213269,12.2481387 4.6419782,12.1433833 C4.6419782,12.0517223 4.64861902,11.9862511 4.66190085,11.9469679 C4.68846452,11.8422124 4.71170739,11.7276379 4.73163014,11.6032409 C4.75155289,11.4788438 4.77479575,11.3642693 4.80135942,11.2595139 C4.81464126,11.2202306 4.82128208,11.1776744 4.82128208,11.1318439 C4.82128208,11.0860134 4.8279229,11.03691 4.84120473,10.9845323 C4.90761391,10.8012103 4.95077922,10.6015233 4.97070198,10.3854653 C4.99062473,10.1694072 5.03379005,9.96317312 5.10019922,9.76675672 C5.14004473,9.63581245 5.166608,9.50487015 5.17988984,9.37392588 C5.19317167,9.24298162 5.21973494,9.11858643 5.25958045,9.00073659 C5.27286228,8.94835888 5.27618269,8.89598196 5.26954178,8.84360425 C5.26290086,8.79122655 5.27286208,8.75194386 5.29942575,8.725755 L5.29942575,8.74539654 C5.32598943,8.7715854 5.33263024,8.81414165 5.31934841,8.87306657 C5.30606657,8.93199149 5.30606657,8.98764197 5.31934841,9.04001967 C5.33263024,9.10549181 5.34259147,9.17751007 5.34923239,9.25607663 C5.35587331,9.33464319 5.35919371,9.40666146 5.35919371,9.47213359 L5.35919371,9.66854901 C5.37247555,9.73402114 5.37911637,9.80603941 5.37911637,9.88460597 L5.37911637,10.1006629 L5.37911637,10.2970783 C5.40568004,10.3625505 5.41896167,10.4345687 5.41896167,10.5131353 L5.41896167,10.7291923 L5.41896167,10.9256077 C5.43224351,10.964891 5.43556392,11.0139943 5.428923,11.0729192 C5.42228208,11.1318442 5.42560249,11.1809475 5.43888433,11.2202308 C5.49201167,11.4166472 5.50861371,11.632702 5.48869096,11.8684017 C5.46876821,12.1041014 5.47872943,12.3201562 5.51857494,12.5165726 L6.67408883,12.5165726 C6.86003452,12.0713621 7.05593865,11.6294318 7.2618071,11.1907685 C7.46767554,10.7521052 7.66357967,10.3101749 7.84952537,9.86496443 C7.91593454,9.72092573 7.98234272,9.5768892 8.0487519,9.43285051 C8.11516107,9.28881181 8.18156925,9.14477528 8.24797843,9.00073659 C8.2745421,8.93526445 8.29446455,8.87634042 8.30774639,8.82396271 C8.32102823,8.77158501 8.3475915,8.71920808 8.387437,8.66683038 C8.26790049,9.32155171 8.14504535,9.96644255 8.01886792,10.6015222 C7.89269048,11.2366019 7.76983535,11.8749457 7.65029883,12.5165726 L8.90542599,12.5165726 L8.90542599,12.496931 L8.92534864,12.496931 C8.92534864,12.3790812 8.94527109,12.2481389 8.9851166,12.1041002 C9.02496211,11.9600615 9.0581662,11.8356663 9.08472987,11.7309109 C9.08472987,11.704722 9.08805027,11.67526 9.09469119,11.642524 C9.10133211,11.6097879 9.10465252,11.5803259 9.10465252,11.554137 C9.14449802,11.4100983 9.17770211,11.2660618 9.20426578,11.1220231 C9.23082946,10.9779844 9.25739273,10.8339479 9.2839564,10.6899092 C9.29723823,10.6506259 9.30387905,10.5917019 9.30387905,10.5131353 C9.34372456,10.382191 9.37360824,10.2512487 9.39353099,10.1203045 C9.41345374,9.9893602 9.44333742,9.8584179 9.48318293,9.72747364 C9.48318293,9.64890707 9.48982375,9.58998304 9.50310558,9.55069976 C9.59607843,9.21024467 9.67244784,8.85997401 9.73221609,8.49987727 C9.79198435,8.13978054 9.85507212,7.78296276 9.9214813,7.42941324 L7.84952537,7.42941324 C7.62373417,7.95319031 7.39462595,8.47368596 7.16219383,8.99091582 C6.92976171,9.50814567 6.70065349,10.0220942 6.47486229,10.5327768 L6.45493964,10.5327768 L6.45493964,10.3363614 C6.44165781,10.3101726 6.4383374,10.2676163 6.44497831,10.2086914 C6.45161923,10.1497665 6.44829882,10.1006631 6.43501699,10.0613798 L6.43501699,9.47213359 C6.42173515,9.1316785 6.41177393,8.79450207 6.40513301,8.46059419 C6.39849209,8.12668631 6.38853086,7.78950988 6.37524903,7.44905479 L6.35532638,7.44905479 L6.35532638,7.42941324 L4.38298371,7.42941324 Z M21.8949959,7.42941324 C21.881714,7.56035751 21.8584712,7.70439404 21.8252666,7.86152716 C21.792062,8.01866028 21.7621783,8.16269682 21.7356147,8.29364108 C21.7356147,8.31982994 21.7322942,8.34929195 21.7256533,8.38202802 C21.7190124,8.41476409 21.715692,8.44422611 21.715692,8.47041496 C21.6758465,8.61445365 21.6459628,8.7650373 21.6260401,8.92217042 C21.6061173,9.07930354 21.5762336,9.22988719 21.5363881,9.37392588 C21.5098245,9.43939802 21.4998632,9.49177494 21.5065041,9.53105822 C21.5131451,9.5703415 21.5098247,9.6161713 21.4965428,9.66854901 C21.4699791,9.77330442 21.4467363,9.87805827 21.4268135,9.98281368 C21.4068908,10.0875691 21.3836479,10.1923229 21.3570842,10.2970783 C21.3305206,10.3494561 21.3238798,10.3952859 21.3371616,10.4345691 C21.3504434,10.4738524 21.3438026,10.5196822 21.3172389,10.5720599 C21.2375479,10.8732317 21.1844214,11.174399 21.1578577,11.4755709 C21.1047304,12.0255368 21.26411,12.3725339 21.6360014,12.5165726 C21.7024106,12.5427614 21.7654983,12.5558557 21.8252666,12.5558557 C21.8850349,12.5558557 21.9481226,12.5689499 22.0145318,12.5951387 C22.080941,12.6082332 22.1606308,12.6147803 22.2536036,12.6147803 C22.3465765,12.6147803 22.4262663,12.6016861 22.4926755,12.5754972 C22.5856483,12.5493083 22.6852606,12.5362141 22.7915153,12.5362141 C22.89777,12.5362141 22.9841006,12.5100257 23.0505098,12.4576479 C23.0770734,12.4183647 23.0870347,12.3758084 23.0803937,12.3299779 C23.0737528,12.2841474 23.0770732,12.2350441 23.0903551,12.1826664 C23.1169187,12.0779109 23.143482,11.9731571 23.1700457,11.8684017 C23.1966094,11.7636463 23.209891,11.6588924 23.209891,11.554137 L23.1700457,11.554137 C23.1302002,11.5803259 23.0770736,11.5934201 23.0106645,11.5934201 C22.9442553,11.5934201 22.8745267,11.5901465 22.8014766,11.5835993 C22.7284265,11.5770521 22.6620183,11.5606843 22.6022501,11.5344955 C22.5424818,11.5083066 22.5059573,11.4821182 22.4926755,11.4559293 C22.45283,11.4035516 22.4362279,11.311892 22.4428688,11.1809477 C22.4495098,11.0500035 22.4661118,10.9517967 22.4926755,10.8863246 C22.532521,10.7553803 22.5590843,10.624438 22.5723661,10.4934938 C22.5856479,10.3625495 22.6122112,10.2250601 22.6520567,10.0810214 C22.6786204,9.97626597 22.7051836,9.86496502 22.7317473,9.74711518 C22.758311,9.62926534 22.7782334,9.51141726 22.7915153,9.39356742 L23.4290402,9.39356742 L23.4489628,9.37392588 C23.4755265,9.21679276 23.5054102,9.05638844 23.5386148,8.89270811 C23.5718194,8.72902777 23.601703,8.56207634 23.6282667,8.39184879 L22.9708192,8.39184879 L22.9708192,8.35256571 C22.9973828,8.32637686 23.0073441,8.29691484 23.0007031,8.26417877 C22.9940622,8.2314427 22.9973826,8.20198069 23.0106645,8.17579183 C23.0372281,8.08413085 23.0571506,7.99247123 23.0704324,7.90081025 C23.0837143,7.80914926 23.1036367,7.71748965 23.1302004,7.62582866 C23.1302004,7.61273424 23.1335208,7.59964 23.1401617,7.58654558 C23.1468026,7.57345115 23.150123,7.55380981 23.150123,7.52762095 L23.150123,7.44905479 C23.1235594,7.42286593 23.0704328,7.41304526 22.9907418,7.41959247 C22.9110508,7.42613969 22.8512834,7.42941324 22.8114379,7.42941324 L21.8949959,7.42941324 Z M28.3897808,8.27399954 C28.3100898,8.28709397 28.2304,8.3001882 28.150709,8.31328262 C28.071018,8.32637705 27.9913282,8.33947128 27.9116372,8.35256571 C27.7921006,8.39184899 27.6692455,8.43767879 27.5430681,8.4900565 C27.4168906,8.54243421 27.3006763,8.60135824 27.1944216,8.66683038 C27.167858,8.69301923 27.1379743,8.72575481 27.1047697,8.76503809 C27.0715651,8.80432137 27.0350406,8.83705694 26.9951951,8.8632458 C26.9686314,8.88943465 26.9387478,8.91234955 26.9055432,8.93199119 C26.8723386,8.95163283 26.8424549,8.98109485 26.8158912,9.02037813 C26.6963547,9.17751125 26.5901016,9.33791557 26.4971288,9.5015959 C26.4041559,9.66527624 26.3244661,9.85841613 26.2580569,10.0810214 C26.1650841,10.3952876 26.1551229,10.7357376 26.228173,11.1023816 C26.301223,11.4690255 26.4041557,11.7440043 26.5369741,11.9273263 C26.7362016,12.2023093 27.0416792,12.4052698 27.4534161,12.5362141 C27.5331071,12.562403 27.612797,12.5787708 27.692488,12.585318 C27.772179,12.5918652 27.845228,12.6016859 27.9116372,12.6147803 L28.1706316,12.6147803 C28.3565773,12.6147803 28.5259182,12.6082332 28.6786593,12.5951387 C28.8314004,12.5820443 28.974178,12.5493087 29.1069963,12.496931 C29.4788877,12.3790812 29.7744041,12.225224 29.9935544,12.0353548 C30.2127047,11.8454856 30.3953272,11.5803274 30.5414274,11.2398724 C30.567991,11.1744002 30.5845931,11.1089291 30.591234,11.0434569 C30.5978749,10.9779848 30.614477,10.9059665 30.6410406,10.8274 C30.694168,10.6571724 30.7207313,10.4214763 30.7207313,10.1203045 L30.7207313,9.90424751 C30.6941676,9.7994921 30.6709247,9.70128537 30.651002,9.60962438 C30.6310792,9.5179634 30.6078364,9.4328509 30.5812727,9.35428434 C30.4351725,9.0400181 30.2459092,8.80759551 30.0134771,8.65700961 C29.781045,8.5064237 29.4855285,8.38530207 29.126919,8.29364108 C29.0206643,8.26745223 28.9011296,8.25763156 28.7683112,8.26417877 C28.6354929,8.27072598 28.5093173,8.27399954 28.3897808,8.27399954 L28.3897808,8.27399954 Z M11.6348295,8.29364108 C11.5817021,8.31982994 11.515294,8.32637705 11.4356029,8.31328262 C11.3559119,8.3001882 11.2895038,8.3001882 11.2363764,8.31328262 C11.0902762,8.3525659 10.9375374,8.38857504 10.7781554,8.4213111 C10.6187734,8.45404717 10.4660346,8.48350919 10.3199344,8.50969804 C10.2933707,8.5882646 10.2800891,8.66682998 10.2800891,8.74539654 C10.2800891,8.8239631 10.2668074,8.9090756 10.2402438,9.00073659 C10.2136801,9.06620872 10.197078,9.13822699 10.1904371,9.21679355 C10.1837962,9.29536011 10.173835,9.37392549 10.1605531,9.45249205 L10.1804758,9.45249205 C10.2203213,9.41320877 10.2834091,9.39029387 10.369741,9.38374665 C10.4560729,9.37719944 10.5324423,9.36737877 10.5988515,9.35428434 C10.6785425,9.34118991 10.7847956,9.32482213 10.917614,9.30518049 C11.0504323,9.28553885 11.1898895,9.27244462 11.3359897,9.2658974 C11.4820899,9.25935019 11.621547,9.25935019 11.7543654,9.2658974 C11.8871837,9.27244462 11.9934368,9.2888124 12.0731278,9.31500126 C12.1262552,9.34119011 12.1661001,9.37065213 12.1926638,9.4033882 C12.2192274,9.43612426 12.2524315,9.46558628 12.292277,9.49177513 L12.292277,9.70783209 C12.292277,9.77330423 12.2789954,9.83877538 12.2524317,9.90424751 L12.2325091,9.90424751 C12.2059454,9.87805866 12.1760617,9.87151154 12.1428571,9.88460597 C12.1096525,9.8977004 12.0797689,9.8977004 12.0532052,9.88460597 C11.907105,9.85841712 11.7410846,9.85187 11.5551389,9.86496443 C11.3691932,9.87805885 11.2230952,9.8977002 11.1168405,9.92388905 C11.0504313,9.95007791 10.9840231,9.95989858 10.917614,9.95335137 C10.8512048,9.94680415 10.7847966,9.95662483 10.7183874,9.98281368 C10.4660326,10.0744747 10.250206,10.1857756 10.0709012,10.3167199 C9.89159642,10.4476642 9.74881884,10.6309834 9.64256416,10.8666831 C9.56287314,11.050005 9.52302824,11.2529656 9.52302824,11.4755709 L9.52302824,11.6719863 C9.64256475,12.1171968 9.89491584,12.4052698 10.2800891,12.5362141 C10.3199346,12.562403 10.3597795,12.5722236 10.399625,12.5656764 C10.4394705,12.5591292 10.4859562,12.5624028 10.5390836,12.5754972 C10.6054927,12.5885916 10.688503,12.5951387 10.7881167,12.5951387 C10.8877305,12.5951387 10.9707407,12.5885916 11.0371499,12.5754972 C11.0769954,12.5624028 11.1268015,12.5525821 11.1865698,12.5460349 C11.246338,12.5394877 11.302785,12.5231199 11.3559123,12.496931 C11.5285762,12.4445533 11.6746742,12.3725351 11.7942107,12.2808741 C11.8340562,12.2546852 11.8672603,12.2252232 11.893824,12.1924871 C11.9203876,12.1597511 11.9535917,12.130289 11.9934372,12.1041002 L11.9934372,12.2219494 C11.9801554,12.2481383 11.9735146,12.2939681 11.9735146,12.3594402 L11.9735146,12.496931 C12.0133601,12.5231199 12.0631662,12.5329406 12.1229345,12.5263933 C12.1827027,12.5198461 12.2457905,12.5165726 12.3121997,12.5165726 L13.0294152,12.5165726 L13.0294152,12.496931 L13.0493379,12.496931 C13.036056,12.4183645 13.036056,12.3365255 13.0493379,12.2514118 C13.0626197,12.166298 13.0825421,12.0910062 13.1091058,12.025534 L13.1091058,11.9273263 C13.1356695,11.8487598 13.1522715,11.7669208 13.1589124,11.681807 C13.1655534,11.5966933 13.1821554,11.5214014 13.2087191,11.4559293 C13.2220009,11.3904572 13.2319621,11.3282596 13.2386031,11.2693347 C13.245244,11.2104097 13.2552052,11.1482122 13.268487,11.08274 C13.3083325,10.9387013 13.3382162,10.7815706 13.358139,10.611343 C13.3780617,10.4411155 13.4079454,10.2839847 13.4477909,10.139946 C13.4477909,10.1006627 13.4511113,10.0581065 13.4577522,10.012276 C13.4643932,9.9664455 13.4677136,9.92388925 13.4677136,9.88460597 C13.5208409,9.67509514 13.5241613,9.46886102 13.4776749,9.2658974 C13.4311885,9.06293379 13.3614599,8.90252947 13.268487,8.78467963 C13.1223869,8.58826323 12.8999195,8.45732093 12.6010782,8.39184879 C12.3022369,8.32637666 11.9801572,8.29364108 11.6348295,8.29364108 L11.6348295,8.29364108 Z M14.9818352,10.8077584 L17.4920895,10.8077584 L17.4920895,10.7684754 C17.531935,10.7160976 17.5518575,10.6408058 17.5518575,10.5425976 C17.5518575,10.4443894 17.5651391,10.3625505 17.5917028,10.2970783 C17.6713938,9.98281211 17.6747142,9.6980126 17.6016641,9.44267128 C17.528614,9.18732996 17.4256813,8.9680016 17.292863,8.78467963 C17.2662993,8.75849077 17.2463769,8.74212299 17.233095,8.73557577 C17.2198132,8.72902856 17.1998907,8.71266077 17.1733271,8.68647192 C17.1201997,8.66028307 17.073714,8.62754749 17.0338685,8.58826421 C16.994023,8.54898093 16.9541781,8.51624535 16.9143326,8.4900565 C16.8346416,8.45077322 16.7317089,8.41149053 16.6055315,8.37220725 C16.479354,8.33292397 16.3465377,8.30673551 16.2070784,8.29364108 C16.0676191,8.28054666 15.9248415,8.27399954 15.7787413,8.27399954 C15.6326412,8.27399954 15.5064656,8.29364089 15.4002109,8.33292417 C14.829092,8.52934057 14.3974389,8.84360209 14.1052385,9.27571817 C14.0388293,9.38047359 13.9757415,9.51141589 13.9159733,9.66854901 C13.856205,9.82568213 13.8063989,9.99590712 13.7665534,10.1792291 C13.7267079,10.3625511 13.703465,10.5491439 13.6968241,10.739013 C13.6901832,10.9288822 13.713426,11.1089279 13.7665534,11.2791554 C13.8196807,11.4231941 13.8728073,11.5541364 13.9259346,11.6719863 C13.9790619,11.7898361 14.0454701,11.9011371 14.1251611,12.0058925 C14.2314158,12.1237423 14.3741934,12.2252226 14.5534982,12.3103364 C14.7328029,12.3954502 14.9087846,12.4641949 15.0814485,12.5165726 C15.1611395,12.5427614 15.2341885,12.5525821 15.3005977,12.5460349 C15.3670068,12.5394877 15.4400558,12.5493083 15.5197469,12.5754972 C15.6924107,12.6147805 15.9148781,12.6213276 16.1871557,12.5951387 C16.4594334,12.5689499 16.6619783,12.5362143 16.7947967,12.496931 C16.8612058,12.4838366 16.927614,12.4772895 16.9940232,12.4772895 C17.0604324,12.4772895 17.1201997,12.4576481 17.1733271,12.4183649 C17.1998907,12.3790816 17.2131724,12.3332518 17.2131724,12.2808741 C17.2131724,12.2284964 17.2198132,12.1695723 17.233095,12.1041002 C17.2596587,11.9862504 17.286222,11.8684023 17.3127856,11.7505524 C17.3393493,11.6327026 17.3659126,11.5148545 17.3924763,11.3970047 L17.3526309,11.3970047 C17.2862218,11.4624768 17.2032115,11.5017595 17.1035978,11.5148539 C17.003984,11.5279484 16.9076922,11.5475897 16.8147193,11.5737786 C16.6951828,11.6130618 16.5490848,11.6392503 16.3764209,11.6523447 C16.2037571,11.6654392 16.0310958,11.6621656 15.858432,11.642524 C15.6857681,11.6228823 15.5297089,11.5901467 15.3902496,11.5443163 C15.2507903,11.4984858 15.1544985,11.4362882 15.1013711,11.3577216 C15.0083983,11.2267773 14.9685534,11.0434581 14.9818352,10.8077584 L14.9818352,10.8077584 Z M17.7311614,11.5148539 C17.7045977,11.6850815 17.6713936,11.8422122 17.6315481,11.9862509 C17.5917026,12.1302896 17.5651393,12.2939675 17.5518575,12.4772895 C17.6448303,12.4772895 17.7444426,12.4838366 17.8506973,12.496931 C17.956952,12.5100255 18.0565642,12.5296668 18.1495371,12.5558557 C18.2557918,12.5558557 18.3520836,12.5591292 18.4384155,12.5656764 C18.5247475,12.5722236 18.6143985,12.5754972 18.7073714,12.5754972 C18.8003442,12.6016861 18.9099177,12.6115067 19.0360951,12.6049595 C19.1622726,12.5984123 19.2652053,12.5820445 19.3448963,12.5558557 C19.3980236,12.5558557 19.4445093,12.5525821 19.4843548,12.5460349 C19.5242003,12.5394877 19.5706861,12.5362141 19.6238134,12.5362141 C19.7699136,12.4969308 19.9126912,12.4543746 20.0521505,12.4085441 C20.1916097,12.3627136 20.3211057,12.300516 20.4406422,12.2219494 C20.533615,12.1564773 20.6133049,12.0648177 20.679714,11.9469679 C20.7461232,11.829118 20.7926089,11.7112699 20.8191726,11.5934201 C20.8324544,11.5541368 20.8390953,11.4821186 20.8390953,11.3773631 C20.8656589,11.2857022 20.8756202,11.1842219 20.8689792,11.0729192 C20.8623383,10.9616166 20.8457363,10.8666835 20.8191726,10.7881169 C20.7527634,10.6178893 20.6498308,10.4738528 20.5103715,10.356003 C20.3709122,10.2381531 20.2214938,10.1464935 20.0621118,10.0810214 C19.9691389,10.0417381 19.8429634,9.99918186 19.6835814,9.95335137 C19.5241994,9.90752087 19.4312279,9.83222905 19.4046642,9.72747364 C19.3648187,9.68819036 19.3515371,9.63908699 19.3648189,9.58016207 C19.3781008,9.52123715 19.3913824,9.47213379 19.4046642,9.43285051 C19.4312279,9.40666165 19.4611116,9.38374675 19.4943162,9.36410511 C19.5275208,9.34446347 19.5640453,9.32809568 19.6038908,9.31500126 C19.7632728,9.26262355 19.9790994,9.24952932 20.251377,9.27571817 C20.5236546,9.30190703 20.746122,9.32154837 20.9187859,9.3346428 C20.9453495,9.17750968 20.9719128,9.01710536 20.9984765,8.85342502 C21.0250402,8.68974469 21.0516034,8.52934037 21.0781671,8.37220725 C20.9851943,8.35911282 20.885582,8.35256571 20.7793273,8.35256571 C20.6730726,8.35256571 20.5734604,8.33947148 20.4804875,8.31328262 C20.440642,8.3001882 20.3908359,8.29691464 20.3310676,8.30346185 C20.2712993,8.31000907 20.228134,8.30673551 20.2015704,8.29364108 C20.1085975,8.26745223 19.9890628,8.26090511 19.8429626,8.27399954 C19.6968624,8.28709397 19.5906093,8.3001882 19.5242001,8.31328262 C19.457791,8.32637705 19.401344,8.33619772 19.3548576,8.34274494 C19.3083712,8.34929215 19.258565,8.35256571 19.2054377,8.35256571 C18.9663647,8.41803784 18.7704605,8.49987678 18.6177194,8.59808498 C18.4649783,8.69629318 18.3288416,8.83705616 18.209305,9.02037813 C18.1428959,9.12513354 18.0864489,9.26589652 18.0399625,9.44267128 C17.9934761,9.61944604 17.9967965,9.78639747 18.0499238,9.94353059 C18.116333,10.1661358 18.2292269,10.3461815 18.3886089,10.483673 C18.5479909,10.6211645 18.7206522,10.7291919 18.9065979,10.8077584 C18.9995707,10.8470417 19.1257463,10.8928715 19.2851283,10.9452492 C19.4445103,10.9976269 19.5374818,11.0696452 19.5640455,11.1613062 C19.603891,11.2136839 19.6138522,11.2824286 19.5939294,11.3675424 C19.5740067,11.4526561 19.5507638,11.5083066 19.5242001,11.5344955 C19.4976365,11.5606843 19.4710732,11.5737786 19.4445095,11.5737786 C19.4179459,11.5737786 19.3913826,11.5803257 19.3648189,11.5934201 C19.3116916,11.619609 19.2320018,11.6392503 19.1257471,11.6523447 C19.0194924,11.6654392 18.9065985,11.6719863 18.787062,11.6719863 C18.6675255,11.6719863 18.5513111,11.6687127 18.4384155,11.6621655 C18.3255199,11.6556183 18.2358689,11.6392505 18.1694597,11.6130616 C18.1030506,11.5868728 18.033322,11.5672314 17.9602719,11.554137 C17.8872218,11.5410426 17.8108524,11.5279484 17.7311614,11.5148539 L17.7311614,11.5148539 Z M25.3814602,8.39184879 L24.2259463,8.39184879 C24.2259463,8.49660421 24.2126647,8.60135805 24.186101,8.70611346 C24.1595373,8.81086887 24.1329741,8.91562272 24.1064104,9.02037813 L24.1064104,9.11858584 C24.0798467,9.1971524 24.0599243,9.28553845 24.0466424,9.38374665 C24.0333606,9.48195485 24.0134381,9.57034091 23.9868745,9.64890747 C23.9603108,9.72747403 23.9470292,9.80603941 23.9470292,9.88460597 C23.9470292,9.96317253 23.9337475,10.0417379 23.9071839,10.1203045 C23.8407747,10.3429097 23.7976094,10.5687852 23.7776866,10.7979377 C23.7577639,11.0270901 23.7145985,11.2529656 23.6481894,11.4755709 C23.6083439,11.6065151 23.5817806,11.7341839 23.5684988,11.8585809 C23.5552169,11.982978 23.5352945,12.1040996 23.5087308,12.2219494 C23.495449,12.2481383 23.4821673,12.3005152 23.4688855,12.3790818 C23.4556037,12.4576483 23.4556037,12.496931 23.4688855,12.496931 C23.4954492,12.5231199 23.5452553,12.5329406 23.6183054,12.5263933 C23.6913555,12.5198461 23.7544432,12.5165726 23.8075706,12.5165726 L24.7240126,12.5165726 C24.7372945,12.4118172 24.7538965,12.3103369 24.7738193,12.2121287 C24.793742,12.1139205 24.8169849,12.0189873 24.8435486,11.9273263 C24.8701122,11.8487598 24.8833939,11.7734679 24.8833939,11.7014486 C24.8833939,11.6294292 24.8966755,11.5541374 24.9232392,11.4755709 C24.9763665,11.3053433 25.0195318,11.1285712 25.0527364,10.9452492 C25.085941,10.7619273 25.1291063,10.5851551 25.1822337,10.4149276 C25.2486428,10.2708889 25.3050898,10.1235788 25.3515762,9.97299291 C25.3980626,9.822407 25.4877137,9.70783249 25.620532,9.62926593 C25.7135049,9.56379379 25.819758,9.53760533 25.9392945,9.55069976 C26.058831,9.56379419 26.1783657,9.57688842 26.2979022,9.58998284 C26.3111841,9.52451071 26.3277861,9.46886023 26.3477089,9.42302974 C26.3676316,9.37719924 26.3908745,9.32809588 26.4174382,9.27571817 C26.4572837,9.17096276 26.4904878,9.07602959 26.5170514,8.99091582 C26.5436151,8.90580204 26.5768192,8.81086887 26.6166647,8.70611346 C26.6432284,8.67992461 26.673112,8.6340948 26.7063166,8.56862267 C26.7395212,8.50315054 26.7428416,8.45732073 26.716278,8.43113188 C26.6764325,8.37875417 26.600063,8.34601859 26.4871674,8.33292417 C26.3742718,8.31982974 26.2846208,8.32637686 26.2182116,8.35256571 C26.191648,8.35256571 26.1617643,8.35583927 26.1285597,8.36238648 C26.0953551,8.36893369 26.0654714,8.37220725 26.0389078,8.37220725 C25.9459349,8.3983961 25.8596043,8.43767879 25.7799133,8.4900565 C25.7002222,8.54243421 25.6271732,8.60135824 25.5607641,8.66683038 C25.5076367,8.70611366 25.4644714,8.75849058 25.4312668,8.82396271 C25.3980622,8.88943485 25.3482561,8.94181177 25.2818469,8.98109505 L25.2818469,8.88288734 C25.3084106,8.84360406 25.3283331,8.76503868 25.3416149,8.64718884 C25.3548967,8.529339 25.3681784,8.4442265 25.3814602,8.39184879 L25.3814602,8.39184879 Z M16.4959569,9.96317214 L15.1013711,9.96317214 L15.1013711,9.94353059 C15.1279348,9.90424731 15.1412164,9.86496462 15.1412164,9.82568134 C15.1412164,9.78639806 15.1544981,9.74711537 15.1810617,9.70783209 C15.2474709,9.55069897 15.3603648,9.42630379 15.5197469,9.3346428 C15.6260015,9.26917067 15.7787403,9.23643509 15.9779679,9.23643509 C16.1771954,9.23643509 16.3166526,9.28881201 16.3963436,9.39356742 C16.4494709,9.45903956 16.4793546,9.5408785 16.4859955,9.6390867 C16.4926365,9.7372949 16.4959569,9.8453223 16.4959569,9.96317214 L16.4959569,9.96317214 Z M28.5491621,9.27571817 C28.7882351,9.27571817 28.9642168,9.31500086 29.0771124,9.39356742 C29.190008,9.47213398 29.2730182,9.60307629 29.3261455,9.78639826 C29.3394274,9.82568154 29.3460682,9.88460558 29.3460682,9.96317214 C29.3726319,10.0941164 29.3726319,10.2119645 29.3460682,10.3167199 C29.3327863,10.382192 29.3294659,10.4411161 29.3361069,10.4934938 C29.3427478,10.5458715 29.3327865,10.6047955 29.3062229,10.6702676 C29.2530955,10.8535896 29.1866874,11.0008997 29.1069963,11.1122023 C29.0273053,11.223505 28.9210522,11.3315324 28.7882339,11.4362878 C28.7218247,11.4755711 28.6421349,11.5214009 28.5491621,11.5737786 C28.4561892,11.6261563 28.3499361,11.6392505 28.2303996,11.6130616 C28.0178902,11.5606839 27.8651514,11.4526565 27.7721786,11.2889762 C27.6792057,11.1252959 27.63272,10.9387031 27.63272,10.7291923 C27.63272,10.5196814 27.6659241,10.3134473 27.7323333,10.1104837 C27.7987424,9.90752009 27.8850731,9.74056865 27.9913278,9.60962438 C28.0843006,9.49177454 28.2104762,9.40011493 28.3698582,9.3346428 C28.3964218,9.30845395 28.4263055,9.29863327 28.4595101,9.30518049 C28.4927147,9.3117277 28.5225984,9.30190703 28.5491621,9.27571817 L28.5491621,9.27571817 Z M12.0930505,10.6702676 C12.1063323,10.8928729 12.0565262,11.0958335 11.9436306,11.2791554 C11.830735,11.4624774 11.6945982,11.5868726 11.5352162,11.6523447 C11.4156797,11.7047224 11.2795429,11.7210902 11.1268018,11.7014486 C10.9740607,11.6818069 10.8644872,11.6261565 10.798078,11.5344955 C10.7582325,11.4690233 10.7449509,11.3839109 10.7582327,11.2791554 C10.7715146,11.1744 10.791437,11.0892875 10.8180007,11.0238154 C10.9242554,10.8404934 11.0969166,10.7357396 11.3359897,10.7095507 C11.5750627,10.6833619 11.8274138,10.6702676 12.0930505,10.6702676 L12.0930505,10.6702676 Z" id="Icon/Maestro/Black"></path>
                            </g>
                        </g>
                    </g>
                </g>
            </g>
        </g>
    </g>
</svg>