<?xml version="1.0" encoding="UTF-8"?>
<svg width="34px" height="20px" viewBox="0 0 34 20" version="1.1" xmlns="http://www.w3.org/2000/svg" xmlns:xlink="http://www.w3.org/1999/xlink">
    <!-- Generator: Sketch 41.2 (35397) - http://www.bohemiancoding.com/sketch -->
    <title>mastercard--s.colors-black-white-grey</title>
    <desc>Created with Sketch.</desc>
    <defs></defs>
    <g id="01-Style-Tile" stroke="none" stroke-width="1" fill="none" fill-rule="evenodd">
        <g id="Style-Tile" transform="translate(-316.000000, -1843.000000)" fill="#000000">
            <g id="Icons" transform="translate(100.000000, 660.000000)">
                <g id="Iconset" transform="translate(0.000000, 30.000000)">
                    <g id="Icons" transform="translate(61.000000, 67.000000)">
                        <g id="Payment-Methods" transform="translate(0.000000, 1086.000000)">
                            <g id="Icon/Payment/MasterCard/Black" transform="translate(155.000000, 0.000000)">
                                <path d="M9.74674407,0.00260641173 C10.4366651,-0.0104255163 11.0801395,0.0254117482 11.6771865,0.11011928 C12.2742335,0.194826813 12.8182015,0.328402071 13.3091069,0.510849064 C13.3887131,0.53691292 13.4650013,0.556460519 13.5379738,0.569492447 C13.6109462,0.582524375 13.6806006,0.602071974 13.7469392,0.62813583 C13.8265454,0.667231614 13.9127843,0.709584745 14.0056583,0.755196493 C14.0985322,0.800808241 14.1847711,0.836645506 14.2643773,0.862709362 L14.3240818,0.862709362 C14.3638849,0.888773218 14.4070043,0.914836683 14.4534413,0.940900539 C14.4998783,0.966964395 14.5363639,0.99302786 14.5628994,1.01909172 L14.6425052,1.01909172 C14.6955761,1.04515557 14.7453293,1.07121904 14.7917663,1.09728289 C14.8382032,1.12334675 14.8813227,1.14941021 14.9211258,1.17547407 C14.9609289,1.20153793 15.0040484,1.22108553 15.0504853,1.23411745 C15.0969223,1.24714938 15.1466755,1.26669698 15.1997464,1.29276084 C15.398762,1.42308012 15.5977747,1.55013951 15.7967904,1.67394283 C15.9958061,1.79774614 16.188185,1.92480553 16.373933,2.05512482 C16.3872007,2.08118867 16.3971513,2.09747834 16.4037852,2.1039943 C16.410419,2.11051027 16.4203697,2.12679993 16.4336374,2.15286379 C16.4867082,2.19195957 16.5364614,2.2245389 16.5828984,2.25060276 C16.6293354,2.27666661 16.6790886,2.30924595 16.7321594,2.34834173 C16.7852303,2.38743751 16.8316665,2.42979064 16.8714697,2.47540239 C16.9112728,2.52101414 16.9643429,2.55685141 17.0306814,2.58291526 C17.0572169,2.54381948 17.0837519,2.53078775 17.1102873,2.54381967 L17.1102873,2.50472408 L17.0903858,2.48517629 L17.1500902,2.48517629 C17.1766257,2.45911243 17.1965269,2.43304897 17.2097946,2.40698511 C17.2230624,2.38092126 17.2495974,2.37440539 17.2894005,2.38743732 L17.2894005,2.36788952 L17.269499,2.34834173 L17.309302,2.34834173 C17.3358374,2.32227787 17.3524218,2.29947234 17.3590557,2.27992445 C17.3656895,2.26037656 17.3889077,2.25711862 17.4287108,2.27015055 L17.4287108,2.25060276 L17.4088093,2.23105496 C17.4751479,2.17892725 17.5348517,2.13657412 17.5879225,2.1039943 C17.6409934,2.07141448 17.7006972,2.03557722 17.7670358,1.99648143 C17.8068389,1.97041758 17.8798102,1.91177478 17.9859519,1.82055128 C18.0920936,1.72932779 18.1584312,1.69674846 18.1849666,1.72281231 L18.1849666,1.68371672 C18.1849666,1.6706848 18.2115016,1.64787926 18.2645725,1.61529944 C18.3176433,1.58271962 18.3508121,1.56642996 18.3640798,1.56642996 C18.3773475,1.55339803 18.390615,1.54688216 18.4038827,1.54688216 C18.4171504,1.54688216 18.430418,1.5403663 18.4436857,1.52733437 C18.4702211,1.51430244 18.5033899,1.48823898 18.543193,1.44914319 C18.5829961,1.42307934 18.6261156,1.4002738 18.6725526,1.38072591 C18.7189895,1.36117802 18.7687427,1.33837249 18.8218136,1.31230863 C19.1269709,1.12986164 19.4487081,0.970222915 19.7870348,0.83338767 C20.1253614,0.696552426 20.4736336,0.562977167 20.8318619,0.432657887 C20.9512713,0.393562103 21.0739958,0.360982771 21.200039,0.334918915 C21.3260823,0.308855059 21.442173,0.282791594 21.5483147,0.256727738 L21.6677235,0.256727738 C21.7738652,0.230663882 21.8833222,0.204600417 21.9960977,0.178536561 C22.1088733,0.152472705 22.2183303,0.126409239 22.324472,0.100345383 L22.5334374,0.100345383 C22.6064098,0.100345383 22.6760642,0.093829517 22.7424028,0.080797589 C22.8087414,0.067765661 22.9082477,0.0547339284 23.0409248,0.0417020004 C23.1736019,0.0286700723 23.3129108,0.0188962729 23.4588557,0.0123803089 C23.6048005,0.00586434487 23.7474262,0.00586434487 23.8867372,0.0123803089 C24.0260482,0.0188962729 24.1288714,0.0286700723 24.19521,0.0417020004 C24.2615485,0.0547339284 24.3345199,0.0579918615 24.4141261,0.0514758975 C24.4937324,0.0449599335 24.56007,0.0482178666 24.6131408,0.0612497947 L24.8718599,0.0612497947 C25.0576079,0.113377507 25.2566206,0.142698905 25.4689039,0.149214869 C25.6811873,0.155730833 25.8802,0.191568098 26.065948,0.256727738 C26.3578376,0.334919306 26.6430892,0.413109701 26.9217111,0.49130127 C27.2003331,0.569492838 27.4723171,0.660714966 27.7376713,0.76497039 C28.1755058,0.960449311 28.5934325,1.17873083 28.9914638,1.4198215 C29.3894952,1.66091217 29.7543518,1.89874129 30.0860446,2.13331599 C30.0993123,2.15937985 30.1125798,2.17566951 30.1258475,2.18218548 C30.1391152,2.18870144 30.1523827,2.20499111 30.1656504,2.23105496 L30.2054534,2.23105496 C30.2452565,2.27015075 30.2717915,2.30273008 30.2850592,2.32879394 L30.3248622,2.32879394 C30.3248622,2.34182586 30.3182284,2.3548576 30.3049607,2.36788952 C30.3182284,2.36788952 30.3281791,2.36463159 30.3348129,2.35811563 C30.3414468,2.35159966 30.3513974,2.34834173 30.3646651,2.34834173 C30.3912005,2.37440559 30.4144187,2.40698492 30.4343203,2.4460807 C30.4542218,2.48517649 30.47744,2.51775582 30.5039754,2.54381967 L30.5437783,2.50472408 L30.6631871,2.62201085 C30.6897226,2.67413856 30.7029901,2.70020203 30.7029901,2.70020203 L30.7626945,2.70020203 C30.7626945,2.71323396 30.7593776,2.72300776 30.7527437,2.72952372 C30.7461099,2.73603968 30.742793,2.74581348 30.742793,2.75884541 L30.7825959,2.797941 C30.7958637,2.797941 30.8058143,2.79468307 30.8124481,2.7881671 C30.819082,2.78165114 30.8290326,2.77839321 30.8423004,2.77839321 C30.8688358,2.80445706 30.9285396,2.86309986 31.0214136,2.95432335 C31.1142875,3.04554685 31.1540901,3.10418965 31.1408224,3.1302535 C31.1673578,3.15631736 31.1972097,3.17912289 31.230379,3.19867078 C31.2635483,3.21821867 31.2934002,3.24102421 31.3199356,3.26708806 C31.346471,3.29315192 31.3763229,3.32247332 31.4094922,3.35505314 C31.4426615,3.38763296 31.4459784,3.41695436 31.4194429,3.44301821 L31.4791473,3.44301821 C31.492415,3.45605014 31.5156332,3.48211361 31.5488025,3.52120939 C31.5819718,3.56030517 31.5852886,3.58636864 31.5587532,3.59940057 C31.5852886,3.59940057 31.6051899,3.5928847 31.6184576,3.57985277 L31.6184576,3.63849616 C31.644993,3.65152808 31.6615774,3.66130188 31.6682113,3.66781785 C31.6748451,3.67433381 31.6914295,3.68410761 31.717965,3.69713954 L31.717965,3.75578292 C31.7312327,3.76881485 31.7644014,3.78836245 31.8174723,3.8144263 C31.83074,3.84049016 31.8406906,3.86655363 31.8473245,3.89261748 C31.8539584,3.91868134 31.863909,3.9447448 31.8771767,3.97080866 C31.9302475,3.99687251 31.9634163,4.01642011 31.976684,4.02945204 C32.4675894,4.7071123 32.8788823,5.42385759 33.2105751,6.17970942 C33.2238428,6.20577327 33.2304765,6.2285788 33.2304765,6.2481267 C33.2304765,6.26767459 33.2371103,6.29048012 33.250378,6.31654398 C33.2901811,6.4207994 33.3333006,6.52831119 33.3797375,6.63908258 C33.4261745,6.74985397 33.469294,6.85736576 33.5090971,6.96162119 C33.5356325,7.0137489 33.5455831,7.05610203 33.5389493,7.08868185 C33.5323154,7.12126167 33.5356323,7.17013067 33.5489,7.23529031 C33.5887032,7.33954573 33.6285057,7.46008926 33.6683088,7.5969245 C33.708112,7.73375975 33.7412808,7.85430328 33.7678162,7.9585587 L33.7678162,8.11494105 C33.8076193,8.23222841 33.8341543,8.3592878 33.847422,8.49612304 C33.8606898,8.63295829 33.8872248,8.76653355 33.9270279,8.89685283 L33.9270279,9.19006974 C33.9270279,9.28129324 33.9336617,9.37903123 33.9469294,9.48328666 C33.9601971,9.56147822 33.9734646,9.66247415 33.9867323,9.78627747 C34,9.91008078 34.0033169,10.0371402 33.9966831,10.1674595 C33.9900492,10.2977787 33.9800986,10.4248381 33.9668309,10.5486414 C33.9535631,10.6724448 33.9402956,10.7669248 33.9270279,10.8320845 L33.9270279,11.1057536 C33.8872248,11.2491048 33.8640066,11.3989697 33.8573728,11.5553529 C33.8507389,11.711736 33.820887,11.8616009 33.7678162,12.0049521 C33.6484068,12.4480377 33.5256823,12.8846007 33.399639,13.3146543 C33.2735958,13.744708 33.0978012,14.1291441 32.8722501,14.4679742 C32.8457147,14.5331338 32.8191797,14.5950346 32.7926442,14.6536783 C32.7661088,14.7123219 32.7395738,14.7742227 32.7130384,14.8393823 C32.6997706,14.8524142 32.68982,14.8589301 32.6831862,14.8589301 C32.6765523,14.8589301 32.6666017,14.865446 32.653334,14.8784779 C32.6400662,14.9045417 32.6334325,14.9273473 32.6334325,14.9468952 C32.6334325,14.9664431 32.6267987,14.9892486 32.613531,15.0153124 C32.5737279,15.0804721 32.5306085,15.1391149 32.4841715,15.1912426 C32.4377345,15.2433703 32.4012488,15.2954972 32.3747134,15.347625 C32.3614457,15.3736888 32.3548119,15.3899785 32.3548119,15.3964944 C32.3548119,15.4030104 32.3481782,15.4193001 32.3349105,15.4453639 C32.2951073,15.4844597 32.2685723,15.517039 32.2553046,15.5431029 C32.2287692,15.5691668 32.2188185,15.5887144 32.2254524,15.6017463 C32.2320862,15.6147782 32.2221356,15.6343258 32.1956002,15.6603897 C32.1690648,15.6994854 32.1193116,15.7581282 32.0463392,15.8363198 C31.9733668,15.9145114 31.9435149,15.9666383 31.9567826,15.9927022 C31.8373732,16.1230214 31.7345499,16.2370491 31.6483098,16.3347886 C31.5620697,16.432528 31.4791477,16.5400398 31.3995415,16.6573272 C31.3332029,16.7094549 31.276816,16.7615818 31.230379,16.8137095 C31.183942,16.8658372 31.1275551,16.9179642 31.0612165,16.9700919 L31.0612165,17.0091875 C31.0346811,17.0352513 31.0048292,17.0547989 30.9716599,17.0678309 C30.9384906,17.0808628 30.9086387,17.1004104 30.8821033,17.1264742 C30.802497,17.2307297 30.7295257,17.3154359 30.6631871,17.3805956 C30.6499194,17.3936275 30.633335,17.4099172 30.6134335,17.429465 C30.5935319,17.4490129 30.5703138,17.445755 30.5437783,17.4196911 C30.5703138,17.445755 30.5835813,17.4587867 30.5835813,17.4587867 C30.4376364,17.5630422 30.3348132,17.6412326 30.2751085,17.6933603 C30.2154038,17.745488 30.1125806,17.8236784 29.9666358,17.9279338 C29.9401003,17.9539977 29.8969809,17.9930929 29.8372762,18.0452206 C29.7775715,18.0973483 29.7344521,18.11038 29.7079167,18.0843162 L29.7079167,18.1429595 C29.6548458,18.1950873 29.5818745,18.2439562 29.4890005,18.289568 C29.3961265,18.3351797 29.3165215,18.3775329 29.2501829,18.4166287 C29.2236475,18.4426925 29.1904787,18.4720139 29.1506756,18.5045937 C29.1108724,18.5371736 29.0777036,18.5404315 29.0511682,18.5143676 L29.0511682,18.5534632 C28.9980974,18.6055909 28.9417104,18.6414282 28.8820057,18.6609761 C28.822301,18.680524 28.7659141,18.7033295 28.7128433,18.7293934 C28.5668984,18.8075849 28.4209558,18.8857753 28.275011,18.9639669 C28.1290661,19.0421585 27.9831235,19.113833 27.8371787,19.1789926 C27.6116276,19.2832481 27.3794461,19.3679543 27.1406273,19.433114 C26.9018085,19.4982736 26.6629932,19.5699481 26.4241744,19.6481397 C26.304765,19.7002674 26.1787236,19.7328467 26.0460465,19.7458787 C25.9133694,19.7589106 25.787328,19.7849741 25.6679186,19.8240699 C25.6015801,19.8371018 25.5286087,19.8468756 25.4490025,19.8533915 C25.3693962,19.8599075 25.2897911,19.8631654 25.2101849,19.8631654 C25.0377046,19.9152932 24.8552763,19.9446146 24.6628945,19.9511305 C24.4705127,19.9576465 24.2681831,19.9609044 24.0558997,19.9609044 C23.9895611,19.9609044 23.9331742,19.9641623 23.8867372,19.9706783 C23.8403002,19.9771943 23.7971808,19.9739363 23.7573777,19.9609044 L23.3792498,19.9609044 C23.233305,19.9609044 23.0939961,19.9576465 22.9613189,19.9511305 C22.8286418,19.9446146 22.7092342,19.9283249 22.6030925,19.902261 C22.5102185,19.8892291 22.4239797,19.8794553 22.3443734,19.8729393 C22.2647672,19.8664234 22.1785283,19.8566496 22.0856543,19.8436176 C21.8866387,19.778458 21.6809922,19.7328469 21.4687088,19.7067831 C21.2564254,19.6807192 21.050779,19.6351082 20.8517633,19.5699485 C20.3475903,19.4005335 19.8832273,19.2148313 19.4586605,19.0128364 C19.0340938,18.8108415 18.6228009,18.5795282 18.2247695,18.3188897 L18.1849666,18.3188897 C18.1584312,18.3058578 18.1418468,18.2895681 18.1352129,18.2700202 C18.1285791,18.2504723 18.1119947,18.2341826 18.0854592,18.2211507 L18.0456563,18.2211507 C18.0058532,18.1950869 17.9693675,18.1690234 17.9361982,18.1429595 C17.903029,18.1168957 17.873177,18.0908322 17.8466416,18.0647684 L17.8068387,18.0647684 C17.7803033,18.0517364 17.7670358,18.0321888 17.7670358,18.006125 C17.7670358,17.9800611 17.760402,17.9670294 17.7471343,17.9670294 C17.7471343,17.9539975 17.7405005,17.9572554 17.7272328,17.9768033 C17.7139651,17.9963512 17.6940638,17.9930932 17.6675284,17.9670294 C17.640993,17.9409655 17.6177748,17.91816 17.5978733,17.8986121 C17.5779717,17.8790642 17.5547536,17.8562587 17.5282181,17.8301948 L17.4884152,17.8301948 L17.4884152,17.7910992 L17.5083167,17.7910992 L17.5083167,17.7715514 C17.495049,17.7845834 17.4751477,17.7910992 17.4486123,17.7910992 C17.4353445,17.7910992 17.4287108,17.7780675 17.4287108,17.7520037 C17.4287108,17.7389717 17.422077,17.72594 17.4088093,17.7129081 C17.3822739,17.7129081 17.3690064,17.7194239 17.3690064,17.7324559 C17.342471,17.706392 17.3192528,17.6868444 17.2993512,17.6738125 C17.2794497,17.6607805 17.2562315,17.6412329 17.2296961,17.6151691 L17.2296961,17.5565257 C17.2296961,17.5565257 17.2164286,17.5695574 17.1898932,17.5956213 C17.1102869,17.5174297 17.0572169,17.4587869 17.0306814,17.4196911 C16.9908783,17.4327231 16.970977,17.4392389 16.970977,17.4392389 C16.9046385,17.4653028 16.8482515,17.5109139 16.8018145,17.5760735 C16.7553776,17.6412331 16.6989906,17.6933601 16.6326521,17.7324559 C16.4867072,17.8367113 16.3507152,17.9377072 16.224672,18.0354467 C16.0986287,18.1331861 15.9626367,18.2276662 15.8166919,18.3188897 C15.4053928,18.5795282 14.9708818,18.8108415 14.5131457,19.0128364 C14.0554096,19.2148313 13.5744623,19.4070493 13.0702893,19.5894963 L12.0553144,19.8240699 C12.0022435,19.8240699 11.9524904,19.8273278 11.9060534,19.8338437 C11.8596164,19.8403597 11.8098632,19.8436176 11.7567924,19.8436176 C11.5710444,19.8957454 11.3687148,19.9283247 11.1497976,19.9413566 C10.9308803,19.9543885 10.7086495,19.9609044 10.4830984,19.9609044 C10.4034921,19.9739363 10.323887,19.9804522 10.2442808,19.9804522 C10.1646745,19.9804522 10.0850694,19.9869681 10.0054632,20 C9.9391246,19.9739361 9.84625201,19.9609044 9.7268426,19.9609044 C9.6074332,19.9609044 9.50792685,19.9543885 9.42832058,19.9413566 L9.14970002,19.9413566 C9.04355833,19.9152928 8.92746759,19.8957452 8.80142433,19.8827132 C8.67538107,19.8696813 8.56592409,19.8501337 8.47305011,19.8240699 L8.31383836,19.8240699 C8.08828726,19.7589102 7.85610579,19.7002674 7.61728697,19.6481397 C7.37846816,19.596012 7.15292044,19.5308533 6.94063706,19.4526618 C6.88756621,19.4265979 6.83781304,19.4135662 6.79137604,19.4135662 C6.74493905,19.4135662 6.69518588,19.4005344 6.64211503,19.3744706 C6.17774512,19.1789917 5.73328344,18.9704839 5.30871666,18.7489412 C4.88414989,18.5273984 4.47949075,18.2797955 4.0947271,18.006125 C4.08145939,17.9930931 4.07150876,17.9800613 4.0648749,17.9670294 C4.05824105,17.9539975 4.04829041,17.9409657 4.0350227,17.9279338 C3.92888101,17.8497422 3.82605778,17.7715518 3.72654994,17.6933603 C3.6270421,17.6151687 3.52421888,17.5369783 3.41807719,17.4587867 C3.36500634,17.406659 3.31525317,17.3545321 3.26881617,17.3024044 C3.22237918,17.2502767 3.16599225,17.1916339 3.0996537,17.1264742 C2.92717344,17.0091869 2.76132953,16.8397744 2.60211699,16.6182316 C2.57558157,16.5921677 2.54572966,16.5661043 2.51256038,16.5400404 C2.4793911,16.5139765 2.4495392,16.4879131 2.42300378,16.4618492 C2.31686208,16.318498 2.21072198,16.1849228 2.10458029,16.0611194 C1.99843859,15.9373161 1.89229849,15.8037409 1.78615679,15.6603897 L1.78615679,15.6017463 C1.77288908,15.5756824 1.75298781,15.549619 1.72645239,15.5235551 C1.69991697,15.4974912 1.67338194,15.4714278 1.64684652,15.4453639 C1.64684652,15.4193001 1.64352964,15.4030104 1.63689578,15.3964944 C1.63026193,15.3899785 1.62694505,15.3736888 1.62694505,15.347625 C1.60040963,15.3215611 1.5738746,15.2922397 1.54733918,15.2596599 C1.52080375,15.2270801 1.50090248,15.1977587 1.48763477,15.1716948 C1.47436706,15.1586629 1.4677333,15.1456311 1.4677333,15.1325992 C1.4677333,15.1195673 1.46109955,15.1065356 1.44783184,15.0935036 C1.4080287,15.0153121 1.36159241,14.9371217 1.30852156,14.8589301 C1.25545071,14.7807385 1.20901442,14.7025481 1.16921128,14.6243566 C1.12940815,14.5591969 1.09623936,14.4940383 1.06970394,14.4288786 C1.04316852,14.363719 1.01663349,14.2985603 0.990098067,14.2334007 C0.976830355,14.2073368 0.960245965,14.1747575 0.940344397,14.1356617 C0.920442829,14.0965659 0.897224682,14.0639866 0.870689258,14.0379227 L0.870689258,13.9597316 C0.844153835,13.8945719 0.807668174,13.8196395 0.761231183,13.7349319 C0.714794192,13.6502244 0.678308532,13.5752919 0.651773108,13.5101323 C0.625237684,13.4580046 0.61528705,13.4123935 0.621920906,13.3732977 C0.628554762,13.3342019 0.618604127,13.2885909 0.592068704,13.2364632 L0.452758426,12.962794 C0.452758426,12.8846025 0.44612467,12.8194438 0.432856958,12.7673161 C0.393053823,12.6630607 0.356568162,12.5425172 0.323398883,12.4056819 C0.290229603,12.2688467 0.253743943,12.1483031 0.213940808,12.0440477 L0.213940808,11.8876654 C0.187405384,11.8094738 0.167504115,11.7182517 0.154236403,11.6139962 C0.140968692,11.5097408 0.121067422,11.4120028 0.0945319988,11.3207793 C0.081264287,11.19046 0.0746305306,11.0634006 0.0746305306,10.9395973 C0.0746305306,10.815794 0.0679967742,10.6887346 0.0547290624,10.5584153 C0.0281936388,10.4802238 0.0116092478,10.3759699 0.00497539192,10.2456506 C-0.00165846397,10.1153314 -0.00165846397,9.97849816 0.00497539192,9.83514695 C0.0116092478,9.69179575 0.0182430042,9.55496255 0.0248768601,9.42464327 C0.031510716,9.29432399 0.048095107,9.196586 0.0746305306,9.13142636 L0.0746305306,8.87730503 C0.114433666,8.73395382 0.137651813,8.58083097 0.144285669,8.41793187 C0.150919525,8.25503277 0.174137673,8.10190991 0.213940808,7.9585587 C0.280279367,7.76307978 0.339983174,7.55782999 0.393054022,7.34280318 C0.446124869,7.12777637 0.512462433,6.92904244 0.592068704,6.74659545 C0.592068704,6.70749967 0.605336216,6.63582514 0.63187164,6.53156971 C0.671674775,6.49247393 0.698209801,6.4598946 0.711477513,6.43383074 C0.711477513,6.38170303 0.718111269,6.33609197 0.731378981,6.29699618 C0.744646693,6.27093233 0.764547962,6.23509506 0.791083385,6.18948331 C0.817618809,6.14387157 0.837520078,6.1080343 0.85078779,6.08197044 L0.85078779,6.00377927 C0.864055502,5.97771541 0.883956771,5.94839401 0.910492195,5.91581419 C0.937027618,5.88323437 0.956928887,5.85391297 0.970196599,5.82784912 L0.970196599,5.74965794 C0.996732023,5.69753023 1.02658393,5.64866123 1.05975321,5.60304948 C1.09292249,5.55743774 1.12277439,5.50856874 1.14930981,5.45644103 C1.17584524,5.41734524 1.18911275,5.37825004 1.18911275,5.33915426 C1.18911275,5.30005848 1.20238026,5.26096328 1.22891569,5.22186749 C1.29525424,5.11761207 1.36490869,5.01661614 1.4378811,4.91887668 C1.51085352,4.82113722 1.58050796,4.7201413 1.64684652,4.61588587 C1.67338194,4.57679009 1.69328321,4.53443696 1.70655092,4.48882521 C1.71981863,4.44321346 1.7397199,4.40086033 1.76625533,4.36176454 C1.88566473,4.20538141 2.0117061,4.04900062 2.14438322,3.89261748 C2.27706034,3.73623434 2.40310171,3.57985355 2.52251112,3.42347042 C2.62865281,3.31921499 2.70825789,3.24754046 2.76132874,3.20844468 C2.96034441,2.96083805 3.21242716,2.71975099 3.51758453,2.48517629 C3.54411995,2.45911243 3.5673381,2.43304897 3.58723967,2.40698511 C3.60714123,2.38092126 3.63035938,2.35485779 3.6568948,2.32879394 C3.78957192,2.22453851 3.91561329,2.13331638 4.0350227,2.05512482 C4.15443211,1.97693325 4.28047348,1.89222699 4.4131506,1.80100349 C4.43968602,1.77493963 4.45295353,1.74887617 4.45295353,1.72281231 C4.78464633,1.50126954 5.13291854,1.30253561 5.49778061,1.12660459 C5.86264269,0.950673557 6.23744992,0.784518966 6.62221356,0.62813583 C6.67528441,0.602071974 6.72172071,0.589040241 6.76152384,0.589040241 C6.80132698,0.589040241 6.85439703,0.576008509 6.92073559,0.549944653 C7.18608982,0.445689228 7.47134135,0.367498833 7.77649872,0.315371121 C8.08165609,0.263243409 8.39344264,0.19156888 8.71186772,0.100345383 C8.81800942,0.0742815272 8.93078328,0.0645077278 9.05019268,0.0710236918 C9.16960209,0.0775396559 9.28237595,0.0677658564 9.38851764,0.0417020004 C9.4548562,0.0156381443 9.52119377,0.0123802112 9.58753233,0.0319281032 C9.65387088,0.0514759953 9.70694094,0.0417021958 9.74674407,0.00260641173 L9.74674407,0.00260641173 Z M23.7175747,7.66534178 C23.6512362,7.65230986 23.601483,7.63602019 23.5683137,7.6164723 C23.5351444,7.59692441 23.492025,7.58063474 23.4389542,7.56760281 C23.3328125,7.52850703 23.2299893,7.49918563 23.1304814,7.47963774 C23.0309736,7.46008985 22.9281504,7.43728431 22.8220087,7.41122046 C22.6760638,7.3851566 22.5002693,7.38841454 22.2946198,7.42099436 C22.0889702,7.45357418 21.9463445,7.48289557 21.8667382,7.50895943 C21.8269351,7.52199136 21.7539637,7.54153896 21.647822,7.56760281 C21.6212866,7.58063474 21.5881178,7.59692441 21.5483147,7.6164723 C21.5085116,7.63602019 21.4753428,7.65882572 21.4488074,7.68488958 C21.4355397,7.68488958 21.4222721,7.68814751 21.4090044,7.69466348 C21.3957367,7.70117944 21.3824692,7.70443737 21.3692015,7.70443737 C21.1569181,7.83475665 20.9545885,8.01720091 20.7622067,8.25177561 C20.5698249,8.48635032 20.4205654,8.71440564 20.3144237,8.93594842 C20.2348174,9.11839541 20.1717967,9.32690313 20.1253597,9.56147783 C20.0789227,9.79605254 20.0490708,10.0371396 20.0358031,10.2847462 C20.0225354,10.5323529 20.0358029,10.7766978 20.0756061,11.0177885 C20.1154092,11.2588792 20.175113,11.4706448 20.2547193,11.6530918 C20.3210578,11.796443 20.4106135,11.9397921 20.5233891,12.0831433 C20.6361646,12.2264945 20.7588891,12.3372642 20.8915663,12.4154558 C20.9313694,12.4415197 20.9678551,12.4545514 21.0010243,12.4545514 C21.0341936,12.4545514 21.0640455,12.4675831 21.0905809,12.493647 C21.2365258,12.5588066 21.4289047,12.6174494 21.6677235,12.6695771 C21.9065423,12.7217048 22.1387238,12.715189 22.3642749,12.6500293 C22.4704166,12.6239655 22.5666061,12.6076758 22.6528462,12.6011599 C22.7390863,12.5946439 22.8352758,12.5718384 22.9414175,12.5327426 C22.9679529,12.3502956 22.9944879,12.1613355 23.0210234,11.9658565 C23.0475588,11.7703776 23.0740938,11.5814175 23.1006292,11.3989705 L23.0807278,11.3989705 C23.0276569,11.4380663 22.9480518,11.4673877 22.8419101,11.4869356 C22.7357684,11.5064835 22.6428959,11.529289 22.5632896,11.5553529 C22.3112031,11.6465764 22.0591203,11.6400605 21.8070338,11.5358051 C21.7274275,11.5097412 21.6544562,11.4836777 21.5881176,11.4576139 C21.5217791,11.43155 21.468709,11.385939 21.4289059,11.3207793 C21.3360319,11.19046 21.2696944,11.0373372 21.2298912,10.8614062 C21.1900881,10.6854751 21.1701868,10.4997729 21.1701868,10.304294 C21.1701868,10.1088151 21.1900881,9.91985498 21.2298912,9.73740798 C21.2696944,9.55496099 21.3293982,9.39206433 21.4090044,9.24871312 C21.5151461,9.0532342 21.654455,8.88056375 21.8269353,8.73069658 C21.9994155,8.5808294 22.2382307,8.50589694 22.5433881,8.50589694 L22.8220087,8.50589694 C22.8883472,8.5319608 22.9712692,8.55802426 23.070777,8.58408812 C23.1702849,8.61015197 23.2532068,8.64273131 23.3195454,8.68182709 C23.3593485,8.70789095 23.3958342,8.73721234 23.4290035,8.76979216 C23.4621727,8.80237198 23.4986584,8.80562992 23.5384615,8.77956606 C23.5649969,8.74047028 23.5749476,8.69160128 23.5683137,8.6329576 C23.5616799,8.57431393 23.5716305,8.51892906 23.5981659,8.46680135 C23.6247014,8.33648207 23.6512364,8.20616475 23.6777718,8.07584547 C23.7043072,7.94552619 23.7175747,7.80869299 23.7175747,7.66534178 L23.7175747,7.66534178 Z M1.8458612,7.52850722 C1.69991637,8.38861448 1.55729061,9.23567709 1.41797963,10.0697205 C1.27866866,10.9037639 1.1360429,11.7443106 0.990098067,12.591386 L2.04487588,12.591386 C2.04487588,12.4480347 2.06477715,12.2851381 2.10458029,12.1026911 C2.14438342,11.9202441 2.1775522,11.7638633 2.20408763,11.633544 C2.21735534,11.5814163 2.2239891,11.5292894 2.2239891,11.4771617 L2.2239891,11.3207793 C2.29032765,11.0992365 2.33676395,10.8679233 2.36329937,10.6268326 C2.3898348,10.385742 2.43627109,10.1544287 2.50260965,9.93288593 L2.50260965,9.77650357 C2.52914507,9.67224815 2.55236322,9.55822049 2.57226479,9.43441717 C2.59216636,9.31061385 2.6153845,9.19658619 2.64191993,9.09233077 C2.66845535,9.02717113 2.67840599,8.9750442 2.67177213,8.93594842 C2.66513827,8.89685263 2.67508891,8.85775743 2.70162433,8.81866165 C2.71489204,9.4441942 2.72815956,10.0729753 2.74142727,10.7050238 C2.75469498,11.3370723 2.76796249,11.9658534 2.7812302,12.591386 L3.537486,12.591386 C3.55075371,12.5131944 3.57397185,12.4447778 3.60714113,12.3861341 C3.64031041,12.3274904 3.67016232,12.2655897 3.69669774,12.2004301 C3.69669774,12.1613343 3.70996525,12.0896598 3.73650068,11.9854043 C3.7630361,11.9202447 3.79620488,11.8453122 3.83600802,11.7606047 C3.87581115,11.6758972 3.90897994,11.6009647 3.93551536,11.5358051 C3.96205078,11.4836773 3.97200142,11.4380663 3.96536756,11.3989705 C3.95873371,11.3598747 3.96868434,11.3077478 3.99521976,11.2425881 C4.10136146,11.0210454 4.19423405,10.7832162 4.27384032,10.5290937 C4.35344659,10.2749711 4.44631918,10.0306261 4.55246087,9.79605137 C4.56572858,9.75695558 4.58562985,9.68528105 4.61216528,9.58102563 C4.6387007,9.51586599 4.67186948,9.44093353 4.71167262,9.35622599 C4.75147575,9.27151846 4.78464454,9.196586 4.81117996,9.13142636 C4.83771538,9.07929865 4.8509829,9.02717172 4.8509829,8.975044 C4.8509829,8.92291629 4.86425041,8.87730523 4.89078583,8.83820944 C4.90405354,8.98156065 4.89078603,9.13794144 4.8509829,9.30735651 C4.81117976,9.47677157 4.77801098,9.6266365 4.75147556,9.75695578 L4.75147556,9.91333813 C4.72494013,10.0306255 4.70172198,10.1544269 4.68182042,10.2847462 C4.66191885,10.4150655 4.6387007,10.538867 4.61216528,10.6561543 L4.61216528,10.8320845 C4.58562985,10.910276 4.56572858,11.0014982 4.55246087,11.1057536 C4.53919316,11.210009 4.51929189,11.307747 4.49275647,11.3989705 C4.47948876,11.4510982 4.472855,11.4999672 4.472855,11.545579 C4.472855,11.5911907 4.46622124,11.6465756 4.45295353,11.7117352 C4.42641811,11.8420545 4.39988308,11.9854035 4.37334766,12.1417867 C4.34681224,12.2981698 4.32691097,12.4480347 4.31364325,12.591386 L5.40822401,12.591386 L5.40822401,12.5327426 C5.43475943,12.4936468 5.44471006,12.4480357 5.43807621,12.395908 C5.43144235,12.3437803 5.43475923,12.2851375 5.44802694,12.2199779 C5.47456237,12.1157224 5.50109739,11.9984368 5.52763281,11.8681176 C5.55416824,11.7377983 5.58070326,11.6205127 5.60723869,11.5162573 C5.60723869,11.4641296 5.61055557,11.4152606 5.61718942,11.3696488 C5.62382328,11.3240371 5.62714016,11.2751681 5.62714016,11.2230404 C5.70674643,10.9624018 5.75981648,10.6789616 5.7863519,10.3727113 C5.81288732,10.066461 5.86595738,9.78302081 5.94556365,9.52238225 C5.95883136,9.44419068 5.96546511,9.36600028 5.96546511,9.28780871 C5.96546511,9.20961714 5.97209887,9.13142675 5.98536658,9.05323518 C6.01190201,8.97504361 6.03180328,8.88707942 6.04507099,8.78933996 C6.0583387,8.6916005 6.07823997,8.59712044 6.10477539,8.50589694 C6.1180431,8.45376923 6.12467686,8.40490023 6.12467686,8.35928848 C6.12467686,8.31367673 6.13131062,8.26480774 6.14457833,8.21268003 C6.17111375,8.1084246 6.1943319,7.99765487 6.21423347,7.88036752 C6.23413503,7.76308017 6.25071943,7.64579458 6.26398714,7.52850722 L4.55246087,7.52850722 C4.53919316,7.55457108 4.5325594,7.56760281 4.5325594,7.56760281 C4.51929169,7.64579438 4.49939042,7.71421098 4.472855,7.77285465 C4.44631958,7.83149833 4.41978455,7.89339906 4.39324913,7.9585587 C4.37998142,7.99765448 4.37334766,8.05629728 4.37334766,8.13448885 C4.36007995,8.1605527 4.34349556,8.19313204 4.32359399,8.23222782 C4.30369242,8.2713236 4.28710803,8.30390294 4.27384032,8.32996679 C4.24730489,8.39512643 4.2307205,8.45376923 4.22408665,8.50589694 C4.21745279,8.55802465 4.2008684,8.61666745 4.17433298,8.68182709 C4.10799442,8.85124215 4.04165685,9.02717054 3.9753183,9.20961754 C3.90897974,9.39206453 3.84264217,9.57450878 3.77630361,9.75695578 C3.77630361,9.82211542 3.76966986,9.86772648 3.75640215,9.89379034 C3.72986672,9.95894998 3.69669794,10.0371404 3.6568948,10.1283639 C3.61709167,10.2195874 3.58392289,10.2977778 3.55738746,10.3629374 C3.54411975,10.4150651 3.537486,10.4574182 3.537486,10.4899981 C3.537486,10.5225779 3.52421848,10.5518993 3.49768306,10.5779631 L3.49768306,10.5584153 C3.48441535,10.5453834 3.47446471,10.4997724 3.46783086,10.4215808 C3.461197,10.3433892 3.45788012,10.2619409 3.45788012,10.1772334 C3.45788012,10.0925258 3.461197,10.0045616 3.46783086,9.91333813 C3.47446471,9.82211464 3.47778159,9.75044011 3.47778159,9.69831239 L3.41807719,7.52850722 L1.8458612,7.52850722 Z M31.8572752,7.52850722 C31.8572752,7.69792229 31.8440077,7.87385068 31.8174723,8.05629767 C31.7909369,8.23874466 31.7577681,8.40164132 31.717965,8.54499253 C31.6914295,8.61015217 31.6814789,8.68508463 31.6881127,8.76979216 C31.6947466,8.8544997 31.6715285,8.90988456 31.6184576,8.93594842 C31.5919222,8.89685263 31.568704,8.86753123 31.5488025,8.84798334 C31.5289009,8.82843545 31.5056828,8.80562992 31.4791473,8.77956606 C31.3332025,8.63621485 31.1341898,8.52218719 30.8821033,8.43747966 C30.6300168,8.35277213 30.3646665,8.36906179 30.0860446,8.48634915 C29.8206903,8.59060457 29.5984595,8.76327503 29.4193454,9.0043657 C29.2402313,9.24545636 29.0976055,9.49631722 28.9914638,9.75695578 C28.9781961,9.82211542 28.9649286,9.88727408 28.9516609,9.95243372 C28.9383932,10.0175934 28.9184919,10.082752 28.8919565,10.1479117 C28.7460116,10.630093 28.736061,11.0894616 28.8621043,11.5260312 C28.9881475,11.9626008 29.2037446,12.2786203 29.508902,12.4740992 C29.601776,12.5262269 29.7145498,12.5750959 29.8472269,12.6207076 C29.9799041,12.6663194 30.1192129,12.6695773 30.2651578,12.6304815 L30.4243695,12.6304815 C30.5437789,12.5913858 30.6631865,12.5392588 30.7825959,12.4740992 C30.8091314,12.4610673 30.8290326,12.4545514 30.8423004,12.4545514 C30.8555681,12.4545514 30.8688356,12.4480355 30.8821033,12.4350036 C30.9351741,12.4089397 30.9782936,12.3731025 31.0114628,12.3274907 C31.0446321,12.281879 31.0877515,12.2460417 31.1408224,12.2199779 L31.1408224,12.3763602 C31.114287,12.4024241 31.1010194,12.4350034 31.1010194,12.4740992 L31.1010194,12.591386 L31.6284083,12.591386 C31.7942547,12.591386 31.9700493,12.5979018 32.1557973,12.6109337 C32.1557973,12.5327422 32.1657479,12.4512939 32.1856495,12.3665863 C32.205551,12.2818788 32.2287692,12.2069463 32.2553046,12.1417867 L32.2553046,11.9658565 C32.28184,11.874633 32.3017413,11.776895 32.315009,11.6726396 C32.3282767,11.5683842 32.348178,11.4771621 32.3747134,11.3989705 L32.3747134,11.2230404 C32.4012488,11.1187849 32.424467,10.9982414 32.4443685,10.8614062 C32.4642701,10.7245709 32.4874883,10.5975115 32.5140237,10.4802242 C32.5140237,10.4280965 32.5173406,10.3792275 32.5239744,10.3336157 C32.5306083,10.288004 32.5339251,10.239135 32.5339251,10.1870073 C32.586996,10.0045603 32.6234817,9.80908427 32.6433832,9.60057342 C32.6632848,9.39206257 32.6997705,9.19658659 32.7528413,9.01413959 C32.766109,8.96201188 32.7727428,8.90988495 32.7727428,8.85775724 L32.7727428,8.70137488 C32.7992782,8.63621524 32.8125457,8.56454071 32.8125457,8.48634915 C32.8125457,8.40815758 32.8258132,8.32996718 32.8523486,8.25177561 C32.8788841,8.14752019 32.9054191,8.03349253 32.9319545,7.90968921 C32.9584899,7.7858859 32.9717574,7.6588265 32.9717574,7.52850722 L31.8572752,7.52850722 Z M14.3041803,8.48634915 L13.7668406,8.48634915 C13.7933761,8.38209372 13.8132773,8.27783986 13.826545,8.17358444 C13.8398128,8.06932901 13.8530803,7.96507515 13.866348,7.86081973 L12.8115702,7.86081973 L12.8115702,7.91946311 C12.7584993,7.98462275 12.7352812,8.06281315 12.741915,8.15403664 C12.7485489,8.24526014 12.7385983,8.33648227 12.7120628,8.42770576 C12.658992,8.57105697 12.6225063,8.7306957 12.6026048,8.90662672 C12.5827032,9.08255775 12.5528513,9.24219648 12.5130481,9.38554768 C12.5130481,9.4376754 12.5097313,9.48654439 12.5030974,9.53215614 C12.4964636,9.57776789 12.4931467,9.62663689 12.4931467,9.6787646 C12.4666113,9.7699881 12.44671,9.86772609 12.4334423,9.97198151 C12.4201746,10.0762369 12.4002733,10.1804908 12.3737379,10.2847462 L12.3737379,10.4411286 C12.3472024,10.5323521 12.3273012,10.6300901 12.3140335,10.7343455 C12.3007658,10.8386009 12.2808645,10.929823 12.2543291,11.0080146 L12.2543291,11.2034926 C12.1879905,11.4120034 12.1647724,11.6335429 12.1846739,11.8681176 C12.2045755,12.1026923 12.2675962,12.2916524 12.3737379,12.4350036 C12.4400764,12.539259 12.532949,12.6044177 12.6523584,12.6304815 C12.7717678,12.6565454 12.9011261,12.6663192 13.0404371,12.6598032 C13.179748,12.6532873 13.3223738,12.6369976 13.4683186,12.6109337 C13.6142635,12.5848699 13.7403048,12.5588064 13.8464465,12.5327426 L13.8464465,12.3763602 C13.8597142,12.3633283 13.8729817,12.3209752 13.8862495,12.2492996 C13.8995172,12.1776239 13.9127847,12.1026915 13.9260524,12.0244999 C13.9393201,11.9463083 13.9492707,11.868118 13.9559046,11.7899264 C13.9625384,11.7117348 13.9658553,11.6596079 13.9658553,11.633544 L13.9260524,11.633544 C13.8597138,11.6856717 13.7701581,11.6987035 13.6573826,11.6726396 C13.544607,11.6465758 13.4550513,11.6270282 13.3887127,11.6139962 C13.375445,11.5879324 13.3654944,11.5716427 13.3588605,11.5651268 C13.3522267,11.5586108 13.3422761,11.5423211 13.3290083,11.5162573 C13.3024729,11.4771615 13.2925223,11.3989711 13.2991561,11.2816837 C13.30579,11.1643964 13.3157406,11.0731743 13.3290083,11.0080146 C13.3820792,10.8255676 13.4185649,10.6333496 13.4384664,10.4313547 C13.458368,10.2293598 13.4948536,10.0371417 13.5479245,9.85469475 C13.5744599,9.77650318 13.5877274,9.70808658 13.5877274,9.64944291 C13.5877274,9.59079923 13.6009949,9.5288985 13.6275304,9.46373886 C13.6806012,9.48980272 13.7767907,9.50283445 13.9161017,9.50283445 C14.0554126,9.50283445 14.1383346,9.48980272 14.16487,9.46373886 C14.1914054,9.42464308 14.2013561,9.37577408 14.1947222,9.3171304 C14.1880884,9.25848673 14.1914052,9.196586 14.2046729,9.13142636 C14.2710115,8.93594744 14.3041803,8.72092385 14.3041803,8.48634915 L14.3041803,8.48634915 Z M15.8564948,8.36906238 C15.8299594,8.39512624 15.7967906,8.40490004 15.7569875,8.39838407 C15.7171843,8.39186811 15.6773818,8.40164191 15.6375787,8.42770576 C15.5977755,8.44073769 15.5413886,8.46028529 15.4684162,8.48634915 C15.3954438,8.512413 15.3390568,8.53847647 15.2992537,8.56454032 C15.0604349,8.70789153 14.8614222,8.89685165 14.7022096,9.13142636 C14.5429971,9.36600106 14.410322,9.62011985 14.3041803,9.89379034 L14.1847715,10.5388675 C14.1582361,10.643123 14.1516023,10.7766982 14.16487,10.9395973 C14.1781377,11.1024964 14.198039,11.2165241 14.2245744,11.2816837 C14.2378421,11.3207795 14.2444759,11.3598747 14.2444759,11.3989705 C14.2444759,11.4380663 14.2511096,11.4771615 14.2643773,11.5162573 C14.4103222,12.0114705 14.715475,12.3502956 15.1798449,12.5327426 C15.2859866,12.5718384 15.3987604,12.6044177 15.5181698,12.6304815 L15.6574801,12.6304815 C15.7503541,12.6565454 15.8465436,12.6695771 15.9460514,12.6695771 C16.0455592,12.6695771 16.1483825,12.6630613 16.2545242,12.6500293 L16.5530462,12.6500293 C16.6591879,12.6239655 16.7686449,12.6011599 16.8814204,12.5816121 C16.994196,12.5620642 17.0970192,12.5327428 17.1898932,12.493647 C17.2164286,12.3242319 17.2495974,12.1580773 17.2894005,11.9951782 C17.3292036,11.8322791 17.3623724,11.6661245 17.3889079,11.4967095 L17.3292035,11.4967095 C17.2761326,11.5488372 17.2064782,11.5781586 17.120238,11.5846745 C17.0339979,11.5911905 16.951076,11.6074802 16.8714697,11.633544 C16.6989894,11.6856717 16.5099274,11.7182511 16.3042778,11.731283 C16.0986283,11.7443149 15.9128831,11.7247673 15.7470367,11.6726396 C15.5811903,11.6205119 15.4518321,11.5325477 15.3589581,11.4087444 C15.2660841,11.2849411 15.2395491,11.1122706 15.2793522,10.8907278 L17.4486123,10.8907278 L17.4486123,10.8711801 L17.4884152,10.8711801 C17.4884152,10.7538927 17.5016827,10.639865 17.5282181,10.5290937 C17.5547536,10.4183223 17.5812886,10.3108105 17.607824,10.206555 C17.6343594,10.0632038 17.6310426,9.90030718 17.5978733,9.71786019 C17.564704,9.5354132 17.5348521,9.40509587 17.5083167,9.3269043 C17.3623718,8.97504224 17.1766267,8.72743933 16.9510756,8.58408812 C16.7255245,8.44073691 16.3606679,8.36906238 15.8564948,8.36906238 L15.8564948,8.36906238 Z M23.8170821,9.52238225 C23.8834206,9.50935032 23.9398076,9.49306065 23.9862446,9.47351276 C24.0326816,9.45396487 24.0890685,9.4376752 24.155407,9.42464327 C24.2615487,9.38554749 24.390907,9.36274196 24.5434857,9.35622599 C24.6960644,9.34971003 24.8453239,9.3464521 24.9912687,9.3464521 L25.3096922,9.3464521 C25.362763,9.37251595 25.4091993,9.38880562 25.4490025,9.39532158 C25.4888056,9.40183755 25.5352419,9.41812721 25.5883127,9.44419107 C25.6281159,9.52238264 25.6546509,9.60057303 25.6679186,9.6787646 C25.6811863,9.75695617 25.6745526,9.85469416 25.6480172,9.97198151 L25.3295937,9.97198151 C25.2897905,9.94591766 25.2300867,9.93288593 25.1504804,9.93288593 C25.0708742,9.93288593 24.9846353,9.93940179 24.8917614,9.95243372 C24.7988874,9.96546565 24.7126485,9.98175531 24.6330423,10.0013032 C24.553436,10.0208511 24.500366,10.0306249 24.4738305,10.0306249 C24.407492,10.0436568 24.3212531,10.0632044 24.2151114,10.0892683 C24.0293635,10.1674598 23.8635196,10.2717137 23.7175747,10.402033 C23.5716299,10.5323523 23.4588561,10.6887331 23.3792498,10.8711801 C23.3527144,10.9363397 23.3394468,10.9949825 23.3394468,11.0471102 C23.3394468,11.0992379 23.3261793,11.1578807 23.2996439,11.2230404 C23.2731085,11.2882 23.2565241,11.3826801 23.2498902,11.5064834 C23.2432564,11.6302867 23.253207,11.7377985 23.2797424,11.829022 C23.2930102,11.8811497 23.3129114,11.9495663 23.3394468,12.0342738 C23.3659823,12.1189813 23.3925173,12.1808821 23.4190527,12.2199779 C23.5251944,12.3893929 23.7076227,12.5229682 23.9663431,12.6207076 C24.2250635,12.7184471 24.4937306,12.7151892 24.7723526,12.6109337 C24.9182974,12.558806 25.0343881,12.4936474 25.1206282,12.4154558 C25.2068684,12.3372642 25.3030578,12.2655897 25.4091995,12.2004301 L25.4091995,12.395908 C25.3826641,12.4219719 25.3727135,12.4512933 25.3793473,12.4838731 C25.3859812,12.5164529 25.3892981,12.5522902 25.3892981,12.591386 L26.36447,12.591386 C26.36447,12.2786197 26.4042725,12.0049533 26.4838788,11.7703786 C26.5104142,11.6791551 26.5203649,11.587933 26.513731,11.4967095 C26.5070972,11.405486 26.5170478,11.3207797 26.5435832,11.2425881 L26.662992,10.2456506 C26.7293306,10.0371398 26.7624994,9.80582653 26.7624994,9.55170394 C26.7624994,9.29758134 26.7094293,9.08581569 26.6032876,8.91640062 C26.5369491,8.8121452 26.4440765,8.71766514 26.3246671,8.6329576 C26.2052577,8.54825007 26.0792163,8.48634934 25.9465392,8.44725356 C25.8934683,8.43422163 25.820497,8.42770576 25.727623,8.42770576 C25.6214813,8.40164191 25.49544,8.38209431 25.3494951,8.36906238 C25.2035503,8.35603045 25.0775089,8.36254632 24.9713672,8.38861017 L24.7524511,8.38861017 C24.6463094,8.41467403 24.5070005,8.4407375 24.3345203,8.46680135 C24.16204,8.49286521 24.0426324,8.53847627 23.9762938,8.60363591 C23.9497584,8.62969977 23.9398078,8.65576323 23.9464416,8.68182709 C23.9530755,8.70789095 23.9497586,8.74698614 23.9364909,8.79911386 C23.9099555,8.91640121 23.8900542,9.0336868 23.8767865,9.15097415 C23.8635188,9.26826151 23.8436175,9.39206296 23.8170821,9.52238225 L23.8170821,9.52238225 Z M6.42319888,9.52238225 C6.48953744,9.50935032 6.54924125,9.49306065 6.6023121,9.47351276 C6.65538294,9.45396487 6.70845299,9.4376752 6.76152384,9.42464327 C6.88093325,9.38554749 7.01692525,9.36274196 7.16950394,9.35622599 C7.32208263,9.34971003 7.47134214,9.3464521 7.61728697,9.3464521 L7.93571047,9.3464521 C7.9755136,9.37251595 8.01863302,9.38880562 8.06507001,9.39532158 C8.111507,9.40183755 8.15462642,9.41812721 8.19442955,9.44419107 C8.2475004,9.54844649 8.2773523,9.62663689 8.28398616,9.6787646 C8.29062001,9.73089231 8.28730314,9.82863031 8.27403542,9.97198151 C7.58411441,9.95894959 7.04678014,10.033882 6.6620165,10.1967811 C6.27725286,10.3596802 6.01853636,10.7017632 5.88585924,11.2230404 L5.88585924,11.4967095 C5.83278839,11.7182522 5.86927405,11.9300179 5.99531732,12.1320128 C6.12136058,12.3340077 6.25735258,12.4740988 6.40329741,12.5522904 C6.45636826,12.5783542 6.50612143,12.591386 6.55255843,12.591386 C6.59899542,12.591386 6.65538235,12.6044177 6.72172091,12.6304815 C6.77479175,12.6435135 6.85107995,12.6565452 6.95058779,12.6695771 C7.05009563,12.6826091 7.13301758,12.6760932 7.19935614,12.6500293 C7.30549784,12.6239655 7.40832106,12.5946441 7.5078289,12.5620643 C7.60733674,12.5294844 7.69689245,12.4806154 7.77649872,12.4154558 C7.82956957,12.3893919 7.87268898,12.3535547 7.90585826,12.3079429 C7.93902754,12.2623312 7.98214696,12.2264939 8.03521781,12.2004301 L8.03521781,12.395908 C8.00868238,12.4219719 7.99541487,12.4871305 7.99541487,12.591386 L8.95068534,12.591386 C9.0170239,12.1743643 9.07341083,11.7671226 9.11984782,11.3696488 C9.16628481,10.972175 9.22267174,10.5649334 9.2890103,10.1479117 C9.34208115,9.95243274 9.3652993,9.73415122 9.35866544,9.49306055 C9.35203158,9.25196988 9.29564466,9.05975183 9.18950296,8.91640062 C9.10989669,8.78608134 9.00043971,8.68182748 8.86112874,8.60363591 C8.72181776,8.52544434 8.57255824,8.46680155 8.4133457,8.42770576 L8.27403542,8.42770576 C8.20769687,8.40164191 8.07833862,8.38209431 7.88595679,8.36906238 C7.69357497,8.35603045 7.55758297,8.36254632 7.4779767,8.38861017 C7.42490585,8.4016421 7.3718358,8.40815797 7.31876495,8.40815797 C7.2656941,8.40815797 7.21262405,8.4211897 7.15955321,8.44725356 C7.05341151,8.47331741 6.95390517,8.49938088 6.86103118,8.52544473 C6.7681572,8.55150859 6.66865085,8.57757206 6.56250916,8.60363591 C6.53597374,8.76001905 6.51275559,8.91314191 6.49285402,9.06300908 C6.47295245,9.21287625 6.44973431,9.36599911 6.42319888,9.52238225 L6.42319888,9.52238225 Z M9.30891177,11.6139962 C9.29564406,11.7182517 9.28237655,11.8257635 9.26910883,11.9365348 C9.25584112,12.0473062 9.23593985,12.1613339 9.20940443,12.2786212 C9.20940443,12.3046851 9.20277067,12.3437803 9.18950296,12.395908 C9.17623525,12.4480357 9.17623525,12.4871309 9.18950296,12.5131948 C9.21603838,12.5392586 9.24589029,12.5490324 9.27905957,12.5425165 C9.31222885,12.5360005 9.34871451,12.5392584 9.38851764,12.5522904 C9.53446247,12.6044181 9.72684141,12.6304815 9.96566022,12.6304815 L10.3238866,12.6304815 C10.4300283,12.6565454 10.5593866,12.6598033 10.7119653,12.6402554 C10.864544,12.6207075 10.9872685,12.5913861 11.0801424,12.5522904 C11.1332133,12.5392584 11.1796496,12.5327426 11.2194527,12.5327426 C11.2592559,12.5327426 11.2990584,12.5197108 11.3388615,12.493647 C11.4848064,12.4284873 11.6108477,12.3372652 11.7169894,12.2199779 C11.8231311,12.1026905 11.9027362,11.9723732 11.955807,11.829022 C11.9823425,11.7508304 11.9889762,11.6758979 11.9757085,11.6042223 C11.9624408,11.5325467 11.9690746,11.4576143 11.99561,11.3794227 C12.0088777,11.3403269 12.0188283,11.2816841 12.0254622,11.2034926 C12.032096,11.125301 12.0221454,11.0536265 11.99561,10.9884668 C11.9425391,10.779956 11.8529834,10.6040276 11.7269402,10.4606764 C11.6008969,10.3173252 11.4450036,10.2065554 11.2592557,10.1283639 C11.1796494,10.1023 11.1099949,10.0794945 11.0502902,10.0599466 C10.9905855,10.0403987 10.9275648,10.0110773 10.8612263,9.97198151 C10.8346909,9.94591766 10.8147896,9.91985419 10.8015219,9.89379034 C10.7882542,9.86772648 10.7683529,9.84166302 10.7418175,9.81559916 C10.7418175,9.75043952 10.7451344,9.69179672 10.7517682,9.63966901 C10.7584021,9.5875413 10.7683527,9.53541437 10.7816204,9.48328666 C10.8214236,9.47025473 10.864543,9.45070713 10.91098,9.42464327 C10.957417,9.39857942 11.0005364,9.37903182 11.0403395,9.36599989 L11.2791571,9.36599989 C11.3852988,9.35296796 11.5080233,9.35296796 11.6473343,9.36599989 C11.7866453,9.37903182 11.929271,9.38554768 12.0752158,9.38554768 C12.1017513,9.24219648 12.1216525,9.09233155 12.1349203,8.93594842 C12.148188,8.77956528 12.1680892,8.62318449 12.1946247,8.46680135 C12.1150184,8.45376942 12.0287796,8.44399562 11.9359056,8.43747966 C11.8430316,8.4309637 11.7634265,8.41467403 11.697088,8.38861017 C11.604214,8.36254632 11.4615882,8.35603045 11.2692064,8.36906238 C11.0768246,8.38209431 10.9474663,8.40164191 10.8811278,8.42770576 L10.721916,8.42770576 C10.6821129,8.42770576 10.6389935,8.43422163 10.5925565,8.44725356 C10.5461195,8.46028549 10.4963663,8.47331722 10.4432955,8.48634915 C10.0319964,8.64273228 9.76001238,8.93594627 9.62733526,9.36599989 L9.62733526,9.52238225 C9.60079984,9.6396696 9.59416608,9.77976072 9.60743379,9.94265982 C9.62070151,10.1055589 9.65387029,10.2326183 9.70694113,10.3238418 C9.79981512,10.4932569 9.92585649,10.6235742 10.085069,10.7147977 C10.2442816,10.8060212 10.4034917,10.9037592 10.5627043,11.0080146 C10.6025074,11.0340785 10.6423099,11.0503681 10.6821131,11.0568841 C10.7219162,11.0634001 10.755085,11.0796897 10.7816204,11.1057536 C10.8081558,11.1318174 10.8346909,11.1611388 10.8612263,11.1937187 C10.8877617,11.2262985 10.9142967,11.2556199 10.9408322,11.2816837 C10.9408322,11.3338114 10.9375153,11.3826804 10.9308814,11.4282922 C10.9242476,11.4739039 10.9209307,11.5162571 10.9209307,11.5553529 C10.8943953,11.5814167 10.8645434,11.6074802 10.8313741,11.633544 C10.7982048,11.6596079 10.7683529,11.6856714 10.7418175,11.7117352 C10.5162664,11.8029587 10.2708174,11.8127325 10.0054632,11.7410569 C9.74010892,11.6693813 9.50792745,11.6270282 9.30891177,11.6139962 L9.30891177,11.6139962 Z M28.3347154,8.46680135 L27.3197405,8.46680135 C27.3064728,8.66228027 27.2865715,8.86753006 27.2600361,9.08255687 C27.2335007,9.29758369 27.1936981,9.49631761 27.1406273,9.6787646 C27.1273596,9.73089231 27.1207258,9.78301924 27.1207258,9.83514695 C27.1207258,9.88727467 27.114092,9.9394016 27.1008243,9.99152931 C27.0742889,10.0827528 27.0543876,10.1772329 27.0411199,10.2749723 C27.0278522,10.3727118 27.0079509,10.4671918 26.9814155,10.5584153 C26.9814155,10.6105431 26.9780986,10.66267 26.9714648,10.7147977 C26.9648309,10.7669254 26.9615141,10.8190523 26.9615141,10.8711801 C26.9349786,10.9624035 26.9150774,11.0568836 26.9018096,11.1546231 C26.8885419,11.2523625 26.8686407,11.3468426 26.8421052,11.4380661 L26.8421052,11.6139962 C26.8155698,11.7052197 26.7989854,11.7996998 26.7923516,11.8974393 C26.7857177,11.9951787 26.7691333,12.0961746 26.7425979,12.2004301 C26.7160625,12.2916536 26.6895275,12.4284868 26.662992,12.6109337 L27.7774743,12.6109337 C27.790742,12.5327422 27.8040095,12.444778 27.8172772,12.3470385 C27.8305449,12.2492991 27.8504462,12.1678507 27.8769816,12.1026911 L27.8769816,11.9463087 C27.9167847,11.8029575 27.9466366,11.6563505 27.9665382,11.5064834 C27.9864398,11.3566162 28.0162917,11.2165251 28.0560948,11.0862058 L28.0560948,10.9493712 C28.0958979,10.80602 28.1257498,10.6691868 28.1456514,10.5388675 C28.165553,10.4085483 28.2020386,10.2912627 28.2551095,10.1870073 C28.3081803,10.043656 28.3778348,9.90356492 28.4640749,9.76672967 C28.550315,9.62989443 28.6929408,9.60057303 28.8919565,9.6787646 C28.9052242,9.61360496 28.9218086,9.55496216 28.9417101,9.50283445 C28.9616117,9.45070674 28.9781961,9.39857981 28.9914638,9.3464521 L28.9914638,9.24871312 C29.0179992,9.17052156 29.0445343,9.08581529 29.0710697,8.9945918 C29.0976051,8.9033683 29.1307739,8.81214617 29.170577,8.72092268 C29.1971124,8.66879497 29.2203306,8.6231839 29.2402322,8.58408812 C29.2601337,8.54499233 29.2767181,8.4928654 29.2899858,8.42770576 C29.0378993,8.41467384 28.855471,8.44725317 28.7426955,8.52544473 C28.6299199,8.6036363 28.5204629,8.70789016 28.4143212,8.83820944 C28.3877858,8.8642733 28.3645677,8.88707883 28.3446661,8.90662672 C28.3247645,8.92617462 28.3081801,8.96201188 28.2949124,9.01413959 L28.275011,9.01413959 L28.275011,8.93594842 C28.3015464,8.89685263 28.3181308,8.8251781 28.3247646,8.72092268 C28.3313985,8.61666725 28.3347154,8.53196099 28.3347154,8.46680135 L28.3347154,8.46680135 Z M19.2596459,8.48634915 L18.2645725,8.48634915 C18.2513047,8.61666843 18.2314035,8.76001748 18.2048681,8.91640062 C18.1783326,9.07278376 18.1451638,9.20961695 18.1053607,9.3269043 L18.1053607,9.47351276 C18.1053607,9.51912451 18.098727,9.57450937 18.0854592,9.63966901 C18.0456561,9.79605215 18.0158042,9.96546467 17.9959026,10.1479117 C17.9760011,10.3303587 17.9395154,10.4997712 17.8864446,10.6561543 L17.8864446,10.8125367 C17.8864446,10.8646644 17.8798108,10.9167913 17.8665431,10.968919 C17.8400077,11.0731744 17.8167895,11.19046 17.796888,11.3207793 C17.7769864,11.4510986 17.7537682,11.5683842 17.7272328,11.6726396 L17.7272328,11.8485698 C17.7006974,11.9658571 17.6741624,12.0864006 17.6476269,12.210204 C17.6210915,12.3340073 17.607824,12.4675825 17.607824,12.6109337 L18.7024048,12.6109337 C18.7024048,12.4806145 18.7189891,12.3405233 18.7521584,12.1906562 C18.7853277,12.040789 18.8151796,11.9072137 18.841715,11.7899264 C18.841715,11.7377987 18.8450319,11.6889297 18.8516658,11.6433179 C18.8582996,11.5977062 18.8616165,11.5488372 18.8616165,11.4967095 C18.9279551,11.2491028 18.9743914,10.9949841 19.0009268,10.7343455 C19.0274622,10.4737069 19.0937998,10.2326199 19.1999415,10.0110771 C19.2264769,9.95894939 19.2596457,9.91008039 19.2994488,9.86446865 C19.3392519,9.8188569 19.3724207,9.77650377 19.3989561,9.73740798 L19.4387591,9.73740798 L19.518365,9.65921681 L19.8367884,9.65921681 C19.8500562,9.43767403 19.8998093,9.21939251 19.9860495,9.0043657 C20.0722896,8.78933888 20.1485778,8.60363669 20.2149163,8.44725356 L19.8566899,8.44725356 C19.8301545,8.47331741 19.8036195,8.48634915 19.777084,8.48634915 C19.7505486,8.48634915 19.7240136,8.49286501 19.6974782,8.50589694 C19.6178719,8.55802465 19.5216824,8.63947298 19.4089069,8.75024437 C19.2961313,8.86101576 19.2264769,8.96201169 19.1999415,9.05323518 L19.18004,9.05323518 L19.18004,8.93594842 C19.2065754,8.90988456 19.2264767,8.84146796 19.2397444,8.73069658 C19.2530121,8.61992519 19.2596459,8.53847686 19.2596459,8.48634915 L19.2596459,8.48634915 Z M16.5928491,10.0306249 L15.3788596,10.0306249 C15.3921273,9.86120983 15.4451973,9.71134491 15.5380713,9.58102563 C15.6309453,9.45070635 15.7503529,9.36600009 15.8962977,9.3269043 C15.9891717,9.30084045 16.0754106,9.29758251 16.1550168,9.3171304 C16.2346231,9.3366783 16.3075944,9.35296796 16.373933,9.36599989 C16.4004684,9.39206375 16.4236865,9.41812721 16.4435881,9.44419107 C16.4634897,9.47025492 16.4867078,9.49631839 16.5132433,9.52238225 C16.5530464,9.58754189 16.5762645,9.66573228 16.5828984,9.75695578 C16.5895322,9.84817927 16.5928491,9.9394014 16.5928491,10.0306249 L16.5928491,10.0306249 Z M30.7626945,9.42464327 C30.829033,9.42464327 30.9285394,9.43767501 31.0612165,9.46373886 C31.2071613,9.5288985 31.3066677,9.68202136 31.3597385,9.92311203 C31.4128094,10.1642027 31.4061756,10.395516 31.3398371,10.6170587 L31.3398371,10.7343455 C31.3000339,10.8776967 31.243647,11.0275616 31.1706746,11.1839448 C31.0977022,11.3403279 31.0015127,11.4510976 30.8821033,11.5162573 L30.8223989,11.5162573 C30.769328,11.5423211 30.7063074,11.5716425 30.6333349,11.6042223 C30.5603625,11.6368022 30.4774406,11.6400601 30.3845666,11.6139962 C30.3580312,11.6009643 30.3314961,11.5879326 30.3049607,11.5749006 C30.2784253,11.5618687 30.2452565,11.548837 30.2054534,11.5358051 C30.1656502,11.4706454 30.1225308,11.4054868 30.0760938,11.3403271 C30.0296568,11.2751675 29.9931712,11.1904612 29.9666358,11.0862058 L29.9666358,10.8320845 C29.9268326,10.6496375 29.9467339,10.4346139 30.0263402,10.1870073 C30.1059464,9.93940062 30.1921853,9.76347223 30.2850592,9.65921681 C30.3115947,9.62012102 30.3613478,9.58102582 30.4343203,9.54193004 C30.5072927,9.50283426 30.5703134,9.47025492 30.6233842,9.44419107 C30.6499196,9.43115914 30.6731378,9.42790121 30.6930393,9.43441717 C30.7129409,9.44093313 30.7361591,9.4376752 30.7626945,9.42464327 L30.7626945,9.42464327 Z M8.11482368,10.7538933 C8.12809139,11.0014999 8.07833822,11.2197814 7.96556267,11.4087444 C7.85278712,11.5977074 7.7035276,11.7182509 7.51777963,11.7703786 L7.19935614,11.7703786 C7.17282072,11.7443147 7.14960257,11.7280251 7.129701,11.7215091 C7.10979944,11.7149931 7.08658129,11.6987035 7.06004587,11.6726396 C7.03351044,11.6465758 6.9937079,11.5944488 6.94063706,11.5162573 L6.94063706,11.3012315 C6.94063706,11.22304 6.95390457,11.1643972 6.98043999,11.1253014 C7.04677855,10.9298225 7.19603807,10.8157948 7.42822303,10.783215 C7.66040798,10.7506352 7.88927258,10.7408614 8.11482368,10.7538933 L8.11482368,10.7538933 Z M25.5087069,10.7538933 C25.5087069,11.0536276 25.4291018,11.3142623 25.2698893,11.5358051 C25.2433538,11.5749008 25.2035513,11.6074802 25.1504804,11.633544 C25.0974096,11.6596079 25.0576071,11.6921872 25.0310716,11.731283 C24.9647331,11.7443149 24.9083462,11.7508308 24.8619092,11.7508308 C24.8154722,11.7508308 24.765719,11.7573467 24.7126481,11.7703786 C24.672845,11.7703786 24.6297256,11.7606048 24.5832886,11.7410569 C24.5368516,11.721509 24.500366,11.7117352 24.4738305,11.7117352 C24.3942243,11.5814159 24.3511048,11.4836779 24.344471,11.4185183 C24.3378371,11.3533587 24.3477878,11.2491048 24.3743232,11.1057536 C24.4008586,11.0796897 24.4240768,11.0438525 24.4439783,10.9982407 C24.4638799,10.952629 24.4937318,10.9167917 24.5335349,10.8907278 C24.6529443,10.8125363 24.798887,10.7701831 24.9713672,10.7636672 C25.1438475,10.7571512 25.3229589,10.7538933 25.5087069,10.7538933 L25.5087069,10.7538933 Z M32.653334,16.479225 L32.7130384,16.479225 L32.7130384,16.4987728 L32.6831862,16.4987728 C32.68982,16.4987728 32.6798694,16.492257 32.653334,16.479225 L32.653334,16.479225 Z" id="Icon/MasterCard/Black"></path>
                            </g>
                        </g>
                    </g>
                </g>
            </g>
        </g>
    </g>
</svg>