<?xml version="1.0" encoding="UTF-8"?>
<svg width="23px" height="46px" viewBox="0 0 23 46" version="1.1" xmlns="http://www.w3.org/2000/svg" xmlns:xlink="http://www.w3.org/1999/xlink">
    <!-- Generator: Sketch 41.2 (35397) - http://www.bohemiancoding.com/sketch -->
    <title>nexus.colors-black-white-grey</title>
    <desc>Created with Sketch.</desc>
    <defs></defs>
    <g id="01-Style-Tile" stroke="none" stroke-width="1" fill="none" fill-rule="evenodd">
        <g id="Style-Tile" transform="translate(-941.000000, -1675.000000)" fill="#000000">
            <g id="Icons" transform="translate(100.000000, 660.000000)">
                <g id="Iconset" transform="translate(0.000000, 30.000000)">
                    <g id="Icons" transform="translate(61.000000, 67.000000)">
                        <g id="Devices" transform="translate(7.000000, 909.000000)">
                            <g id="Icon/Device/Nexus/Black" transform="translate(773.000000, 9.000000)">
                                <path d="M21.4061008,40.0114443 L15.3145995,40.0114443 L7.56555196,40.0114443 L1.56378963,40.0114443 L1.52229473,4.76577634 L7.56555196,4.76577634 L15.3145995,4.76577634 L21.4478457,4.76577634 L21.4061008,40.0114443 Z M22.9846568,39.2995318 L22.9676589,5.80364878 C22.9954055,3.30395601 22.7281883,1.54392234 19.8290447,0.9209989 C18.4099691,0.616286352 16.9976427,0.395563481 15.497827,0.257080501 L15.497827,0.17459064 C11.2483493,-0.196113797 7.09036037,0.0228592893 3.29757653,0.837759131 C0.398432863,1.4604326 0.0072309453,3.22046628 0.034977535,5.72015904 L0.0104805459,39.2160421 C-0.0652601449,41.7157349 0.19570778,43.9302127 3.29357702,44.5956309 C4.69765445,44.8970938 6.24896378,45.1183167 7.74877944,45.2595493 L7.74877944,45.359787 C11.7482879,45.7292416 16.0650073,45.4970201 19.875539,44.6788707 C22.9734082,44.0134525 23.0603975,41.7992246 22.9846568,39.2995318 L22.9846568,39.2995318 Z" id="Icon/Nexus/Black"></path>
                            </g>
                        </g>
                    </g>
                </g>
            </g>
        </g>
    </g>
</svg>