<?xml version="1.0" encoding="UTF-8"?>
<svg width="34px" height="10px" viewBox="0 0 34 10" version="1.1" xmlns="http://www.w3.org/2000/svg" xmlns:xlink="http://www.w3.org/1999/xlink">
    <!-- Generator: Sketch 41.2 (35397) - http://www.bohemiancoding.com/sketch -->
    <title>paypal--s.colors-black-white-grey</title>
    <desc>Created with Sketch.</desc>
    <defs></defs>
    <g id="01-Style-Tile" stroke="none" stroke-width="1" fill="none" fill-rule="evenodd">
        <g id="Style-Tile" transform="translate(-782.000000, -1848.000000)" fill="#000000">
            <g id="Icons" transform="translate(100.000000, 660.000000)">
                <g id="Iconset" transform="translate(0.000000, 30.000000)">
                    <g id="Icons" transform="translate(61.000000, 67.000000)">
                        <g id="Payment-Methods" transform="translate(0.000000, 1086.000000)">
                            <g id="Icon/Payment/PayPal/Black" transform="translate(621.000000, 5.000000)">
                                <path d="M1.77897966,0.00418240399 L3.00521279,0.00418240399 C3.42392864,0.00418240399 3.82602275,0.0111529184 4.21150718,0.0250941563 C4.43748081,0.0250941563 4.67342033,0.0181236419 4.91933281,0.00418240399 C5.1652453,-0.00975883391 5.38124626,0.0111527093 5.5673422,0.0669176609 C6.11233743,0.220271278 6.51110844,0.513032882 6.76366721,0.945211257 C6.89659288,1.1822123 6.9663778,1.49937071 6.97302409,1.89669599 C6.97967037,2.29402127 6.93647018,2.63906173 6.84342221,2.93182772 C6.68391141,3.43371229 6.45461808,3.83800212 6.15553533,4.14470936 C5.85645258,4.45141659 5.46765084,4.68841408 4.98911844,4.85570894 C4.82960764,4.91147389 4.66677614,4.94632646 4.50061906,4.9602677 C4.33446198,4.97420894 4.1649843,5.00209099 3.99218093,5.04391471 C3.75291473,5.1136209 3.48374429,5.12756192 3.18466155,5.08573821 C2.8855788,5.0439145 2.60976218,5.03694398 2.35720341,5.06482646 C2.21098518,5.3018275 2.10796933,5.57367756 2.04815278,5.8803848 C1.98833623,6.18709203 1.91855131,6.47985364 1.83879591,6.75867839 C1.81221077,6.8702083 1.79227222,6.98522179 1.77897966,7.10372231 C1.76568709,7.22222283 1.72580999,7.31632477 1.65934715,7.38603096 C1.64605459,7.3999722 1.62611604,7.41042797 1.5995309,7.41739859 C1.57294577,7.42436921 1.55300722,7.4417955 1.53971465,7.46967797 C1.28715589,7.46967797 1.037924,7.47664849 0.79201152,7.49058972 C0.546099038,7.50453096 0.31015952,7.49058993 0.0841858878,7.44876622 C0.0576007546,7.39300127 0.0310160202,7.3581487 0.00443088699,7.34420746 C-0.00886167962,7.16297137 0.00775377941,6.98870851 0.0542777625,6.82141365 C0.100801746,6.6541188 0.144001939,6.49379697 0.183879639,6.34044335 C0.237049905,6.14526602 0.280250099,5.95706213 0.313481515,5.77582604 C0.346712932,5.59458994 0.383266942,5.41335657 0.423144641,5.23212048 C0.582655441,4.64658849 0.708932929,4.06455053 0.801980896,3.48598916 C0.895028862,2.90742779 1.02130635,2.33933086 1.18081715,1.78168135 C1.24727998,1.58650402 1.29380327,1.38784436 1.3203884,1.18569641 C1.34697353,0.983548459 1.39349682,0.784888799 1.45995965,0.589711468 C1.48654479,0.506064041 1.50316024,0.425903125 1.50980653,0.349226317 C1.51645281,0.272549508 1.53971445,0.199359107 1.57959215,0.129652918 C1.60617729,0.101770442 1.63940821,0.0808588988 1.6792859,0.0669176609 C1.7191636,0.052976423 1.75239452,0.0320648798 1.77897966,0.00418240399 L1.77897966,0.00418240399 Z M20.2023849,0.00418240399 C20.627747,0.00418240399 21.0431335,0.00766766119 21.4485567,0.0146382801 C21.85398,0.0216088991 22.2627203,0.0250941563 22.6747899,0.0250941563 C22.9007635,0.0250941563 23.1400261,0.0181236419 23.3925849,0.00418240399 C23.6451437,-0.00975883391 23.8644677,0.0181232237 24.0505636,0.0878294132 C24.3562927,0.199359316 24.6055246,0.338769604 24.7982668,0.506064459 C24.991009,0.673359314 25.1471943,0.896415774 25.2668274,1.17524053 C25.3332902,1.32859415 25.3831366,1.51679804 25.416368,1.73985784 C25.4495994,1.96291765 25.4462764,2.1790036 25.4063987,2.38812217 C25.366521,2.54147578 25.3366131,2.69134184 25.3166743,2.83772484 C25.2967354,2.98410784 25.2535352,3.12003287 25.1870724,3.24550401 C25.0009765,3.69162362 24.7484215,4.04014934 24.4293999,4.29109162 C24.1103783,4.54203391 23.7248997,4.74417882 23.2729524,4.89753244 C23.1267342,4.93935615 22.977195,4.96723821 22.8243305,4.98117945 C22.671466,4.99512069 22.5219269,5.01603223 22.3757086,5.04391471 C22.242783,5.07179718 22.1032131,5.08225295 21.9569949,5.07528234 C21.8107766,5.06831172 21.6645606,5.05785594 21.5183424,5.04391471 C21.3721241,5.02997347 21.2325543,5.02300295 21.0996286,5.02300295 C20.9667029,5.02300295 20.8470716,5.0439145 20.7407311,5.08573821 C20.6609757,5.23909183 20.6044831,5.41335469 20.5712517,5.60853202 C20.5380203,5.80370935 20.4881739,5.99888375 20.4217111,6.19406108 C20.3685408,6.37529718 20.3153714,6.56350106 20.2622011,6.75867839 C20.2090308,6.95385573 20.1625076,7.14903013 20.1226299,7.34420746 C20.0428745,7.39997241 19.9398586,7.43831024 19.8135792,7.4592221 C19.6872998,7.48013395 19.5510531,7.49058972 19.4048348,7.49058972 C19.2586166,7.49058972 19.1090775,7.48710447 18.956213,7.48013385 C18.8033484,7.47316323 18.6671017,7.46967797 18.5474686,7.46967797 C18.5208835,7.4417955 18.4976218,7.41391344 18.477683,7.38603096 C18.4577441,7.35814849 18.4411287,7.33026643 18.4278361,7.30238395 C18.401251,7.23267776 18.3979279,7.15948736 18.4178667,7.08281056 C18.4378056,7.00613375 18.4610672,6.94688437 18.4876523,6.90506066 C18.5142375,6.77958952 18.5408222,6.650635 18.5674073,6.51819324 C18.5939925,6.38575148 18.6205772,6.26376748 18.6471623,6.15223758 C18.6737475,6.06859015 18.6870398,5.99191449 18.6870398,5.9222083 C18.6870398,5.85250211 18.7003322,5.78279697 18.7269173,5.71309078 C18.9263058,5.04391136 19.0858142,4.35731569 19.2054473,3.65328318 C19.3250804,2.94925067 19.4779427,2.25568448 19.6640386,1.57256383 C19.7039163,1.41921021 19.7371472,1.26585889 19.7637323,1.11250528 C19.7903175,0.959151659 19.8235484,0.805800342 19.8634261,0.652446725 C19.8900112,0.568799298 19.9066267,0.485153125 19.913273,0.401505698 C19.9199193,0.31785827 19.9431809,0.241182612 19.9830586,0.171476422 C20.0096437,0.129652709 20.0461977,0.0982853939 20.0927217,0.077373537 C20.1392457,0.0564616802 20.1757997,0.0320648798 20.2023849,0.00418240399 L20.2023849,0.00418240399 Z M32.484655,0.0669176609 L33.441715,0.0669176609 C33.4948853,0.0669176609 33.5613471,0.0634324037 33.6411025,0.0564617847 C33.7208579,0.0494911658 33.7806735,0.0599469374 33.8205512,0.0878294132 C33.8737215,0.115711889 33.9102755,0.143593947 33.9302144,0.171476422 C33.9501532,0.199358898 33.9734149,0.23421147 34,0.276035184 C34,0.387565087 33.9867076,0.49560806 33.9601225,0.600167344 C33.9335374,0.704726629 33.9069526,0.805799087 33.8803675,0.903387753 C33.8271972,1.09856508 33.783997,1.28676897 33.7507656,1.46800506 C33.7175342,1.64924116 33.674334,1.82350402 33.6211637,1.99079887 C33.581286,2.14415249 33.5547013,2.28704803 33.5414087,2.41948979 C33.5281162,2.55193155 33.5015314,2.6948271 33.4616537,2.84818072 C33.3287281,3.30824157 33.215743,3.78223655 33.122695,4.27017987 C33.029647,4.7581232 32.9166619,5.23211818 32.7837362,5.69217903 C32.730566,5.9012976 32.6873658,6.11041303 32.6541344,6.3195316 C32.6209029,6.52865016 32.5710566,6.7377656 32.5045937,6.94688417 C32.4780086,7.01659035 32.4647162,7.10023653 32.4647162,7.19782519 C32.4647162,7.29541386 32.4314853,7.37208952 32.3650225,7.42785447 C32.3251448,7.45573694 32.262006,7.46967797 32.1756044,7.46967797 L31.9463087,7.46967797 L31.4079625,7.46967797 C31.2218665,7.46967797 31.0490658,7.45573694 30.889555,7.42785447 C30.8496773,7.3302658 30.8363849,7.22570809 30.8496775,7.11417818 C30.86297,7.00264828 30.8829086,6.89112005 30.9094937,6.77959015 C30.962664,6.58441282 30.9925718,6.39969418 30.9992181,6.22542871 C31.0058644,6.05116324 31.0357722,5.87341512 31.0889425,5.69217903 C31.2750384,5.05088208 31.4212544,4.39565373 31.527595,3.72647431 C31.6339355,3.05729489 31.7735054,2.40903705 31.9463087,1.78168135 C32.0127716,1.58650402 32.0626179,1.38784436 32.0958494,1.18569641 C32.1290808,0.983548459 32.172281,0.784888799 32.2254512,0.589711468 C32.2520364,0.520005279 32.2653287,0.453785392 32.2653287,0.391049821 C32.2653287,0.328314251 32.2786211,0.269064879 32.3052062,0.213299927 C32.3317914,0.185417451 32.3616992,0.161020651 32.3949306,0.140108794 C32.428162,0.119196937 32.4580699,0.0948001367 32.484655,0.0669176609 L32.484655,0.0669176609 Z M3.37407967,1.3634463 C3.32090941,1.39132878 3.26773994,1.40526981 3.21456967,1.40526981 C3.18798454,1.43315228 3.1647229,1.45754908 3.14478405,1.47846094 C3.1248452,1.4993728 3.10158355,1.5237696 3.07499842,1.55165207 C3.04841329,1.57953455 3.03512092,1.61438712 3.03512092,1.65621084 C3.03512092,1.69803455 3.02847474,1.73985764 3.01518217,1.78168135 C2.97530447,1.92109373 2.94207355,2.06398927 2.91548842,2.21037227 C2.88890328,2.35675527 2.84902618,2.50662133 2.79585592,2.65997495 C2.76927078,2.78544609 2.74268605,2.92137112 2.71610092,3.06775411 C2.68951578,3.21413711 2.68951578,3.36400317 2.71610092,3.51735679 C2.82244145,3.58706298 2.98194986,3.62888607 3.19463092,3.6428273 C3.40731199,3.65676854 3.60005131,3.64282751 3.77285468,3.6010038 C4.07858371,3.51735637 4.3244925,3.44068071 4.51058844,3.37097452 C4.69668437,3.30126833 4.85619277,3.13397599 4.98911844,2.86909247 C5.01570357,2.79938628 5.04893449,2.70876959 5.08881219,2.59723969 C5.12868989,2.48570979 5.13533607,2.37418155 5.10875094,2.26265165 C5.01570298,1.85835575 4.82296365,1.60393198 4.53052719,1.49937269 C4.23809072,1.39481341 3.85261207,1.34950507 3.37407967,1.3634463 L3.37407967,1.3634463 Z M21.7775461,1.3634463 C21.7642536,1.37738754 21.7509612,1.38435806 21.7376686,1.38435806 C21.7243761,1.38435806 21.7110837,1.39132857 21.6977911,1.40526981 C21.5648655,1.43315228 21.4884343,1.49937217 21.4684955,1.60393145 C21.4485566,1.70849074 21.425295,1.83047474 21.3987099,1.96988712 C21.332247,2.16506445 21.259139,2.41600297 21.1793836,2.7227102 C21.0996282,3.02941744 21.0863358,3.3012675 21.1395061,3.53826854 C21.3123095,3.63585721 21.5249874,3.67070978 21.7775461,3.6428273 C22.149738,3.60100359 22.475401,3.54175422 22.7545449,3.46507741 C23.0336888,3.3884006 23.2463667,3.21065248 23.3925849,2.93182772 C23.41917,2.86212154 23.455724,2.77499011 23.502248,2.67043082 C23.548772,2.56587154 23.5587413,2.45782856 23.5321561,2.34629866 C23.4391082,1.88623781 23.253015,1.60393198 22.9738711,1.49937269 C22.6947272,1.39481341 22.2959562,1.34950507 21.7775461,1.3634463 L21.7775461,1.3634463 Z M9.69466349,1.69803434 C10.3061216,1.6840931 10.8378162,1.77122453 11.2897635,1.95943124 C11.7417108,2.14763796 12.0341429,2.4857079 12.1670685,2.97365123 C12.2202388,3.16882856 12.226885,3.37097348 12.1870073,3.58009205 C12.1471296,3.78921061 12.1138986,3.96347347 12.0873135,4.10288585 C11.980973,4.46535804 11.9045419,4.83131004 11.8580179,5.20075285 C11.8114939,5.57019565 11.741709,5.92917714 11.648661,6.27770809 C11.6220759,6.34741428 11.6021373,6.43803097 11.5888448,6.54956087 C11.5755522,6.66109077 11.5589367,6.77261901 11.5389979,6.88414891 C11.519059,6.99567881 11.4924743,7.10023653 11.4592429,7.19782519 C11.4260115,7.29541386 11.3894575,7.35814849 11.3495798,7.38603096 C11.3097021,7.41391344 11.2266248,7.43831024 11.1003454,7.4592221 C10.974066,7.48013395 10.8344961,7.49407498 10.6816316,7.5010456 C10.5287671,7.50801622 10.3825511,7.50801622 10.2429791,7.5010456 C10.1034072,7.49407498 9.99374514,7.48361921 9.91398974,7.46967797 C9.91398974,7.45573673 9.91066665,7.44528096 9.90402037,7.43831034 C9.89737408,7.43133973 9.89405099,7.42088395 9.89405099,7.40694272 C9.86746586,7.35117776 9.86746586,7.27101685 9.89405099,7.16645756 C9.92063613,7.06189828 9.92063613,6.98870788 9.89405099,6.94688417 C9.88075843,6.91900169 9.87743533,6.90854592 9.88408162,6.91551654 C9.8907279,6.92248716 9.88075863,6.9190019 9.85417349,6.90506066 C9.81429579,6.94688437 9.7710956,6.97476643 9.72457162,6.98870767 C9.67804763,7.00264891 9.62820126,7.02356045 9.57503099,7.05144293 C9.38893506,7.16297283 9.21281119,7.26753055 9.04665411,7.36511921 C8.88049703,7.46270788 8.68443461,7.53938353 8.45846098,7.59514849 C8.39199814,7.62303096 8.30227467,7.63697199 8.18928785,7.63697199 C8.07630103,7.63697199 7.99322374,7.63000148 7.94005347,7.61606024 C7.82042037,7.58817776 7.71408143,7.57772199 7.62103347,7.58469261 C7.5279855,7.59166323 7.42829275,7.58120746 7.32195222,7.55332498 C7.02951575,7.45573632 6.82680715,7.33375231 6.71382033,7.18736932 C6.60083352,7.04098632 6.50446386,6.80050357 6.42470846,6.46591386 C6.39812332,6.3683252 6.38483096,6.24982645 6.38483096,6.11041407 C6.38483096,5.97100169 6.39812332,5.85947346 6.42470846,5.77582604 C6.49117129,5.49700128 6.58421786,5.26348905 6.70385096,5.07528234 C6.82348406,4.88707562 6.96305391,4.73372431 7.12256471,4.61522378 C7.28207551,4.49672326 7.47149175,4.39913606 7.69081909,4.32245925 C7.91014644,4.24578244 8.15273214,4.17259204 8.41858348,4.10288585 L8.72763411,4.10288585 C8.82732835,4.10288585 8.9303442,4.09591534 9.03668473,4.0819741 C9.2493658,4.04015039 9.48198223,4.02969462 9.73454099,4.05060647 C9.98709976,4.07151833 10.21307,4.06106256 10.4124585,4.01923884 C10.4390436,3.97741513 10.4623053,3.93559204 10.4822441,3.89376833 C10.502183,3.85194462 10.5187984,3.7961805 10.532091,3.72647431 C10.5719687,3.58706193 10.5719687,3.45462216 10.532091,3.32915102 C10.4922133,3.20367988 10.4323976,3.11306319 10.3526422,3.05729824 C10.2463017,2.98759205 10.1266704,2.95622473 9.99374474,2.96319535 C9.86081908,2.97016597 9.72124922,2.96668072 9.57503099,2.95273948 C9.37564249,2.924857 9.14967225,2.92834226 8.89711348,2.96319535 C8.64455472,2.99804845 8.42523066,3.05032731 8.23913472,3.1200335 C8.13279419,3.14791597 8.04307071,3.17579803 7.9699616,3.2036805 C7.89685248,3.23156298 7.807129,3.24550401 7.70078847,3.24550401 C7.67420334,3.21762153 7.65758788,3.2036805 7.65094159,3.2036805 C7.64429531,3.2036805 7.63432603,3.18973948 7.62103347,3.161857 C7.5678632,3.09215081 7.55124774,2.98759309 7.57118659,2.84818072 C7.59112544,2.70876834 7.61438709,2.60421062 7.64097222,2.53450443 C7.66755735,2.43691577 7.68084972,2.34978434 7.68084972,2.27310753 C7.68084972,2.19643072 7.70078827,2.12324032 7.74066597,2.05353413 C7.78054367,1.99776918 7.85365169,1.95246083 7.95999222,1.91760774 C8.06633275,1.88275464 8.18264097,1.85487259 8.30892035,1.83396073 C8.43519973,1.81304887 8.56147722,1.79910784 8.6877566,1.79213723 C8.81403599,1.78516661 8.92369802,1.76774032 9.01674598,1.73985784 C9.09650138,1.71197537 9.2128096,1.70849011 9.36567411,1.72940197 C9.51853863,1.75031383 9.62820066,1.73985805 9.69466349,1.69803434 L9.69466349,1.69803434 Z M13.4431485,1.71894609 C13.6159519,1.71894609 13.7987219,1.71546083 13.9914642,1.70849022 C14.1842064,1.7015196 14.3337455,1.73985743 14.440086,1.82350485 C14.5464266,1.90715228 14.6029191,2.04656257 14.6095654,2.2417399 C14.6162117,2.43691723 14.6328272,2.6181506 14.6594123,2.78544546 C14.7391677,3.18974136 14.8089526,3.59751645 14.8687692,4.00878297 C14.9285857,4.42004949 14.9917245,4.82782458 15.0581873,5.23212048 C15.098065,5.26000295 15.1512345,5.2809145 15.2176973,5.29485573 C15.4436709,4.86267736 15.6829335,4.44096124 15.9354923,4.02969472 C16.1880511,3.6184282 16.440606,3.21065311 16.6931648,2.80635721 C16.7729202,2.66694483 16.8493513,2.53450506 16.9224604,2.40903392 C16.9955696,2.28356278 17.0720007,2.15809352 17.1517561,2.03262238 C17.1783412,1.99079866 17.2016028,1.94897558 17.2215417,1.90715186 C17.2414805,1.86532815 17.2713884,1.83047558 17.3112661,1.8025931 C17.3378512,1.77471063 17.3744052,1.7607696 17.4209292,1.7607696 C17.4674532,1.7607696 17.5239457,1.75379908 17.5904086,1.73985784 C17.7632119,1.69803413 17.9958284,1.6840931 18.2882648,1.69803434 C18.5807013,1.71197558 18.8000254,1.73288712 18.9462436,1.7607696 C18.9462436,1.78865207 18.9495667,1.8025931 18.956213,1.8025931 C18.9628592,1.8025931 18.9661823,1.81653413 18.9661823,1.84441661 C18.9794749,1.85835784 18.9861211,1.90018093 18.9861211,1.96988712 C18.9196583,2.03959331 18.8664888,2.13021 18.8266111,2.2417399 C18.7867334,2.3532698 18.7335639,2.45782752 18.6671011,2.55541618 C18.5208829,2.80635847 18.3779899,3.06078224 18.238418,3.31869514 C18.098846,3.57660804 17.9493069,3.83103182 17.7897961,4.0819741 C17.3644339,4.83480095 16.9357551,5.57716073 16.5037467,6.30907572 C16.0717383,7.04099071 15.6364132,7.77637998 15.1977585,8.51526559 C15.091418,8.69650168 14.9850791,8.87076454 14.8787385,9.03805939 C14.772398,9.20535425 14.6660591,9.37961711 14.5597185,9.5608532 C14.5198408,9.63055939 14.4766406,9.70723505 14.4301167,9.79088248 C14.3835927,9.8745299 14.3204539,9.93726453 14.2406985,9.97908825 C14.2008208,9.99302949 14.1410052,10 14.0612498,10 L13.802046,10 C13.7089981,10 13.6159515,9.99651474 13.5229035,9.98954412 C13.4298556,9.9825735 13.3567475,9.97908825 13.3035773,9.97908825 L12.9646185,9.97908825 C12.8449854,9.97908825 12.7452927,9.96514722 12.6655373,9.93726474 C12.6522447,9.90938227 12.6455985,9.87104444 12.6455985,9.82225011 L12.6455985,9.68632372 C12.6854762,9.6445 12.715384,9.59919166 12.7353229,9.55039733 C12.7552617,9.50160299 12.7785234,9.44932414 12.8051085,9.39355918 C12.9114491,9.22626433 13.0111418,9.06245724 13.1041898,8.902133 C13.1972377,8.74180877 13.2969305,8.57103117 13.403271,8.38979507 C13.4697339,8.29220641 13.5428419,8.19113395 13.6225973,8.08657467 C13.7023527,7.98201538 13.7555222,7.87397241 13.7821073,7.7624425 C13.7953999,7.72061879 13.7953999,7.65091365 13.7821073,7.55332498 C13.7688147,7.45573632 13.7488762,7.34769334 13.722291,7.22919282 C13.6957059,7.1106923 13.6724443,6.99567881 13.6525054,6.88414891 C13.6325666,6.77261901 13.6159511,6.69594335 13.6026585,6.65411963 C13.5760734,6.54258973 13.5594579,6.43803201 13.5528117,6.34044335 C13.5461654,6.24285468 13.5295499,6.13829697 13.5029648,6.02676706 C13.4232094,5.72005983 13.3633937,5.40290143 13.323516,5.07528234 C13.2836383,4.74766324 13.2238227,4.42353433 13.1440673,4.10288585 C13.0643119,3.81011986 13.0111424,3.51038774 12.9845573,3.2036805 C12.9579721,2.89697327 12.9114489,2.60421167 12.844986,2.32538691 C12.8184009,2.21385701 12.8150778,2.10232878 12.8350166,1.99079887 C12.8549555,1.87926897 12.9048019,1.80956382 12.9845573,1.78168135 C13.0377275,1.73985764 13.1141587,1.72940186 13.2138529,1.75031372 C13.3135472,1.77122558 13.3899783,1.76076981 13.4431485,1.71894609 L13.4431485,1.71894609 Z M28.2775787,6.90506066 C28.1978233,6.9190019 28.1247153,6.95036921 28.0582524,6.99916355 C27.9917896,7.04795788 27.9253278,7.08629571 27.8588649,7.11417818 C27.7525244,7.18388437 27.6096315,7.26753055 27.4301818,7.36511921 C27.2507322,7.46270788 27.0945468,7.53241302 26.9616212,7.57423673 C26.8552806,7.60211921 26.7323262,7.62303075 26.5927543,7.63697199 C26.4531823,7.65091323 26.3368741,7.64394271 26.2438262,7.61606024 L26.0444387,7.61606024 C25.9779758,7.61606024 25.911514,7.60908972 25.8450512,7.59514849 C25.5659073,7.5254423 25.339937,7.41042881 25.1671337,7.25010457 C24.9943303,7.08978034 24.874699,6.85626811 24.8082362,6.54956087 C24.7683585,6.38226602 24.7617123,6.2045179 24.7882974,6.01631119 C24.8148825,5.82810448 24.8481135,5.6712679 24.8879912,5.54579676 C25.0342094,5.07179467 25.2668258,4.74069524 25.5858474,4.55248853 C25.904869,4.36428182 26.3102862,4.21441576 26.8021112,4.10288585 L27.1510393,4.10288585 C27.2640261,4.10288585 27.3736881,4.09591534 27.4800287,4.0819741 C27.6927097,4.06803286 27.91868,4.06106235 28.1579462,4.06106235 C28.3972124,4.06106235 28.6098903,4.04712132 28.7959862,4.01923884 C28.8225713,3.97741513 28.845833,3.93559204 28.8657718,3.89376833 C28.8857107,3.85194462 28.9023261,3.81012153 28.9156187,3.76829782 C28.9554964,3.64282668 28.9588195,3.5103869 28.9255881,3.37097452 C28.8923567,3.23156214 28.8358641,3.13397494 28.7561087,3.07820999 C28.6630607,3.02244504 28.526814,2.98410721 28.3473643,2.96319535 C28.1679147,2.9422835 27.9718522,2.93531298 27.7591712,2.9422836 C27.5464901,2.94925422 27.3437815,2.96668051 27.1510393,2.99456298 C26.9582971,3.02244546 26.8021118,3.05032752 26.6824787,3.07820999 C26.6160158,3.09215123 26.5196462,3.13048906 26.3933668,3.19322463 C26.2670874,3.2559602 26.1707177,3.27338649 26.1042549,3.24550401 C26.0377921,3.23156277 25.997915,3.1723134 25.9846224,3.06775411 C25.9713298,2.96319483 25.9680068,2.84469609 25.974653,2.71225433 C25.9812993,2.57981257 25.9979148,2.45434331 26.0244999,2.33584278 C26.051085,2.21734226 26.0776698,2.13718135 26.1042549,2.09535763 C26.1973029,1.94200402 26.3568113,1.8618431 26.5827849,1.85487248 C26.8087586,1.84790186 27.0214364,1.82350506 27.2208249,1.78168135 C27.3670432,1.75379887 27.5132592,1.73637259 27.6594774,1.72940197 C27.8056957,1.72243135 27.9652041,1.71894609 28.1380074,1.71894609 C28.643125,1.71894609 29.0817731,1.77471021 29.453965,1.88624011 C29.8261568,1.99777001 30.1185889,2.20688545 30.33127,2.51359268 C30.4774882,2.70877001 30.5539193,2.95622327 30.5605656,3.25595989 C30.5672119,3.5556965 30.537304,3.84497285 30.4708412,4.12379761 C30.3379155,4.65356465 30.2249304,5.186809 30.1318825,5.72354666 C30.0388345,6.26028432 29.9324956,6.78655815 29.8128625,7.30238395 C29.7331071,7.35814891 29.6732914,7.40694251 29.6334137,7.44876622 C29.5802434,7.4766487 29.4938431,7.49407498 29.37421,7.5010456 C29.2545769,7.50801622 29.1249763,7.51150148 28.9854043,7.51150148 C28.8458324,7.51150148 28.7095856,7.50801622 28.5766599,7.5010456 C28.4437343,7.49407498 28.3440415,7.48361921 28.2775787,7.46967797 C28.2642861,7.42785426 28.2576399,7.3755754 28.2576399,7.31283983 L28.2576399,7.11417818 C28.2975176,7.07235447 28.3041638,7.00264933 28.2775787,6.90506066 L28.2775787,6.90506066 Z M9.79435724,4.85570894 C9.67472414,4.86965017 9.55176975,4.88010595 9.42549036,4.88707656 C9.29921098,4.89404718 9.17625658,4.90450295 9.05662348,4.91844419 C8.93699038,4.94632667 8.8107129,4.98117924 8.67778723,5.02300295 C8.54486156,5.06482667 8.42523026,5.12407604 8.31888973,5.20075285 C8.21254919,5.27742966 8.13279499,5.37850212 8.07962472,5.50397326 C8.02645446,5.6294444 8.01980827,5.78279571 8.05968597,5.96403181 C8.08627111,6.033738 8.10288657,6.08950211 8.10953285,6.13132583 C8.11617913,6.17314954 8.13279459,6.21497263 8.15937972,6.25679634 C8.25242769,6.39620872 8.43187465,6.47985489 8.69772598,6.50773737 C8.96357731,6.53561984 9.19619374,6.5147083 9.39558224,6.44500211 C9.648141,6.36135468 9.86414197,6.17663605 10.0435916,5.89084067 C10.2230413,5.6050453 10.2795338,5.28091638 10.213071,4.91844419 C10.1599007,4.89056172 10.1000851,4.87313543 10.0336222,4.86616481 C9.96715941,4.85919419 9.88740521,4.85570894 9.79435724,4.85570894 L9.79435724,4.85570894 Z M28.1579462,4.85570894 C28.0914834,4.89753265 27.9784982,4.91147368 27.8189874,4.89753244 C27.6594766,4.8835912 27.5398453,4.89056172 27.4600899,4.91844419 C27.3271643,4.94632667 27.1909175,4.9846645 27.0513456,5.03345883 C26.9117736,5.08225316 26.7921423,5.14847305 26.692448,5.23212048 C26.5927538,5.3157679 26.5196458,5.42381088 26.4731218,5.55625264 C26.4265978,5.6886944 26.4365671,5.84553097 26.5030299,6.02676706 C26.5296151,6.08253202 26.5462305,6.13132562 26.5528768,6.17314933 C26.5595231,6.21497304 26.5827847,6.25679613 26.6226624,6.29861984 C26.7024178,6.41014975 26.8619262,6.47985489 27.1011924,6.50773737 C27.3404586,6.53561984 27.5531365,6.52167881 27.7392324,6.46591386 C28.0183763,6.39620767 28.2144387,6.27770893 28.3274256,6.11041407 C28.4404124,5.94311922 28.536782,5.71309224 28.6165374,5.42032625 C28.6697077,5.22514892 28.6763539,5.05088606 28.6364762,4.89753244 C28.6098911,4.8835912 28.5965987,4.87662069 28.5965987,4.87662069 C28.5965987,4.87662069 28.5899525,4.86965017 28.5766599,4.85570894 L28.1579462,4.85570894 Z" id="Icon/PayPal/Black"></path>
                            </g>
                        </g>
                    </g>
                </g>
            </g>
        </g>
    </g>
</svg>