<?xml version="1.0" encoding="UTF-8"?>
<svg width="17px" height="21px" viewBox="0 0 17 21" version="1.1" xmlns="http://www.w3.org/2000/svg" xmlns:xlink="http://www.w3.org/1999/xlink">
    <!-- Generator: Sketch 41.2 (35397) - http://www.bohemiancoding.com/sketch -->
    <title>pinterest--s.colors-black-white-grey</title>
    <desc>Created with Sketch.</desc>
    <defs></defs>
    <g id="01-Style-Tile" stroke="none" stroke-width="1" fill="none" fill-rule="evenodd">
        <g id="Style-Tile" transform="translate(-944.000000, -1377.000000)" fill="#000000">
            <g id="Icons" transform="translate(100.000000, 660.000000)">
                <g id="Iconset" transform="translate(0.000000, 30.000000)">
                    <g id="Icons" transform="translate(61.000000, 67.000000)">
                        <g id="Social" transform="translate(6.000000, 620.000000)">
                            <g id="Icon/Social/Pinterest/Black" transform="translate(777.000000, 0.000000)">
                                <path d="M8.60353146,0 C2.87126199,0 0,4.11205735 0,7.53706272 C0,9.59821865 0.77934254,11.4440299 2.4610817,12.1515909 C2.7482079,12.254136 2.99431607,12.1515909 3.06609762,11.8337012 C3.11737016,11.6388656 3.26093326,11.1056312 3.31220579,10.8697775 C3.38398734,10.5723968 3.35322382,10.4801063 3.13787917,10.2134891 C2.65591734,9.62898217 2.33802762,8.90091216 2.33802762,7.82418892 C2.33802762,4.78885482 4.6247827,2.06115593 8.29589624,2.06115593 C11.526066,2.06115593 13.3000957,4.03002129 13.3000957,6.68593863 C13.3000957,10.1622165 11.7721742,13.1052601 9.48541907,13.1052601 C8.21386019,13.1052601 7.27044553,12.0593003 7.55757173,10.7672325 C7.92673399,9.2393109 8.63429498,7.58833525 8.63429498,6.49110299 C8.63429498,5.49641581 8.10106061,4.68630974 7.00382835,4.68630974 C5.71176045,4.68630974 4.69656425,5.99888665 4.69656425,7.8036799 C4.69656425,8.94193019 5.055472,9.72127273 5.055472,9.72127273 C5.055472,9.72127273 3.74289509,15.3099791 3.52755044,16.2841573 C3.06609762,18.2325136 3.45576889,20.6320683 3.47627791,20.8781765 C3.50704143,21.0012305 3.67111354,21.0525031 3.77365861,20.929449 C3.8967127,20.7858859 5.42463426,18.8888021 5.93735961,16.9917183 C6.10143172,16.4584839 6.7884837,13.689767 6.7884837,13.689767 C7.219173,14.4896185 8.43945934,15.166416 9.75203625,15.166416 C13.6179854,15.166416 16.2431392,11.6388656 16.2431392,6.90128328 C16.2431392,3.33271481 13.2283142,0 8.60353146,0 L8.60353146,0 Z" id="Icon/Pinterest/Black"></path>
                            </g>
                        </g>
                    </g>
                </g>
            </g>
        </g>
    </g>
</svg>