<?xml version="1.0" encoding="UTF-8"?>
<svg width="21px" height="21px" viewBox="0 0 21 21" version="1.1" xmlns="http://www.w3.org/2000/svg" xmlns:xlink="http://www.w3.org/1999/xlink">
    <!-- Generator: Sketch 41.2 (35397) - http://www.bohemiancoding.com/sketch -->
    <title>refresh--sml.colors-black-white-grey</title>
    <desc>Created with Sketch.</desc>
    <defs></defs>
    <g id="01-Style-Tile" stroke="none" stroke-width="1" fill="none" fill-rule="evenodd">
        <g id="Style-Tile" transform="translate(-167.000000, -1222.000000)" fill="#000000">
            <g id="Icons" transform="translate(100.000000, 660.000000)">
                <g id="Iconset" transform="translate(0.000000, 30.000000)">
                    <g id="Icons" transform="translate(61.000000, 67.000000)">
                        <g id="Misc" transform="translate(6.000000, 465.000000)">
                            <g id="Icon/Refresh/Black">
                                <g id="Shape">
                                    <path d="M15.9288889,12.1434444 L15.0577778,18.2412222 L20.9898889,17.3288889 L18.6666667,14.9644444 C19.4545556,13.5123333 19.9111111,11.8945556 19.9111111,10.1111111 C19.9111111,4.59433333 15.4723333,0.155555556 9.95555556,0.155555556 L9.95555556,0.985444444 C14.9745556,0.985444444 19.0812222,5.09211111 19.0812222,10.1111111 C19.0812222,11.6456667 18.7078889,13.0565556 18.0444444,14.3422222 L15.9288889,12.1434444 L15.9288889,12.1434444 Z M16.0121111,17.2456667 L16.5098889,13.9268889 L19.2476667,16.7478889 L16.0121111,17.2456667 L16.0121111,17.2456667 Z"></path>
                                    <path d="M0.829888889,10.1111111 C0.829888889,7.91233333 1.61777778,5.92122222 2.90422222,4.34544444 L5.43433333,6.91755556 L6.30544444,0.819777778 L0.373333333,1.77411111 L2.28122222,3.76522222 C0.871111111,5.46622222 0,7.70622222 0,10.1118889 C0,15.6286667 4.43877778,20.0674444 9.95555556,20.0674444 L9.95555556,19.2375556 C4.93655556,19.2375556 0.829888889,15.1308889 0.829888889,10.1118889 L0.829888889,10.1111111 Z M5.30988889,1.85655556 L4.81211111,5.17533333 L2.07433333,2.35433333 L5.30988889,1.85655556 L5.30988889,1.85655556 Z"></path>
                                </g>
                            </g>
                        </g>
                    </g>
                </g>
            </g>
        </g>
    </g>
</svg>