<?xml version="1.0" encoding="UTF-8"?>
<svg width="21px" height="21px" viewBox="0 0 21 21" version="1.1" xmlns="http://www.w3.org/2000/svg" xmlns:xlink="http://www.w3.org/1999/xlink">
    <!-- Generator: Sketch 41.2 (35397) - http://www.bohemiancoding.com/sketch -->
    <title>share--sml.colors-black-white-grey</title>
    <desc>Created with Sketch.</desc>
    <defs></defs>
    <g id="01-Style-Tile" stroke="none" stroke-width="1" fill="none" fill-rule="evenodd">
        <g id="Style-Tile" transform="translate(-632.000000, -1222.000000)" fill="#000000">
            <g id="Icons" transform="translate(100.000000, 660.000000)">
                <g id="Iconset" transform="translate(0.000000, 30.000000)">
                    <g id="Icons" transform="translate(61.000000, 67.000000)">
                        <g id="Misc" transform="translate(6.000000, 465.000000)">
                            <g id="Icon/Social/Share/Black" transform="translate(465.000000, 0.000000)">
                                <path d="M17.8889159,0.00145889055 C16.1710723,0.00145889055 14.7778318,1.39469936 14.7778318,3.11254299 C14.7778318,3.4108861 14.822328,3.69828754 14.9003786,3.97182952 L5.80492549,7.78391052 C5.26732433,6.85240891 4.26287818,6.22362708 3.11108409,6.22362708 C1.39324047,6.22362708 0,7.61686755 0,9.33471117 C0,11.0525548 1.39324047,12.4457953 3.11108409,12.4457953 C4.01121956,12.4457953 4.82017437,12.0613776 5.38841224,11.449373 L11.2487756,15.66119 C11.0197298,16.0944805 10.8884296,16.5875855 10.8884296,17.1113272 C10.8884296,18.8299003 12.2816701,20.2231408 13.9995137,20.2231408 C15.7173573,20.2231408 17.1105978,18.8299003 17.1105978,17.1113272 C17.1105978,15.3934836 15.7173573,14.0009726 13.9995137,14.0009726 C13.0855188,14.0009726 12.2663517,14.3977908 11.696655,15.0251138 L5.84431554,10.8198618 C6.08503248,10.3785474 6.22216819,9.87231234 6.22216819,9.33398173 C6.22216819,9.0451214 6.17986036,8.76647331 6.10618639,8.50022578 L15.2082045,4.685227 C15.7487235,5.60432804 16.7451457,6.22289763 17.8889159,6.22289763 C19.6067595,6.22289763 21,4.82965716 21,3.11108409 C21,1.39324047 19.6067595,0 17.8889159,0 L17.8889159,0.00145889055 Z M14.0002431,14.7792907 C15.2869846,14.7792907 16.3337386,15.8260447 16.3337386,17.1120567 C16.3337386,18.3980687 15.2869846,19.4455521 14.0002431,19.4455521 C12.7135017,19.4455521 11.6667477,18.3987982 11.6667477,17.1120567 C11.6667477,15.8253152 12.7135017,14.7792907 14.0002431,14.7792907 L14.0002431,14.7792907 Z M3.11181354,11.6682066 C1.82507208,11.6682066 0.778318108,10.6214526 0.778318108,9.33471117 C0.778318108,8.04796971 1.82507208,7.00121574 3.11181354,7.00121574 C4.398555,7.00121574 5.44530897,8.04796971 5.44530897,9.33471117 C5.44530897,10.6214526 4.398555,11.6682066 3.11181354,11.6682066 L3.11181354,11.6682066 Z M17.8889159,5.44603842 C16.6021744,5.44603842 15.5554205,4.39928445 15.5554205,3.11254299 C15.5554205,1.82580152 16.6021744,0.779047553 17.8889159,0.779047553 C19.1756574,0.779047553 20.2224113,1.82580152 20.2224113,3.11254299 C20.2224113,4.39928445 19.1756574,5.44603842 17.8889159,5.44603842 L17.8889159,5.44603842 Z" id="Icon/Share/Black"></path>
                            </g>
                        </g>
                    </g>
                </g>
            </g>
        </g>
    </g>
</svg>