<?xml version="1.0" encoding="UTF-8"?>
<svg width="21px" height="18px" viewBox="0 0 21 18" version="1.1" xmlns="http://www.w3.org/2000/svg" xmlns:xlink="http://www.w3.org/1999/xlink">
    <!-- Generator: Sketch 41.2 (35397) - http://www.bohemiancoding.com/sketch -->
    <title>twitter--s.colors-black-white-grey</title>
    <desc>Created with Sketch.</desc>
    <defs></defs>
    <g id="01-Style-Tile" stroke="none" stroke-width="1" fill="none" fill-rule="evenodd">
        <g id="Style-Tile" transform="translate(-322.000000, -1379.000000)" fill="#000000">
            <g id="Icons" transform="translate(100.000000, 660.000000)">
                <g id="Iconset" transform="translate(0.000000, 30.000000)">
                    <g id="Icons" transform="translate(61.000000, 67.000000)">
                        <g id="Social" transform="translate(6.000000, 620.000000)">
                            <g id="Icon/Social/Twitter/Black" transform="translate(155.000000, 2.000000)">
                                <path d="M21,2.00976562 C20.2207031,2.35839844 19.4003906,2.59423828 18.5185547,2.69677734 C19.4208984,2.16357422 20.0976562,1.3125 20.4155273,0.307617188 C19.5952148,0.799804688 18.6621094,1.15869141 17.6982422,1.35351562 C16.8881836,0.533203125 15.7705078,0 14.5297852,0 C12.1508789,0 10.2333984,1.91748047 10.2333984,4.29638672 C10.2333984,4.63476562 10.2539062,4.98339844 10.3256836,5.29101562 C6.75732422,5.09619141 3.59912109,3.47607422 1.45605469,0.871582031 C1.09716797,1.50732422 0.871582031,2.16357422 0.871582031,2.96337891 C0.871582031,4.43994141 1.63037109,5.75244141 2.79931641,6.53173828 C2.09179688,6.51123047 1.43554688,6.31640625 0.851074219,5.99853516 L0.851074219,6.04980469 C0.851074219,8.14160156 2.33789062,9.88476562 4.30664062,10.2744141 C3.9375,10.3769531 3.54785156,10.4282227 3.15820312,10.4282227 C2.89160156,10.4282227 2.625,10.3974609 2.35839844,10.3461914 C2.89160156,12.0483398 4.50146484,13.3198242 6.36767578,13.340332 C4.91162109,14.5092773 3.03515625,15.3808594 1.02539062,15.3808594 C0.676757812,15.3808594 0.338378906,15.3603516 0,15.309082 C1.89697266,16.5292969 4.18359375,17.0625 6.61376953,17.0625 C14.5297852,17.0625 18.8569336,10.5 18.8569336,4.80908203 L18.8569336,4.24511719 C19.6875,3.64013672 20.4155273,2.89160156 21,2.00976562 L21,2.00976562 Z" id="Icon/Twitter/Black"></path>
                            </g>
                        </g>
                    </g>
                </g>
            </g>
        </g>
    </g>
</svg>