<?xml version="1.0" encoding="UTF-8"?>
<svg width="21px" height="21px" viewBox="0 0 21 21" version="1.1" xmlns="http://www.w3.org/2000/svg" xmlns:xlink="http://www.w3.org/1999/xlink">
    <!-- Generator: Sketch 41.2 (35397) - http://www.bohemiancoding.com/sketch -->
    <title>user--s.colors-black-white-grey</title>
    <desc>Created with Sketch.</desc>
    <defs></defs>
    <g id="01-Style-Tile" stroke="none" stroke-width="1" fill="none" fill-rule="evenodd">
        <g id="Style-Tile" transform="translate(-477.000000, -757.000000)" fill="#000000">
            <g id="Icons" transform="translate(100.000000, 660.000000)">
                <g id="Iconset" transform="translate(0.000000, 30.000000)">
                    <g id="Icons" transform="translate(61.000000, 67.000000)">
                        <g id="Header" transform="translate(6.000000, 0.000000)">
                            <g id="Icon/Header/User/Black" transform="translate(310.000000, 0.000000)">
                                <path d="M10.5,0 C4.70058617,0 0,4.70058617 0,10.5 C0,16.2994138 4.70058617,21 10.5,21 C16.2994138,21 21,16.2994138 21,10.5 C21,4.70058617 16.2994138,0 10.5,0 L10.5,0 Z M10.5,0.874794842 C15.807034,0.874794842 20.1252052,5.19214537 20.1252052,10.5 C20.1252052,12.8347011 19.2889801,14.9781946 17.9004689,16.6465416 C16.9411489,16.2460727 14.675381,15.4599062 13.2737397,15.0454865 C13.1539273,15.0077374 13.1350528,15.001993 13.1350528,14.5038687 C13.1350528,14.0927315 13.3041032,13.6791325 13.4690504,13.3287222 C13.6479484,12.9479484 13.8596717,12.3078546 13.9359906,11.7334115 C14.1485346,11.4864009 14.4382181,10.9989449 14.6245018,10.0708089 C14.7878077,9.25263775 14.7114889,8.95474795 14.6031653,8.67573271 C14.5916764,8.64618992 14.5801876,8.61746776 14.5711606,8.58792497 C14.530129,8.39589683 14.5867526,7.3996483 14.7262603,6.62579132 C14.823095,6.09484174 14.7016413,4.96647128 13.9704572,4.03341149 C13.5092614,3.44337632 12.6262603,2.71957796 11.0137163,2.61864009 L10.1290739,2.61946073 C8.54361079,2.71957796 7.66060961,3.44337632 7.19941383,4.03341149 C6.46905041,4.96647128 6.34759672,6.09566237 6.44443142,6.62579132 C6.5855803,7.3996483 6.64056272,8.39589683 6.60117233,8.58464244 C6.592966,8.61746776 6.58065651,8.64618992 6.56834701,8.67573271 C6.46084408,8.95556858 6.38370457,9.25263775 6.54783118,10.0708089 C6.73329426,10.9989449 7.02297773,11.4864009 7.23634232,11.7334115 C7.31184056,12.3078546 7.52356389,12.9479484 7.70328253,13.3287222 C7.83376319,13.6069168 7.89531067,13.9860492 7.89531067,14.5219226 C7.89531067,15.0200469 7.87643611,15.0257913 7.76483001,15.0610785 C6.3147714,15.489449 4.00715123,16.3232122 3.14630715,16.6998828 C1.73071512,15.0241501 0.874794842,12.8601407 0.874794842,10.5 C0.874794842,5.192966 5.19214537,0.874794842 10.5,0.874794842 L10.5,0.874794842 Z M3.77983587,17.3818288 C4.76541618,16.9797186 6.72919109,16.278898 8.02004689,15.8981243 C8.77010551,15.6617819 8.77010551,15.0298945 8.77010551,14.5219226 C8.77010551,14.1009379 8.74138335,13.4805393 8.49519343,12.9561547 C8.32614302,12.5967175 8.13247362,11.980422 8.0898007,11.4987104 C8.08077374,11.3862837 8.02743259,11.2812427 7.94208675,11.2073857 C7.81817116,11.0990621 7.56623681,10.7018757 7.40539273,9.90011723 C7.27819461,9.26576788 7.33235639,9.12708089 7.38405627,8.99249707 C7.40621336,8.93505275 7.42754982,8.87842907 7.44478312,8.81524033 C7.54982415,8.43118406 7.43247362,7.16987104 7.3052755,6.46987104 C7.24947245,6.16541618 7.32004689,5.30128957 7.8887456,4.57338804 C8.39917937,3.92098476 9.17139508,3.55744431 10.1569754,3.49425557 L10.9866354,3.49343494 C11.998476,3.55744431 12.7706917,3.92098476 13.2819461,4.57338804 C13.8514654,5.30128957 13.9203986,6.16541618 13.8645955,6.47069168 C13.7382181,7.16987104 13.6200469,8.43200469 13.7250879,8.81524033 C13.7431419,8.87924971 13.7636577,8.93587339 13.7858148,8.9933177 C13.8383353,9.12708089 13.8916764,9.26658851 13.7652989,9.90093787 C13.6044549,10.7026964 13.3516999,11.0998828 13.2277843,11.2082063 C13.1432591,11.2828839 13.0899179,11.3871043 13.0800703,11.4995311 C13.0382181,11.9820633 12.8453693,12.5975381 12.6763189,12.9569754 C12.4826495,13.3689332 12.2594373,13.9179367 12.2594373,14.5046893 C12.2594373,15.0126612 12.2594373,15.6445487 13.0177022,15.8833529 C14.252755,16.2485346 16.2263775,16.9263775 17.2685815,17.3358734 C15.5280188,19.0592028 13.136694,20.1260258 10.5,20.1260258 C7.88792497,20.1260258 5.51629543,19.0780774 3.78065651,17.3834701 L3.77983587,17.3818288 Z" id="Icon/User/Black"></path>
                            </g>
                        </g>
                    </g>
                </g>
            </g>
        </g>
    </g>
</svg>