<?xml version="1.0" encoding="UTF-8"?>
<svg width="34px" height="11px" viewBox="0 0 34 11" version="1.1" xmlns="http://www.w3.org/2000/svg" xmlns:xlink="http://www.w3.org/1999/xlink">
    <!-- Generator: Sketch 41.2 (35397) - http://www.bohemiancoding.com/sketch -->
    <title>visa--s.colors-black-white-grey</title>
    <desc>Created with Sketch.</desc>
    <defs></defs>
    <g id="01-Style-Tile" stroke="none" stroke-width="1" fill="none" fill-rule="evenodd">
        <g id="Style-Tile" transform="translate(-161.000000, -1847.000000)" fill="#000000">
            <g id="Icons" transform="translate(100.000000, 660.000000)">
                <g id="Iconset" transform="translate(0.000000, 30.000000)">
                    <g id="Icons" transform="translate(61.000000, 67.000000)">
                        <g id="Payment-Methods" transform="translate(0.000000, 1086.000000)">
                            <g id="Icon/Payment/Visa/Black" transform="translate(0.000000, 4.000000)">
                                <path d="M21.8372365,0.00360868902 C22.3946164,-0.00962305974 22.9254463,0.0135321533 23.4297424,0.0730750227 C23.9340384,0.132617892 24.3719732,0.261625507 24.7435597,0.460101739 C24.677205,0.843822453 24.6141689,1.22753741 24.5544496,1.61125813 C24.4947304,1.99497884 24.4316943,2.3786938 24.3653396,2.76241451 C24.245901,2.70948752 24.129782,2.6598692 24.0169789,2.61355808 C23.9041759,2.56724696 23.7880568,2.52424442 23.6686183,2.48454918 C23.4562831,2.40515868 23.2041389,2.34230882 22.912178,2.2959977 C22.6202171,2.24968658 22.3282606,2.22983925 22.0362998,2.23645513 C21.7443389,2.243071 21.4722885,2.28276565 21.2201405,2.35554027 C20.9679925,2.42831489 20.7755666,2.55070673 20.6428571,2.72271946 C20.5897733,2.78887821 20.5433257,2.86826751 20.5035129,2.96088975 C20.4637,3.05351199 20.4570647,3.16598017 20.4836066,3.29829766 C20.5234194,3.43061514 20.6063616,3.55300698 20.7324356,3.66547685 C20.8585096,3.77794671 21.0011702,3.88379912 21.1604215,3.98303723 C21.3196729,4.08227535 21.4822396,4.17158831 21.6481265,4.2509788 C21.8140133,4.3303693 21.9566739,4.40314282 22.0761124,4.46930157 C22.3813442,4.62808255 22.6898892,4.81332426 23.0017564,5.02503224 C23.3136237,5.23674022 23.5856741,5.49144756 23.8179157,5.78916191 C24.0501573,6.08687625 24.212724,6.42758867 24.3056206,6.81130939 C24.3985172,7.1950301 24.3786111,7.63828704 24.2459016,8.14109349 C24.1264631,8.5512777 23.9672141,8.91514533 23.7681499,9.2327073 C23.5292728,9.56350102 23.2140925,9.85790302 22.8225995,10.1159221 C22.4311066,10.3739412 21.9898541,10.5757224 21.498829,10.7212716 C21.0078039,10.8668208 20.476974,10.9561338 19.9063232,10.9892132 C19.3356724,11.0222925 18.7517594,10.97929 18.1545667,10.8602043 C18.0616701,10.8469725 17.9256449,10.8238173 17.7464871,10.7907379 C17.5673293,10.7576586 17.3848565,10.7179639 17.1990632,10.6716528 C17.01327,10.6253417 16.8473856,10.5790312 16.7014052,10.5327201 C16.5554247,10.486409 16.4758002,10.4301749 16.4625293,10.3640162 C16.528884,9.98029545 16.5919201,9.58996472 16.6516393,9.19301226 C16.7113586,8.79605979 16.7743947,8.40572906 16.8407494,8.02200835 C16.9734589,8.08816709 17.1028487,8.14440118 17.2289227,8.1907123 C17.3549967,8.23702342 17.4843865,8.29325751 17.617096,8.35941625 C17.8294312,8.43880675 18.0848931,8.51488816 18.3834895,8.58766278 C18.6820858,8.6604374 18.9839954,8.70674782 19.2892272,8.72659544 C19.594459,8.74644307 19.8930508,8.73651941 20.1850117,8.69682416 C20.4769726,8.65712891 20.7357522,8.57112384 20.9613583,8.43880635 C21.0807969,8.3726476 21.1969159,8.27341098 21.309719,8.14109349 C21.422522,8.008776 21.465652,7.83676585 21.4391101,7.62505787 C21.3860263,7.3339594 21.2533188,7.12225459 21.0409836,6.9899371 C20.8286484,6.85761962 20.6096811,6.73191989 20.3840749,6.61283415 C19.9992174,6.38789442 19.6077303,6.17288173 19.2096019,5.96778962 C18.8114734,5.76269752 18.4797047,5.49475862 18.2142857,5.1639649 C18.1081181,5.03164742 18.0152229,4.89271614 17.9355972,4.7471669 C17.8559715,4.60161767 17.7829824,4.44283906 17.7166276,4.27082633 C17.5573763,3.80771512 17.5241994,3.36776607 17.617096,2.95096599 C17.7099927,2.5341659 17.875877,2.16037461 18.1147541,1.82958089 C18.3536312,1.49878717 18.6323169,1.21100095 18.9508197,0.966213598 C19.2693224,0.721426246 19.5745497,0.53949243 19.8665105,0.420406691 C20.0788457,0.32778445 20.3011308,0.255010923 20.5333724,0.202083928 C20.765614,0.149156933 21.0078051,0.102846507 21.2599532,0.0631512607 C21.3661207,0.049919512 21.4623337,0.0399958493 21.5485948,0.0333799749 C21.634856,0.0267641005 21.7310689,0.0168404378 21.8372365,0.00360868902 L21.8372365,0.00360868902 Z M0.0597189696,0.182236404 L3.56323185,0.182236404 C3.88173461,0.182236404 4.2002326,0.185544292 4.51873536,0.192160166 C4.83723813,0.19877604 5.09601774,0.261625904 5.29508197,0.380711643 C5.42779145,0.460102136 5.53063976,0.569262426 5.60362998,0.708195788 C5.67662019,0.84712915 5.73302088,0.999291978 5.77283372,1.16468884 C5.81264657,1.3300857 5.84582344,1.50540374 5.87236534,1.69064822 C5.89890724,1.8758927 5.93208411,2.05451863 5.97189696,2.22653137 C6.14441929,3.08659504 6.31362134,3.94333792 6.4795082,4.79678571 C6.64539505,5.65023351 6.81459711,6.51359216 6.98711944,7.38688758 L7.00702576,7.38688758 C7.45823801,6.18279844 7.90280811,4.98203526 8.34074941,3.78456199 C8.77869071,2.58708873 9.22326082,1.38632554 9.67447307,0.182236404 L12.6007026,0.182236404 L12.6007026,0.202083928 C11.8840714,1.97513826 11.1641332,3.74155023 10.4408665,5.50137281 C9.71759982,7.2611954 8.99766166,9.02760736 8.28103044,10.8006617 C7.79000535,10.8006617 7.30230531,10.8039696 6.81791569,10.8105855 C6.33352607,10.8172013 5.84582603,10.8205092 5.35480094,10.8205092 C4.94340153,9.27239461 4.53532599,7.730919 4.13056206,6.19603615 C3.72579813,4.66115329 3.31772259,3.11967768 2.90632319,1.57156308 C2.78688465,1.50540433 2.67076559,1.44255447 2.55796253,1.3830116 C2.44515947,1.32346873 2.32904041,1.26723464 2.20960187,1.21430765 C1.98399575,1.10845366 1.75507532,1.00921703 1.52283372,0.916594789 C1.29059213,0.823972547 1.05503632,0.731351695 0.816159251,0.638729454 C0.776346405,0.625497705 0.713310345,0.608958267 0.62704918,0.589110644 C0.540788015,0.569263021 0.451210457,0.549415696 0.358313817,0.529568072 C0.265417178,0.509720449 0.185792681,0.483257349 0.119437939,0.450177977 C0.0530831967,0.417098605 0.0132709485,0.387327617 0,0.360864119 L0.0597189696,0.182236404 Z M16.4625293,0.182236404 C16.1838394,1.95529074 15.9018359,3.72501059 15.6165105,5.49144905 C15.3311851,7.25788751 15.0425463,9.03422313 14.7505855,10.8205092 L11.9836066,10.8205092 C12.2755674,9.03422313 12.5642062,7.25788751 12.8495316,5.49144905 C13.134857,3.72501059 13.4234958,1.95529074 13.7154567,0.182236404 L16.4625293,0.182236404 Z M34,10.8403567 C33.734581,10.827125 33.4758014,10.8205092 33.2236534,10.8205092 L32.4473068,10.8205092 C32.2880554,10.8205092 32.1055826,10.8304329 31.8998829,10.8502805 C31.6941832,10.8701281 31.5382519,10.8535887 31.4320843,10.8006617 C31.3790005,10.5360267 31.3259175,10.2747036 31.2728337,10.0166845 C31.2197499,9.7586654 31.1666669,9.49734228 31.1135831,9.2327073 L27.5901639,9.2327073 C27.4972673,9.49734228 27.404372,9.76528117 27.3114754,10.036532 C27.2185788,10.3077829 27.1190481,10.5757218 27.0128806,10.8403567 L24.1264637,10.8403567 C24.6705726,9.54364536 25.2080379,8.25356921 25.7388759,6.97008958 C26.2697138,5.68660995 26.8138145,4.3965338 27.3711944,3.09982242 C27.4508201,2.91457794 27.5370799,2.68633369 27.6299766,2.41508284 C27.7228732,2.14383199 27.8290392,1.87258521 27.9484778,1.60133436 C28.0679163,1.33008351 28.1939884,1.08199195 28.3266979,0.857052217 C28.4594074,0.632112488 28.5987502,0.473333885 28.7447307,0.380711643 C28.8907111,0.301321151 29.0897724,0.245087062 29.3419204,0.21200769 C29.5940684,0.178928318 29.8628011,0.159080993 30.1481265,0.152465118 C30.4334519,0.145849244 30.7220907,0.149157131 31.0140515,0.16238888 C31.3060124,0.175620629 31.564792,0.182236404 31.7903981,0.182236404 L34,10.8403567 Z M30.6557377,7.02963215 C30.5097573,6.36804471 30.3737321,5.71308297 30.2476581,5.06472728 C30.1215841,4.4163716 29.9855589,3.76140986 29.8395785,3.09982242 L28.4063232,7.02963215 L30.6557377,7.02963215 Z" id="Icon/Visa/Black"></path>
                            </g>
                        </g>
                    </g>
                </g>
            </g>
        </g>
    </g>
</svg>