<?xml version="1.0" encoding="UTF-8"?>
<svg width="36px" height="15px" viewBox="0 0 36 15" version="1.1" xmlns="http://www.w3.org/2000/svg" xmlns:xlink="http://www.w3.org/1999/xlink">
    <!-- Generator: Sketch 41.2 (35397) - http://www.bohemiancoding.com/sketch -->
    <title>youtube--s.colors-black-white-grey</title>
    <desc>Created with Sketch.</desc>
    <defs>
        <linearGradient x1="50.0009415%" y1="-6.96650504e-05%" x2="50.0009415%" y2="100.000906%" id="linearGradient-1">
            <stop stop-color="#4B4B4B" offset="0%"></stop>
            <stop stop-color="#000000" offset="99.44%"></stop>
        </linearGradient>
        <linearGradient x1="49.99965%" y1="0.000359579651%" x2="49.99965%" y2="100.001798%" id="linearGradient-2">
            <stop stop-color="#4B4B4B" offset="0%"></stop>
            <stop stop-color="#000000" offset="99.44%"></stop>
        </linearGradient>
        <linearGradient x1="50.000178%" y1="0.000186183335%" x2="50.000178%" y2="99.9996276%" id="linearGradient-3">
            <stop stop-color="#4B4B4B" offset="0%"></stop>
            <stop stop-color="#000000" offset="99.44%"></stop>
        </linearGradient>
    </defs>
    <g id="01-Style-Tile" stroke="none" stroke-width="1" fill="none" fill-rule="evenodd">
        <g id="Style-Tile" transform="translate(-781.000000, -1380.000000)">
            <g id="Icons" transform="translate(100.000000, 660.000000)">
                <g id="Iconset" transform="translate(0.000000, 30.000000)">
                    <g id="Icons" transform="translate(61.000000, 67.000000)">
                        <g id="Social" transform="translate(6.000000, 620.000000)">
                            <g id="Icon/Social/YouTube/Black" transform="translate(614.000000, 3.000000)">
                                <g id="youtube">
                                    <g id="Group" transform="translate(0.000000, 2.307762)">
                                        <polygon id="Shape" fill="url(#linearGradient-1)" points="0 0.0395616427 1.4724184 0.0395616427 2.42097472 3.8227756 2.51275774 3.8227756 3.41713689 0.0395616427 4.9025447 0.0395616427 3.20113032 5.57693883 3.20113032 9.50428904 1.73919575 9.50428904 1.73919575 5.75371344"></polygon>
                                        <path d="M4.83634488,4.11856481 C4.83634488,3.57782309 5.01100953,3.14739242 5.36053665,2.82674531 C5.71006376,2.50609819 6.1797264,2.34587354 6.76972236,2.34587354 C7.30690353,2.34587354 7.74702681,2.51499956 8.09009218,2.85292193 C8.43315756,3.19084429 8.60465728,3.62582455 8.60465728,4.15792865 L8.60465728,7.76403831 C8.60465728,8.36155099 8.43625656,8.83035646 8.0999826,9.17045471 C7.7636427,9.51055297 7.30050773,9.68066803 6.71070958,9.68066803 C6.1428022,9.68066803 5.68830486,9.50501434 5.34761318,9.15410257 C5.00678963,8.80319079 4.83641082,8.33108853 4.83641082,7.73786169 L4.83641082,4.11856481 L4.83634488,4.11856481 Z M6.17220968,7.86867886 C6.17220968,8.06094844 6.218299,8.20917273 6.31087324,8.31401108 C6.40318374,8.41871756 6.53512182,8.470873 6.70688528,8.470873 C6.88293459,8.470873 7.02258719,8.41753071 7.12610682,8.31064834 C7.22949458,8.2036341 7.28132034,8.05646479 7.28132034,7.86867886 L7.28132034,4.06614564 C7.28132034,3.91356957 7.22830774,3.79026911 7.12281002,3.69657396 C7.01731231,3.6028788 6.87864875,3.55580044 6.70688528,3.55580044 C6.54857278,3.55580044 6.41979963,3.60281286 6.32076365,3.69657396 C6.22172767,3.79033505 6.17227562,3.91356957 6.17227562,4.06614564 L6.17227562,7.86867886 L6.17220968,7.86867886 Z" id="Shape" fill="url(#linearGradient-2)"></path>
                                        <path d="M13.4117266,2.52231847 L13.4117266,9.50435497 L12.1136431,9.50435497 L12.1136431,8.73362824 C11.8743611,9.0176149 11.6254524,9.23408302 11.3667193,9.38257105 C11.1079862,9.53079534 10.8567038,9.60523716 10.6132678,9.60523716 C10.3131928,9.60523716 10.0869002,9.50145379 9.93465378,9.29342548 C9.78240739,9.08559499 9.70644903,8.77378331 9.70644903,8.35805638 L9.70644903,2.52231847 L11.0045984,2.52231847 L11.0045984,7.87448123 C11.0045984,8.04011264 11.0317641,8.15972068 11.0860954,8.23376688 C11.1404267,8.30781309 11.2284514,8.3449351 11.3503672,8.3449351 C11.4461063,8.3449351 11.5665715,8.29601054 11.7122903,8.1979636 C11.858009,8.09985072 11.9917273,7.97463812 12.1136431,7.82206206 L12.1136431,2.52231847 L13.4117266,2.52231847 Z" id="Shape" fill="url(#linearGradient-3)"></path>
                                    </g>
                                    <g id="Group" transform="translate(14.571872, 0.000000)" fill="#231F20">
                                        <path d="M17.7269127,5.86356293 C17.520335,5.86356293 17.3721107,5.9269275 17.282108,6.05339288 C17.1918415,6.17999014 17.147005,6.38953497 17.147005,6.68169771 L17.147005,7.28758426 L18.2938311,7.28758426 L18.2938311,6.68169771 C18.2938311,6.38946904 18.2487308,6.17999014 18.1587281,6.05339288 C18.0685275,5.9269275 17.9245891,5.86356293 17.7269127,5.86356293 Z" id="Shape"></path>
                                        <path d="M12.9539983,5.83830942 C12.861556,5.83830942 12.7699708,5.86138704 12.6797043,5.90701481 C12.5893059,5.95290631 12.5001604,6.02378759 12.4120698,6.11972457 L12.4120698,10.3698978 C12.5176994,10.4833738 12.6200321,10.5652664 12.7193319,10.6152459 C12.8184997,10.6654892 12.9230743,10.690479 13.0333194,10.690479 C13.1918298,10.690479 13.3086685,10.6415544 13.3835059,10.5434415 C13.4583434,10.4454605 13.4959269,10.2848402 13.4959269,10.062306 L13.4959269,6.55806757 C13.4959269,6.32254393 13.4497057,6.1437253 13.3571315,6.0216117 C13.2646232,5.89956403 13.1300477,5.83830942 12.9539983,5.83830942 Z" id="Shape"></path>
                                        <path d="M21.2557453,3.19664667 C21.2557453,1.51052945 19.8717472,0.142421914 18.1661788,0.142421914 C15.731951,0.040814428 13.2412159,-0.00428584462 10.700699,0.000395616427 C8.16024816,-0.00421990855 5.66957901,0.040814428 3.23515333,0.142421914 C1.52971685,0.142421914 0.145586845,1.51052945 0.145586845,3.19664667 C0.0431881266,4.53204991 -0.00125278535,5.8675191 0.00276931499,7.20292235 C-0.00118684928,8.5383256 0.0431881266,9.87372885 0.145652781,11.209198 C0.145652781,12.8953152 1.52978279,14.2634887 3.23521927,14.2634887 C5.66957901,14.3650962 8.16018223,14.4101965 10.700699,14.4053831 C13.2411499,14.4101305 15.731951,14.3650962 18.1661788,14.2634887 C19.8717472,14.2634887 21.2557453,12.8953152 21.2557453,11.209198 C21.358144,9.87372885 21.4025849,8.5383256 21.3985628,7.20292235 C21.4025849,5.8675191 21.358144,4.53204991 21.2557453,3.19664667 Z M4.63497612,11.6986415 L4.63497612,11.7994577 L3.17304155,11.7994577 L3.17304155,11.6986415 L3.17304155,3.70837651 L1.66066589,3.70837651 L1.66066589,3.6076262 L1.66066589,2.33466441 L1.66066589,2.23384815 L6.14735178,2.23384815 L6.14735178,2.33466441 L6.14735178,3.6076262 L6.14735178,3.70837651 L4.63491018,3.70837651 L4.63491018,11.6986415 L4.63497612,11.6986415 Z M9.8348925,4.81748717 L9.8348925,11.6986415 L9.8348925,11.7994577 L8.53674313,11.7994577 L8.53674313,11.6986415 L8.53674313,11.028731 C8.29746113,11.3127177 8.04868433,11.5291858 7.78981932,11.6776738 C7.53108617,11.8258981 7.27986974,11.9003399 7.03643377,11.9003399 C6.73635871,11.9003399 6.51013205,11.7965566 6.35788566,11.5886601 C6.20563927,11.3806978 6.12954905,11.0688861 6.12954905,10.6531591 L6.12954905,10.5523429 L6.12954905,4.81748717 L6.12954905,4.71667091 L7.42769841,4.71667091 L7.42769841,4.81748717 L7.42769841,10.0688337 C7.42769841,10.2344651 7.45486408,10.354205 7.5091954,10.4281193 C7.56352672,10.5021655 7.65161731,10.5392875 7.77346717,10.5392875 C7.86914041,10.5392875 7.98967155,10.4904949 8.1354562,10.392316 C8.28110898,10.294335 8.41489327,10.1689906 8.53674313,10.0164145 L8.53674313,4.81748717 L8.53674313,4.71667091 L9.8348925,4.71667091 L9.8348925,4.81748717 Z M14.8318577,6.47953771 L14.8318577,10.25207 L14.8318577,10.3528863 C14.8318577,10.849319 14.7299864,11.2292426 14.5267715,11.4927231 C14.3235565,11.7562037 14.0295475,11.8876802 13.6450084,11.8876802 C13.3912864,11.8876802 13.1650597,11.8367116 12.9661965,11.7347085 C12.7673333,11.6327054 12.5825805,11.475316 12.4120698,11.2627381 L12.4120698,11.6986415 L12.4120698,11.7994577 L11.1013266,11.7994577 L11.1013266,11.6986415 L11.1013266,2.33466441 L11.1013266,2.23384815 L12.4120698,2.23384815 L12.4120698,2.33466441 L12.4120698,5.28081994 C12.5869322,5.06778049 12.7726741,4.9058415 12.9692955,4.79487109 C13.1660487,4.68396662 13.3649119,4.62844845 13.5662148,4.62844845 C13.9769965,4.62844845 14.2907203,4.77779365 14.5071225,5.07589063 C14.7235906,5.37398761 14.8319236,5.80837444 14.8319236,6.37872146 L14.8319236,6.47953771 L14.8318577,6.47953771 Z M19.6297618,6.69468711 L19.6297618,8.3714414 L19.6297618,8.47225765 L17.147005,8.47225765 L17.147005,9.68844849 C17.147005,10.0554487 17.1897316,10.3102256 17.2753825,10.4521201 C17.3610335,10.5942782 17.5070819,10.6652254 17.7138574,10.6652254 C17.9290727,10.6652254 18.0796048,10.6050917 18.1652557,10.4849562 C18.2509067,10.3649526 18.2937651,10.0992302 18.2937651,9.68844849 L18.2937651,9.30404119 L18.2937651,9.20322494 L19.6297618,9.20322494 L19.6297618,9.30404119 L19.6297618,9.72761451 L19.6297618,9.82843076 C19.6297618,10.5441009 19.4670975,11.0829964 19.1418349,11.4451832 C18.8165722,11.8073701 18.3306234,11.9884965 17.684384,11.9884965 C17.1034212,11.9884965 16.6460227,11.7964906 16.3119906,11.4126108 C15.9780903,11.0285991 15.8110083,10.5005831 15.8110083,9.8284967 L15.8110083,9.72768045 L15.8110083,6.69475305 L15.8110083,6.59393679 C15.8110083,5.98785243 15.9943765,5.49412313 16.3613108,5.11248515 C16.7279812,4.73111091 17.2017319,4.54022599 17.7826946,4.54022599 C18.3765149,4.54022599 18.8327925,4.71693466 19.1516594,5.07015419 C19.4702624,5.42337372 19.6298277,5.93134522 19.6298277,6.59387086 L19.6298277,6.69468711 L19.6297618,6.69468711 Z" id="Shape"></path>
                                    </g>
                                </g>
                            </g>
                        </g>
                    </g>
                </g>
            </g>
        </g>
    </g>
</svg>