<?xml version="1.0" encoding="utf-8"?>
<!-- Generator: Adobe Illustrator 17.1.0, SVG Export Plug-In . SVG Version: 6.00 Build 0)  -->
<!DOCTYPE svg PUBLIC "-//W3C//DTD SVG 1.1//EN" "http://www.w3.org/Graphics/SVG/1.1/DTD/svg11.dtd">
<svg version="1.1" id="Layer_1" xmlns:sketch="http://www.bohemiancoding.com/sketch/ns"
	 xmlns="http://www.w3.org/2000/svg" xmlns:xlink="http://www.w3.org/1999/xlink" x="0px" y="0px" viewBox="0 0 102 80"
	 enable-background="new 0 0 102 80" xml:space="preserve">
<title>GPMD New Logo 2014</title>
<description>Created with Sketch (http://www.bohemiancoding.com/sketch)</description>
<g>
	<path fill="#FFCC00" d="M41,18.7h-2.5v3.9H41c1.1,0,2.1-0.9,2.1-2C43,19.5,42.1,18.7,41,18.7z"/>
	<path fill="#FFCC00" d="M77.7,18.7h-2.5v10.4h2.5c3,0,5.1-2.3,5.1-5.2C82.8,21,80.7,18.7,77.7,18.7z"/>
	<path fill="#FFCC00" d="M96.5,11.4C88,3,74.6,1.8,63.3,0.7C55-0.2,47-0.2,38.7,0.6C27.4,1.8,14,3,5.5,11.4
		c-3.9,3.9-6.4,9.4-5.2,14.9c4.6,22.2,33.9,15.4,45,30.8c4.6,6.4,4.5,15.5,5.6,23l0.2,0c1.1-7.5,0.9-16.6,5.6-23
		c11.2-15.4,40.5-8.6,45-30.8C102.9,20.8,100.4,15.3,96.5,11.4z M30.6,31.5c0,0-2.7,1.7-6.5,1.7c-5.2,0-9.4-4.1-9.4-9.2
		s4.2-9.3,9.4-9.3c2.2,0,4.6,0.9,6.4,2.4c0.2,0.2,0.3,0.5,0.1,0.7L28.5,20c-0.2,0.2-0.5,0.2-0.7,0c-1-0.9-2.1-1.2-3.4-1.2
		c-2.8,0-5.1,2.4-5.1,5.2c0,2.8,2.3,5.1,5.2,5.1c0.8,0,1.5-0.1,2.3-0.4v-1.5h-1.6c-0.3,0-0.5-0.2-0.5-0.5v-2.5
		c0-0.3,0.2-0.5,0.5-0.5h5.2c0.3,0,0.5,0.2,0.5,0.5l0,6.9C30.8,31.2,30.7,31.4,30.6,31.5z M41.2,26.4h-2.7v6.1
		c0,0.3-0.2,0.5-0.5,0.5h-3.1c-0.3,0-0.5-0.2-0.5-0.5v-17c0-0.3,0.2-0.5,0.5-0.5h6.3c3.2,0,5.9,2.6,5.9,5.7
		C47,23.8,44.4,26.4,41.2,26.4z M68,32.9h-3.1c-0.2,0-0.5-0.2-0.5-0.4l-1.2-8h-0.1l-4.4,8.3c-0.1,0.2-0.3,0.3-0.4,0.3h-0.5
		c-0.2,0-0.4-0.1-0.4-0.3L53,24.6h-0.1l-1.1,8c0,0.2-0.2,0.4-0.5,0.4h-3.1c-0.3,0-0.5-0.2-0.5-0.6l3-17.3c0-0.2,0.3-0.4,0.5-0.4h0.4
		c0.1,0,0.4,0.1,0.4,0.3L58.1,26h0.1l6.1-11.1c0.1-0.2,0.3-0.3,0.4-0.3H65c0.2,0,0.4,0.2,0.5,0.4l3,17.3
		C68.5,32.7,68.3,32.9,68,32.9z M78,32.9h-6.4c-0.3,0-0.5-0.2-0.5-0.5v-17c0-0.3,0.2-0.5,0.5-0.5H78c5,0,9.2,4,9.2,9
		C87.2,28.9,83,32.9,78,32.9z"/>
</g>
</svg>
